M48
; DRILL file {KiCad (7.0.0)} date Thu Jun  8 15:27:55 2023
; FORMAT={-:-/ absolute / inch / decimal}
; #@! TF.CreationDate,2023-06-08T15:27:55+08:00
; #@! TF.GenerationSoftware,Kicad,Pcbnew,(7.0.0)
; #@! TF.FileFunction,Plated,1,2,PTH
FMAT,2
INCH
; #@! TA.AperFunction,Plated,PTH,ViaDrill
T1C0.0098
; #@! TA.AperFunction,Plated,PTH,ViaDrill
T2C0.0118
; #@! TA.AperFunction,Plated,PTH,ViaDrill
T3C0.0197
; #@! TA.AperFunction,Plated,PTH,ComponentDrill
T4C0.0236
; #@! TA.AperFunction,Plated,PTH,ComponentDrill
T5C0.0394
%
G90
G05
T1
X6.72Y-2.92
X6.73Y-3.16
X6.73Y-3.19
X6.73Y-3.22
X6.73Y-3.25
X6.73Y-3.28
X6.735Y-2.68
X6.735Y-2.71
X6.735Y-2.785
X6.735Y-2.815
X6.735Y-3.52
X6.735Y-3.55
X6.735Y-3.58
X6.745Y-2.61
X6.76Y-3.145
X6.77Y-3.59
X6.78Y-2.62
X6.79Y-2.585
X6.79Y-3.145
X6.805Y-3.59
X6.89Y-3.595
X6.895Y-2.705
X6.925Y-2.76
X6.935Y-2.79
X6.935Y-3.595
X6.99Y-3.075
X7.015Y-3.13
X7.02Y-2.015
X7.02Y-2.045
X7.02Y-2.075
X7.02Y-3.075
X7.025Y-2.515
X7.025Y-2.99
X7.025Y-3.04
X7.035Y-3.585
X7.05Y-2.015
X7.05Y-3.14
X7.055Y-2.485
X7.055Y-2.515
X7.055Y-2.91
X7.055Y-3.295
X7.07Y-3.585
X7.08Y-2.015
X7.08Y-3.155
X7.08Y-3.185
X7.08Y-3.505
X7.085Y-2.455
X7.085Y-2.485
X7.085Y-3.295
X7.095Y-2.91
X7.1Y-3.575
X7.11Y-2.015
X7.11Y-3.125
X7.11Y-3.155
X7.11Y-3.505
X7.115Y-2.455
X7.115Y-3.295
X7.14Y-2.015
X7.14Y-2.045
X7.14Y-2.075
X7.15Y-2.21
X7.2344Y-2.4039
X7.24Y-3.5
X7.24Y-3.53
X7.24Y-3.56
X7.24Y-3.59
X7.2479Y-2.4279
X7.25Y-2.5
X7.26Y-2.535
X7.285Y-2.935
X7.305Y-2.745
X7.305Y-2.775
X7.315Y-2.94
X7.33Y-3.04
X7.335Y-3.38
X7.335Y-3.415
X7.335Y-3.45
X7.335Y-3.7
X7.335Y-3.73
X7.335Y-3.76
X7.335Y-3.79
X7.34Y-2.86
X7.34Y-2.89
X7.34Y-2.92
X7.34Y-3.825
X7.365Y-3.01
X7.365Y-3.38
X7.365Y-3.415
X7.365Y-3.45
X7.37Y-2.745
X7.37Y-2.775
X7.38Y-3.825
X7.395Y-3.01
X7.395Y-3.38
X7.395Y-3.415
X7.395Y-3.45
X7.415Y-3.825
X7.42Y-2.5
X7.42Y-2.53
X7.425Y-3.015
X7.425Y-3.38
X7.425Y-3.415
X7.425Y-3.45
X7.45Y-2.5
X7.45Y-2.53
X7.46Y-2.64
X7.46Y-2.665
X7.465Y-2.82
X7.48Y-2.5
X7.48Y-2.53
X7.49Y-2.455
X7.49Y-3.38
X7.49Y-3.415
X7.49Y-3.45
X7.495Y-2.82
X7.53Y-2.38
X7.53Y-2.84
X7.56Y-2.81
X7.56Y-2.84
X7.575Y-2.355
X7.645Y-2.285
X7.67Y-2.94
X7.67Y-2.97
X7.67Y-3.0
X7.71Y-2.835
X7.74Y-2.975
X7.74Y-3.005
X7.74Y-3.035
X7.745Y-2.6
X7.755Y-2.655
X7.785Y-2.685
X7.79Y-2.6
X7.825Y-2.685
X7.825Y-3.37
X7.825Y-3.445
X7.825Y-3.48
X7.83Y-2.595
X7.83Y-3.405
X7.865Y-3.355
X7.865Y-3.44
X7.87Y-3.395
X7.87Y-3.485
T2
X7.39Y-2.665
X7.41Y-2.825
T3
X6.81Y-3.64
X6.91Y-2.87
X6.91Y-3.185
X6.94Y-2.63
X6.9685Y-2.87
X7.025Y-3.64
X7.25Y-3.09
X7.53Y-3.575
T5
X6.41Y-2.65
X6.41Y-2.75
X6.51Y-2.65
X6.51Y-2.75
X6.61Y-2.65
X6.61Y-2.75
T4
G00X6.7349Y-3.7087
M15
G01X6.7349Y-3.752
M16
G05
G00X6.7349Y-3.8831
M15
G01X6.7349Y-3.9067
M16
G05
G00X7.0751Y-3.7087
M15
G01X7.0751Y-3.752
M16
G05
G00X7.0751Y-3.8831
M15
G01X7.0751Y-3.9067
M16
G05
T0
M30
