%TF.GenerationSoftware,KiCad,Pcbnew,(7.0.0)*%
%TF.CreationDate,2023-06-08T15:27:54+08:00*%
%TF.ProjectId,Board_Car_V0_2,426f6172-645f-4436-9172-5f56305f322e,rev?*%
%TF.SameCoordinates,Original*%
%TF.FileFunction,Drillmap*%
%TF.FilePolarity,Positive*%
%FSLAX45Y45*%
G04 Gerber Fmt 4.5, Leading zero omitted, Abs format (unit mm)*
G04 Created by KiCad (PCBNEW (7.0.0)) date 2023-06-08 15:27:54*
%MOMM*%
%LPD*%
G01*
G04 APERTURE LIST*
%ADD10C,0.100000*%
%ADD11C,0.200000*%
%ADD12C,0.025000*%
%ADD13C,0.030000*%
%ADD14C,0.050000*%
%ADD15C,0.060000*%
G04 APERTURE END LIST*
D10*
X19910000Y-9600000D02*
G75*
G03*
X19910000Y-9600000I-210000J0D01*
G01*
X19910000Y-5200000D02*
G75*
G03*
X19910000Y-5200000I-210000J0D01*
G01*
X16710000Y-9600000D02*
G75*
G03*
X16710000Y-9600000I-210000J0D01*
G01*
X16100000Y-4800000D02*
X20100000Y-4800000D01*
X20100000Y-4800000D02*
X20100000Y-10000000D01*
X20100000Y-10000000D02*
X16100000Y-10000000D01*
X16100000Y-10000000D02*
X16100000Y-4800000D01*
D11*
D12*
X17056300Y-7404300D02*
X17081300Y-7429300D01*
X17081300Y-7404300D02*
X17056300Y-7429300D01*
X17081700Y-8013900D02*
X17106700Y-8038900D01*
X17106700Y-8013900D02*
X17081700Y-8038900D01*
X17081700Y-8090100D02*
X17106700Y-8115100D01*
X17106700Y-8090100D02*
X17081700Y-8115100D01*
X17081700Y-8166300D02*
X17106700Y-8191300D01*
X17106700Y-8166300D02*
X17081700Y-8191300D01*
X17081700Y-8242500D02*
X17106700Y-8267500D01*
X17106700Y-8242500D02*
X17081700Y-8267500D01*
X17081700Y-8318700D02*
X17106700Y-8343700D01*
X17106700Y-8318700D02*
X17081700Y-8343700D01*
X17094400Y-6794700D02*
X17119400Y-6819700D01*
X17119400Y-6794700D02*
X17094400Y-6819700D01*
X17094400Y-6870900D02*
X17119400Y-6895900D01*
X17119400Y-6870900D02*
X17094400Y-6895900D01*
X17094400Y-7061400D02*
X17119400Y-7086400D01*
X17119400Y-7061400D02*
X17094400Y-7086400D01*
X17094400Y-7137600D02*
X17119400Y-7162600D01*
X17119400Y-7137600D02*
X17094400Y-7162600D01*
X17094400Y-8928300D02*
X17119400Y-8953300D01*
X17119400Y-8928300D02*
X17094400Y-8953300D01*
X17094400Y-9004500D02*
X17119400Y-9029500D01*
X17119400Y-9004500D02*
X17094400Y-9029500D01*
X17094400Y-9080700D02*
X17119400Y-9105700D01*
X17119400Y-9080700D02*
X17094400Y-9105700D01*
X17119800Y-6616900D02*
X17144800Y-6641900D01*
X17144800Y-6616900D02*
X17119800Y-6641900D01*
X17157900Y-7975800D02*
X17182900Y-8000800D01*
X17182900Y-7975800D02*
X17157900Y-8000800D01*
X17183300Y-9106100D02*
X17208300Y-9131100D01*
X17208300Y-9106100D02*
X17183300Y-9131100D01*
X17208700Y-6642300D02*
X17233700Y-6667300D01*
X17233700Y-6642300D02*
X17208700Y-6667300D01*
X17234100Y-6553400D02*
X17259100Y-6578400D01*
X17259100Y-6553400D02*
X17234100Y-6578400D01*
X17234100Y-7975800D02*
X17259100Y-8000800D01*
X17259100Y-7975800D02*
X17234100Y-8000800D01*
X17272200Y-9106100D02*
X17297200Y-9131100D01*
X17297200Y-9106100D02*
X17272200Y-9131100D01*
X17488100Y-9118800D02*
X17513100Y-9143800D01*
X17513100Y-9118800D02*
X17488100Y-9143800D01*
X17500800Y-6858200D02*
X17525800Y-6883200D01*
X17525800Y-6858200D02*
X17500800Y-6883200D01*
X17577000Y-6997900D02*
X17602000Y-7022900D01*
X17602000Y-6997900D02*
X17577000Y-7022900D01*
X17602400Y-7074100D02*
X17627400Y-7099100D01*
X17627400Y-7074100D02*
X17602400Y-7099100D01*
X17602400Y-9118800D02*
X17627400Y-9143800D01*
X17627400Y-9118800D02*
X17602400Y-9143800D01*
X17742100Y-7798000D02*
X17767100Y-7823000D01*
X17767100Y-7798000D02*
X17742100Y-7823000D01*
X17805600Y-7937700D02*
X17830600Y-7962700D01*
X17830600Y-7937700D02*
X17805600Y-7962700D01*
X17818300Y-5105600D02*
X17843300Y-5130600D01*
X17843300Y-5105600D02*
X17818300Y-5130600D01*
X17818300Y-5181800D02*
X17843300Y-5206800D01*
X17843300Y-5181800D02*
X17818300Y-5206800D01*
X17818300Y-5258000D02*
X17843300Y-5283000D01*
X17843300Y-5258000D02*
X17818300Y-5283000D01*
X17818300Y-7798000D02*
X17843300Y-7823000D01*
X17843300Y-7798000D02*
X17818300Y-7823000D01*
X17831000Y-6375600D02*
X17856000Y-6400600D01*
X17856000Y-6375600D02*
X17831000Y-6400600D01*
X17831000Y-7582100D02*
X17856000Y-7607100D01*
X17856000Y-7582100D02*
X17831000Y-7607100D01*
X17831000Y-7709100D02*
X17856000Y-7734100D01*
X17856000Y-7709100D02*
X17831000Y-7734100D01*
X17856400Y-9093400D02*
X17881400Y-9118400D01*
X17881400Y-9093400D02*
X17856400Y-9118400D01*
X17894500Y-5105600D02*
X17919500Y-5130600D01*
X17919500Y-5105600D02*
X17894500Y-5130600D01*
X17894500Y-7963100D02*
X17919500Y-7988100D01*
X17919500Y-7963100D02*
X17894500Y-7988100D01*
X17907200Y-6299400D02*
X17932200Y-6324400D01*
X17932200Y-6299400D02*
X17907200Y-6324400D01*
X17907200Y-6375600D02*
X17932200Y-6400600D01*
X17932200Y-6375600D02*
X17907200Y-6400600D01*
X17907200Y-7378900D02*
X17932200Y-7403900D01*
X17932200Y-7378900D02*
X17907200Y-7403900D01*
X17907200Y-8356800D02*
X17932200Y-8381800D01*
X17932200Y-8356800D02*
X17907200Y-8381800D01*
X17945300Y-9093400D02*
X17970300Y-9118400D01*
X17970300Y-9093400D02*
X17945300Y-9118400D01*
X17970700Y-5105600D02*
X17995700Y-5130600D01*
X17995700Y-5105600D02*
X17970700Y-5130600D01*
X17970700Y-8001200D02*
X17995700Y-8026200D01*
X17995700Y-8001200D02*
X17970700Y-8026200D01*
X17970700Y-8077400D02*
X17995700Y-8102400D01*
X17995700Y-8077400D02*
X17970700Y-8102400D01*
X17970700Y-8890200D02*
X17995700Y-8915200D01*
X17995700Y-8890200D02*
X17970700Y-8915200D01*
X17983400Y-6223200D02*
X18008400Y-6248200D01*
X18008400Y-6223200D02*
X17983400Y-6248200D01*
X17983400Y-6299400D02*
X18008400Y-6324400D01*
X18008400Y-6299400D02*
X17983400Y-6324400D01*
X17983400Y-8356800D02*
X18008400Y-8381800D01*
X18008400Y-8356800D02*
X17983400Y-8381800D01*
X18008800Y-7378900D02*
X18033800Y-7403900D01*
X18033800Y-7378900D02*
X18008800Y-7403900D01*
X18021500Y-9068000D02*
X18046500Y-9093000D01*
X18046500Y-9068000D02*
X18021500Y-9093000D01*
X18046900Y-5105600D02*
X18071900Y-5130600D01*
X18071900Y-5105600D02*
X18046900Y-5130600D01*
X18046900Y-7925000D02*
X18071900Y-7950000D01*
X18071900Y-7925000D02*
X18046900Y-7950000D01*
X18046900Y-8001200D02*
X18071900Y-8026200D01*
X18071900Y-8001200D02*
X18046900Y-8026200D01*
X18046900Y-8890200D02*
X18071900Y-8915200D01*
X18071900Y-8890200D02*
X18046900Y-8915200D01*
X18059600Y-6223200D02*
X18084600Y-6248200D01*
X18084600Y-6223200D02*
X18059600Y-6248200D01*
X18059600Y-8356800D02*
X18084600Y-8381800D01*
X18084600Y-8356800D02*
X18059600Y-8381800D01*
X18123100Y-5105600D02*
X18148100Y-5130600D01*
X18148100Y-5105600D02*
X18123100Y-5130600D01*
X18123100Y-5181800D02*
X18148100Y-5206800D01*
X18148100Y-5181800D02*
X18123100Y-5206800D01*
X18123100Y-5258000D02*
X18148100Y-5283000D01*
X18148100Y-5258000D02*
X18123100Y-5283000D01*
X18148500Y-5600900D02*
X18173500Y-5625900D01*
X18173500Y-5600900D02*
X18148500Y-5625900D01*
X18362832Y-6093417D02*
X18387832Y-6118417D01*
X18387832Y-6093417D02*
X18362832Y-6118417D01*
X18377100Y-8877500D02*
X18402100Y-8902500D01*
X18402100Y-8877500D02*
X18377100Y-8902500D01*
X18377100Y-8953700D02*
X18402100Y-8978700D01*
X18402100Y-8953700D02*
X18377100Y-8978700D01*
X18377100Y-9029900D02*
X18402100Y-9054900D01*
X18402100Y-9029900D02*
X18377100Y-9054900D01*
X18377100Y-9106100D02*
X18402100Y-9131100D01*
X18402100Y-9106100D02*
X18377100Y-9131100D01*
X18397163Y-6154363D02*
X18422163Y-6179363D01*
X18422163Y-6154363D02*
X18397163Y-6179363D01*
X18402500Y-6337500D02*
X18427500Y-6362500D01*
X18427500Y-6337500D02*
X18402500Y-6362500D01*
X18427900Y-6426400D02*
X18452900Y-6451400D01*
X18452900Y-6426400D02*
X18427900Y-6451400D01*
X18491400Y-7442400D02*
X18516400Y-7467400D01*
X18516400Y-7442400D02*
X18491400Y-7467400D01*
X18542200Y-6959800D02*
X18567200Y-6984800D01*
X18567200Y-6959800D02*
X18542200Y-6984800D01*
X18542200Y-7036000D02*
X18567200Y-7061000D01*
X18567200Y-7036000D02*
X18542200Y-7061000D01*
X18567600Y-7455100D02*
X18592600Y-7480100D01*
X18592600Y-7455100D02*
X18567600Y-7480100D01*
X18605700Y-7709100D02*
X18630700Y-7734100D01*
X18630700Y-7709100D02*
X18605700Y-7734100D01*
X18618400Y-8572700D02*
X18643400Y-8597700D01*
X18643400Y-8572700D02*
X18618400Y-8597700D01*
X18618400Y-8661600D02*
X18643400Y-8686600D01*
X18643400Y-8661600D02*
X18618400Y-8686600D01*
X18618400Y-8750500D02*
X18643400Y-8775500D01*
X18643400Y-8750500D02*
X18618400Y-8775500D01*
X18618400Y-9385500D02*
X18643400Y-9410500D01*
X18643400Y-9385500D02*
X18618400Y-9410500D01*
X18618400Y-9461700D02*
X18643400Y-9486700D01*
X18643400Y-9461700D02*
X18618400Y-9486700D01*
X18618400Y-9537900D02*
X18643400Y-9562900D01*
X18643400Y-9537900D02*
X18618400Y-9562900D01*
X18618400Y-9614100D02*
X18643400Y-9639100D01*
X18643400Y-9614100D02*
X18618400Y-9639100D01*
X18631100Y-7251900D02*
X18656100Y-7276900D01*
X18656100Y-7251900D02*
X18631100Y-7276900D01*
X18631100Y-7328100D02*
X18656100Y-7353100D01*
X18656100Y-7328100D02*
X18631100Y-7353100D01*
X18631100Y-7404300D02*
X18656100Y-7429300D01*
X18656100Y-7404300D02*
X18631100Y-7429300D01*
X18631100Y-9703000D02*
X18656100Y-9728000D01*
X18656100Y-9703000D02*
X18631100Y-9728000D01*
X18694600Y-7632900D02*
X18719600Y-7657900D01*
X18719600Y-7632900D02*
X18694600Y-7657900D01*
X18694600Y-8572700D02*
X18719600Y-8597700D01*
X18719600Y-8572700D02*
X18694600Y-8597700D01*
X18694600Y-8661600D02*
X18719600Y-8686600D01*
X18719600Y-8661600D02*
X18694600Y-8686600D01*
X18694600Y-8750500D02*
X18719600Y-8775500D01*
X18719600Y-8750500D02*
X18694600Y-8775500D01*
X18707300Y-6959800D02*
X18732300Y-6984800D01*
X18732300Y-6959800D02*
X18707300Y-6984800D01*
X18707300Y-7036000D02*
X18732300Y-7061000D01*
X18732300Y-7036000D02*
X18707300Y-7061000D01*
X18732700Y-9703000D02*
X18757700Y-9728000D01*
X18757700Y-9703000D02*
X18732700Y-9728000D01*
X18770800Y-7632900D02*
X18795800Y-7657900D01*
X18795800Y-7632900D02*
X18770800Y-7657900D01*
X18770800Y-8572700D02*
X18795800Y-8597700D01*
X18795800Y-8572700D02*
X18770800Y-8597700D01*
X18770800Y-8661600D02*
X18795800Y-8686600D01*
X18795800Y-8661600D02*
X18770800Y-8686600D01*
X18770800Y-8750500D02*
X18795800Y-8775500D01*
X18795800Y-8750500D02*
X18770800Y-8775500D01*
X18821600Y-9703000D02*
X18846600Y-9728000D01*
X18846600Y-9703000D02*
X18821600Y-9728000D01*
X18834300Y-6337500D02*
X18859300Y-6362500D01*
X18859300Y-6337500D02*
X18834300Y-6362500D01*
X18834300Y-6413700D02*
X18859300Y-6438700D01*
X18859300Y-6413700D02*
X18834300Y-6438700D01*
X18847000Y-7645600D02*
X18872000Y-7670600D01*
X18872000Y-7645600D02*
X18847000Y-7670600D01*
X18847000Y-8572700D02*
X18872000Y-8597700D01*
X18872000Y-8572700D02*
X18847000Y-8597700D01*
X18847000Y-8661600D02*
X18872000Y-8686600D01*
X18872000Y-8661600D02*
X18847000Y-8686600D01*
X18847000Y-8750500D02*
X18872000Y-8775500D01*
X18872000Y-8750500D02*
X18847000Y-8775500D01*
X18910500Y-6337500D02*
X18935500Y-6362500D01*
X18935500Y-6337500D02*
X18910500Y-6362500D01*
X18910500Y-6413700D02*
X18935500Y-6438700D01*
X18935500Y-6413700D02*
X18910500Y-6438700D01*
X18935900Y-6693100D02*
X18960900Y-6718100D01*
X18960900Y-6693100D02*
X18935900Y-6718100D01*
X18935900Y-6756600D02*
X18960900Y-6781600D01*
X18960900Y-6756600D02*
X18935900Y-6781600D01*
X18948600Y-7150300D02*
X18973600Y-7175300D01*
X18973600Y-7150300D02*
X18948600Y-7175300D01*
X18986700Y-6337500D02*
X19011700Y-6362500D01*
X19011700Y-6337500D02*
X18986700Y-6362500D01*
X18986700Y-6413700D02*
X19011700Y-6438700D01*
X19011700Y-6413700D02*
X18986700Y-6438700D01*
X19012100Y-6223200D02*
X19037100Y-6248200D01*
X19037100Y-6223200D02*
X19012100Y-6248200D01*
X19012100Y-8572700D02*
X19037100Y-8597700D01*
X19037100Y-8572700D02*
X19012100Y-8597700D01*
X19012100Y-8661600D02*
X19037100Y-8686600D01*
X19037100Y-8661600D02*
X19012100Y-8686600D01*
X19012100Y-8750500D02*
X19037100Y-8775500D01*
X19037100Y-8750500D02*
X19012100Y-8775500D01*
X19024800Y-7150300D02*
X19049800Y-7175300D01*
X19049800Y-7150300D02*
X19024800Y-7175300D01*
X19113700Y-6032700D02*
X19138700Y-6057700D01*
X19138700Y-6032700D02*
X19113700Y-6057700D01*
X19113700Y-7201100D02*
X19138700Y-7226100D01*
X19138700Y-7201100D02*
X19113700Y-7226100D01*
X19189900Y-7124900D02*
X19214900Y-7149900D01*
X19214900Y-7124900D02*
X19189900Y-7149900D01*
X19189900Y-7201100D02*
X19214900Y-7226100D01*
X19214900Y-7201100D02*
X19189900Y-7226100D01*
X19228000Y-5969200D02*
X19253000Y-5994200D01*
X19253000Y-5969200D02*
X19228000Y-5994200D01*
X19405800Y-5791400D02*
X19430800Y-5816400D01*
X19430800Y-5791400D02*
X19405800Y-5816400D01*
X19469300Y-7455100D02*
X19494300Y-7480100D01*
X19494300Y-7455100D02*
X19469300Y-7480100D01*
X19469300Y-7531300D02*
X19494300Y-7556300D01*
X19494300Y-7531300D02*
X19469300Y-7556300D01*
X19469300Y-7607500D02*
X19494300Y-7632500D01*
X19494300Y-7607500D02*
X19469300Y-7632500D01*
X19570900Y-7188400D02*
X19595900Y-7213400D01*
X19595900Y-7188400D02*
X19570900Y-7213400D01*
X19647100Y-7544000D02*
X19672100Y-7569000D01*
X19672100Y-7544000D02*
X19647100Y-7569000D01*
X19647100Y-7620200D02*
X19672100Y-7645200D01*
X19672100Y-7620200D02*
X19647100Y-7645200D01*
X19647100Y-7696400D02*
X19672100Y-7721400D01*
X19672100Y-7696400D02*
X19647100Y-7721400D01*
X19659800Y-6591500D02*
X19684800Y-6616500D01*
X19684800Y-6591500D02*
X19659800Y-6616500D01*
X19685200Y-6731200D02*
X19710200Y-6756200D01*
X19710200Y-6731200D02*
X19685200Y-6756200D01*
X19761400Y-6807400D02*
X19786400Y-6832400D01*
X19786400Y-6807400D02*
X19761400Y-6832400D01*
X19774100Y-6591500D02*
X19799100Y-6616500D01*
X19799100Y-6591500D02*
X19774100Y-6616500D01*
X19863000Y-6807400D02*
X19888000Y-6832400D01*
X19888000Y-6807400D02*
X19863000Y-6832400D01*
X19863000Y-8547300D02*
X19888000Y-8572300D01*
X19888000Y-8547300D02*
X19863000Y-8572300D01*
X19863000Y-8737800D02*
X19888000Y-8762800D01*
X19888000Y-8737800D02*
X19863000Y-8762800D01*
X19863000Y-8826700D02*
X19888000Y-8851700D01*
X19888000Y-8826700D02*
X19863000Y-8851700D01*
X19875700Y-6578800D02*
X19900700Y-6603800D01*
X19900700Y-6578800D02*
X19875700Y-6603800D01*
X19875700Y-8636200D02*
X19900700Y-8661200D01*
X19900700Y-8636200D02*
X19875700Y-8661200D01*
X19964600Y-8509200D02*
X19989600Y-8534200D01*
X19989600Y-8509200D02*
X19964600Y-8534200D01*
X19964600Y-8725100D02*
X19989600Y-8750100D01*
X19989600Y-8725100D02*
X19964600Y-8750100D01*
X19977300Y-8610800D02*
X20002300Y-8635800D01*
X20002300Y-8610800D02*
X19977300Y-8635800D01*
X19977300Y-8839400D02*
X20002300Y-8864400D01*
X20002300Y-8839400D02*
X19977300Y-8864400D01*
D13*
X18785600Y-6769100D02*
G75*
G03*
X18785600Y-6769100I-15000J0D01*
G01*
X18836400Y-7175500D02*
G75*
G03*
X18836400Y-7175500I-15000J0D01*
G01*
D14*
X17297400Y-9220600D02*
X17297400Y-9270600D01*
X17272400Y-9245600D02*
X17322400Y-9245600D01*
X17551400Y-7264800D02*
X17551400Y-7314800D01*
X17526400Y-7289800D02*
X17576400Y-7289800D01*
X17551400Y-8064900D02*
X17551400Y-8114900D01*
X17526400Y-8089900D02*
X17576400Y-8089900D01*
X17627600Y-6655200D02*
X17627600Y-6705200D01*
X17602600Y-6680200D02*
X17652600Y-6680200D01*
X17700050Y-7264800D02*
X17700050Y-7314800D01*
X17675050Y-7289800D02*
X17725050Y-7289800D01*
X17843500Y-9220600D02*
X17843500Y-9270600D01*
X17818500Y-9245600D02*
X17868500Y-9245600D01*
X18415000Y-7823600D02*
X18415000Y-7873600D01*
X18390000Y-7848600D02*
X18440000Y-7848600D01*
X19126200Y-9055500D02*
X19126200Y-9105500D01*
X19101200Y-9080500D02*
X19151200Y-9080500D01*
D15*
X17127913Y-9496213D02*
X17127913Y-9453787D01*
X17085487Y-9453787D01*
X17085487Y-9496213D01*
X17127913Y-9496213D01*
D11*
X17076700Y-9420000D02*
X17076700Y-9530000D01*
X17076700Y-9530000D02*
G75*
G03*
X17136700Y-9530000I30000J0D01*
G01*
X17136700Y-9530000D02*
X17136700Y-9420000D01*
X17136700Y-9420000D02*
G75*
G03*
X17076700Y-9420000I-30000J0D01*
G01*
D15*
X17127913Y-9914213D02*
X17127913Y-9871787D01*
X17085487Y-9871787D01*
X17085487Y-9914213D01*
X17127913Y-9914213D01*
D11*
X17076700Y-9863000D02*
X17076700Y-9923000D01*
X17076700Y-9923000D02*
G75*
G03*
X17136700Y-9923000I30000J0D01*
G01*
X17136700Y-9923000D02*
X17136700Y-9863000D01*
X17136700Y-9863000D02*
G75*
G03*
X17076700Y-9863000I-30000J0D01*
G01*
D15*
X17991913Y-9496213D02*
X17991913Y-9453787D01*
X17949487Y-9453787D01*
X17949487Y-9496213D01*
X17991913Y-9496213D01*
D11*
X17940700Y-9420000D02*
X17940700Y-9530000D01*
X17940700Y-9530000D02*
G75*
G03*
X18000700Y-9530000I30000J0D01*
G01*
X18000700Y-9530000D02*
X18000700Y-9420000D01*
X18000700Y-9420000D02*
G75*
G03*
X17940700Y-9420000I-30000J0D01*
G01*
D15*
X17991913Y-9914213D02*
X17991913Y-9871787D01*
X17949487Y-9871787D01*
X17949487Y-9914213D01*
X17991913Y-9914213D01*
D11*
X17940700Y-9863000D02*
X17940700Y-9923000D01*
X17940700Y-9923000D02*
G75*
G03*
X18000700Y-9923000I30000J0D01*
G01*
X18000700Y-9923000D02*
X18000700Y-9863000D01*
X18000700Y-9863000D02*
G75*
G03*
X17940700Y-9863000I-30000J0D01*
G01*
D10*
X16281400Y-6781000D02*
X16331400Y-6731000D01*
X16281400Y-6681000D01*
X16231400Y-6731000D01*
X16281400Y-6781000D01*
X16281400Y-7035000D02*
X16331400Y-6985000D01*
X16281400Y-6935000D01*
X16231400Y-6985000D01*
X16281400Y-7035000D01*
X16535400Y-6781000D02*
X16585400Y-6731000D01*
X16535400Y-6681000D01*
X16485400Y-6731000D01*
X16535400Y-6781000D01*
X16535400Y-7035000D02*
X16585400Y-6985000D01*
X16535400Y-6935000D01*
X16485400Y-6985000D01*
X16535400Y-7035000D01*
X16789400Y-6781000D02*
X16839400Y-6731000D01*
X16789400Y-6681000D01*
X16739400Y-6731000D01*
X16789400Y-6781000D01*
X16789400Y-7035000D02*
X16839400Y-6985000D01*
X16789400Y-6935000D01*
X16739400Y-6985000D01*
X16789400Y-7035000D01*
D11*
X16342619Y-10298476D02*
X16342619Y-10098476D01*
X16342619Y-10098476D02*
X16390238Y-10098476D01*
X16390238Y-10098476D02*
X16418809Y-10108000D01*
X16418809Y-10108000D02*
X16437857Y-10127048D01*
X16437857Y-10127048D02*
X16447381Y-10146095D01*
X16447381Y-10146095D02*
X16456905Y-10184190D01*
X16456905Y-10184190D02*
X16456905Y-10212762D01*
X16456905Y-10212762D02*
X16447381Y-10250857D01*
X16447381Y-10250857D02*
X16437857Y-10269905D01*
X16437857Y-10269905D02*
X16418809Y-10288952D01*
X16418809Y-10288952D02*
X16390238Y-10298476D01*
X16390238Y-10298476D02*
X16342619Y-10298476D01*
X16542619Y-10298476D02*
X16542619Y-10165143D01*
X16542619Y-10203238D02*
X16552143Y-10184190D01*
X16552143Y-10184190D02*
X16561667Y-10174667D01*
X16561667Y-10174667D02*
X16580714Y-10165143D01*
X16580714Y-10165143D02*
X16599762Y-10165143D01*
X16666428Y-10298476D02*
X16666428Y-10165143D01*
X16666428Y-10098476D02*
X16656905Y-10108000D01*
X16656905Y-10108000D02*
X16666428Y-10117524D01*
X16666428Y-10117524D02*
X16675952Y-10108000D01*
X16675952Y-10108000D02*
X16666428Y-10098476D01*
X16666428Y-10098476D02*
X16666428Y-10117524D01*
X16790238Y-10298476D02*
X16771190Y-10288952D01*
X16771190Y-10288952D02*
X16761667Y-10269905D01*
X16761667Y-10269905D02*
X16761667Y-10098476D01*
X16895000Y-10298476D02*
X16875952Y-10288952D01*
X16875952Y-10288952D02*
X16866429Y-10269905D01*
X16866429Y-10269905D02*
X16866429Y-10098476D01*
X17091190Y-10298476D02*
X17091190Y-10098476D01*
X17091190Y-10098476D02*
X17157857Y-10241333D01*
X17157857Y-10241333D02*
X17224524Y-10098476D01*
X17224524Y-10098476D02*
X17224524Y-10298476D01*
X17405476Y-10298476D02*
X17405476Y-10193714D01*
X17405476Y-10193714D02*
X17395952Y-10174667D01*
X17395952Y-10174667D02*
X17376905Y-10165143D01*
X17376905Y-10165143D02*
X17338809Y-10165143D01*
X17338809Y-10165143D02*
X17319762Y-10174667D01*
X17405476Y-10288952D02*
X17386429Y-10298476D01*
X17386429Y-10298476D02*
X17338809Y-10298476D01*
X17338809Y-10298476D02*
X17319762Y-10288952D01*
X17319762Y-10288952D02*
X17310238Y-10269905D01*
X17310238Y-10269905D02*
X17310238Y-10250857D01*
X17310238Y-10250857D02*
X17319762Y-10231810D01*
X17319762Y-10231810D02*
X17338809Y-10222286D01*
X17338809Y-10222286D02*
X17386429Y-10222286D01*
X17386429Y-10222286D02*
X17405476Y-10212762D01*
X17500714Y-10165143D02*
X17500714Y-10365143D01*
X17500714Y-10174667D02*
X17519762Y-10165143D01*
X17519762Y-10165143D02*
X17557857Y-10165143D01*
X17557857Y-10165143D02*
X17576905Y-10174667D01*
X17576905Y-10174667D02*
X17586429Y-10184190D01*
X17586429Y-10184190D02*
X17595952Y-10203238D01*
X17595952Y-10203238D02*
X17595952Y-10260381D01*
X17595952Y-10260381D02*
X17586429Y-10279429D01*
X17586429Y-10279429D02*
X17576905Y-10288952D01*
X17576905Y-10288952D02*
X17557857Y-10298476D01*
X17557857Y-10298476D02*
X17519762Y-10298476D01*
X17519762Y-10298476D02*
X17500714Y-10288952D01*
X17681667Y-10279429D02*
X17691190Y-10288952D01*
X17691190Y-10288952D02*
X17681667Y-10298476D01*
X17681667Y-10298476D02*
X17672143Y-10288952D01*
X17672143Y-10288952D02*
X17681667Y-10279429D01*
X17681667Y-10279429D02*
X17681667Y-10298476D01*
X17681667Y-10174667D02*
X17691190Y-10184190D01*
X17691190Y-10184190D02*
X17681667Y-10193714D01*
X17681667Y-10193714D02*
X17672143Y-10184190D01*
X17672143Y-10184190D02*
X17681667Y-10174667D01*
X17681667Y-10174667D02*
X17681667Y-10193714D01*
D12*
X16070000Y-10632500D02*
X16095000Y-10657500D01*
X16095000Y-10632500D02*
X16070000Y-10657500D01*
D11*
X16380714Y-10518476D02*
X16399762Y-10518476D01*
X16399762Y-10518476D02*
X16418809Y-10528000D01*
X16418809Y-10528000D02*
X16428333Y-10537524D01*
X16428333Y-10537524D02*
X16437857Y-10556571D01*
X16437857Y-10556571D02*
X16447381Y-10594667D01*
X16447381Y-10594667D02*
X16447381Y-10642286D01*
X16447381Y-10642286D02*
X16437857Y-10680381D01*
X16437857Y-10680381D02*
X16428333Y-10699429D01*
X16428333Y-10699429D02*
X16418809Y-10708952D01*
X16418809Y-10708952D02*
X16399762Y-10718476D01*
X16399762Y-10718476D02*
X16380714Y-10718476D01*
X16380714Y-10718476D02*
X16361667Y-10708952D01*
X16361667Y-10708952D02*
X16352143Y-10699429D01*
X16352143Y-10699429D02*
X16342619Y-10680381D01*
X16342619Y-10680381D02*
X16333095Y-10642286D01*
X16333095Y-10642286D02*
X16333095Y-10594667D01*
X16333095Y-10594667D02*
X16342619Y-10556571D01*
X16342619Y-10556571D02*
X16352143Y-10537524D01*
X16352143Y-10537524D02*
X16361667Y-10528000D01*
X16361667Y-10528000D02*
X16380714Y-10518476D01*
X16533095Y-10699429D02*
X16542619Y-10708952D01*
X16542619Y-10708952D02*
X16533095Y-10718476D01*
X16533095Y-10718476D02*
X16523571Y-10708952D01*
X16523571Y-10708952D02*
X16533095Y-10699429D01*
X16533095Y-10699429D02*
X16533095Y-10718476D01*
X16618809Y-10537524D02*
X16628333Y-10528000D01*
X16628333Y-10528000D02*
X16647381Y-10518476D01*
X16647381Y-10518476D02*
X16695000Y-10518476D01*
X16695000Y-10518476D02*
X16714048Y-10528000D01*
X16714048Y-10528000D02*
X16723571Y-10537524D01*
X16723571Y-10537524D02*
X16733095Y-10556571D01*
X16733095Y-10556571D02*
X16733095Y-10575619D01*
X16733095Y-10575619D02*
X16723571Y-10604190D01*
X16723571Y-10604190D02*
X16609286Y-10718476D01*
X16609286Y-10718476D02*
X16733095Y-10718476D01*
X16914048Y-10518476D02*
X16818810Y-10518476D01*
X16818810Y-10518476D02*
X16809286Y-10613714D01*
X16809286Y-10613714D02*
X16818810Y-10604190D01*
X16818810Y-10604190D02*
X16837857Y-10594667D01*
X16837857Y-10594667D02*
X16885476Y-10594667D01*
X16885476Y-10594667D02*
X16904524Y-10604190D01*
X16904524Y-10604190D02*
X16914048Y-10613714D01*
X16914048Y-10613714D02*
X16923571Y-10632762D01*
X16923571Y-10632762D02*
X16923571Y-10680381D01*
X16923571Y-10680381D02*
X16914048Y-10699429D01*
X16914048Y-10699429D02*
X16904524Y-10708952D01*
X16904524Y-10708952D02*
X16885476Y-10718476D01*
X16885476Y-10718476D02*
X16837857Y-10718476D01*
X16837857Y-10718476D02*
X16818810Y-10708952D01*
X16818810Y-10708952D02*
X16809286Y-10699429D01*
X17047381Y-10518476D02*
X17066429Y-10518476D01*
X17066429Y-10518476D02*
X17085476Y-10528000D01*
X17085476Y-10528000D02*
X17095000Y-10537524D01*
X17095000Y-10537524D02*
X17104524Y-10556571D01*
X17104524Y-10556571D02*
X17114048Y-10594667D01*
X17114048Y-10594667D02*
X17114048Y-10642286D01*
X17114048Y-10642286D02*
X17104524Y-10680381D01*
X17104524Y-10680381D02*
X17095000Y-10699429D01*
X17095000Y-10699429D02*
X17085476Y-10708952D01*
X17085476Y-10708952D02*
X17066429Y-10718476D01*
X17066429Y-10718476D02*
X17047381Y-10718476D01*
X17047381Y-10718476D02*
X17028333Y-10708952D01*
X17028333Y-10708952D02*
X17018810Y-10699429D01*
X17018810Y-10699429D02*
X17009286Y-10680381D01*
X17009286Y-10680381D02*
X16999762Y-10642286D01*
X16999762Y-10642286D02*
X16999762Y-10594667D01*
X16999762Y-10594667D02*
X17009286Y-10556571D01*
X17009286Y-10556571D02*
X17018810Y-10537524D01*
X17018810Y-10537524D02*
X17028333Y-10528000D01*
X17028333Y-10528000D02*
X17047381Y-10518476D01*
X17199762Y-10718476D02*
X17199762Y-10585143D01*
X17199762Y-10604190D02*
X17209286Y-10594667D01*
X17209286Y-10594667D02*
X17228333Y-10585143D01*
X17228333Y-10585143D02*
X17256905Y-10585143D01*
X17256905Y-10585143D02*
X17275952Y-10594667D01*
X17275952Y-10594667D02*
X17285476Y-10613714D01*
X17285476Y-10613714D02*
X17285476Y-10718476D01*
X17285476Y-10613714D02*
X17295000Y-10594667D01*
X17295000Y-10594667D02*
X17314048Y-10585143D01*
X17314048Y-10585143D02*
X17342619Y-10585143D01*
X17342619Y-10585143D02*
X17361667Y-10594667D01*
X17361667Y-10594667D02*
X17371191Y-10613714D01*
X17371191Y-10613714D02*
X17371191Y-10718476D01*
X17466429Y-10718476D02*
X17466429Y-10585143D01*
X17466429Y-10604190D02*
X17475952Y-10594667D01*
X17475952Y-10594667D02*
X17495000Y-10585143D01*
X17495000Y-10585143D02*
X17523572Y-10585143D01*
X17523572Y-10585143D02*
X17542619Y-10594667D01*
X17542619Y-10594667D02*
X17552143Y-10613714D01*
X17552143Y-10613714D02*
X17552143Y-10718476D01*
X17552143Y-10613714D02*
X17561667Y-10594667D01*
X17561667Y-10594667D02*
X17580714Y-10585143D01*
X17580714Y-10585143D02*
X17609286Y-10585143D01*
X17609286Y-10585143D02*
X17628333Y-10594667D01*
X17628333Y-10594667D02*
X17637857Y-10613714D01*
X17637857Y-10613714D02*
X17637857Y-10718476D01*
X17995952Y-10508952D02*
X17824524Y-10766095D01*
X18220714Y-10518476D02*
X18239762Y-10518476D01*
X18239762Y-10518476D02*
X18258810Y-10528000D01*
X18258810Y-10528000D02*
X18268333Y-10537524D01*
X18268333Y-10537524D02*
X18277857Y-10556571D01*
X18277857Y-10556571D02*
X18287381Y-10594667D01*
X18287381Y-10594667D02*
X18287381Y-10642286D01*
X18287381Y-10642286D02*
X18277857Y-10680381D01*
X18277857Y-10680381D02*
X18268333Y-10699429D01*
X18268333Y-10699429D02*
X18258810Y-10708952D01*
X18258810Y-10708952D02*
X18239762Y-10718476D01*
X18239762Y-10718476D02*
X18220714Y-10718476D01*
X18220714Y-10718476D02*
X18201667Y-10708952D01*
X18201667Y-10708952D02*
X18192143Y-10699429D01*
X18192143Y-10699429D02*
X18182619Y-10680381D01*
X18182619Y-10680381D02*
X18173095Y-10642286D01*
X18173095Y-10642286D02*
X18173095Y-10594667D01*
X18173095Y-10594667D02*
X18182619Y-10556571D01*
X18182619Y-10556571D02*
X18192143Y-10537524D01*
X18192143Y-10537524D02*
X18201667Y-10528000D01*
X18201667Y-10528000D02*
X18220714Y-10518476D01*
X18373095Y-10699429D02*
X18382619Y-10708952D01*
X18382619Y-10708952D02*
X18373095Y-10718476D01*
X18373095Y-10718476D02*
X18363572Y-10708952D01*
X18363572Y-10708952D02*
X18373095Y-10699429D01*
X18373095Y-10699429D02*
X18373095Y-10718476D01*
X18506429Y-10518476D02*
X18525476Y-10518476D01*
X18525476Y-10518476D02*
X18544524Y-10528000D01*
X18544524Y-10528000D02*
X18554048Y-10537524D01*
X18554048Y-10537524D02*
X18563572Y-10556571D01*
X18563572Y-10556571D02*
X18573095Y-10594667D01*
X18573095Y-10594667D02*
X18573095Y-10642286D01*
X18573095Y-10642286D02*
X18563572Y-10680381D01*
X18563572Y-10680381D02*
X18554048Y-10699429D01*
X18554048Y-10699429D02*
X18544524Y-10708952D01*
X18544524Y-10708952D02*
X18525476Y-10718476D01*
X18525476Y-10718476D02*
X18506429Y-10718476D01*
X18506429Y-10718476D02*
X18487381Y-10708952D01*
X18487381Y-10708952D02*
X18477857Y-10699429D01*
X18477857Y-10699429D02*
X18468333Y-10680381D01*
X18468333Y-10680381D02*
X18458810Y-10642286D01*
X18458810Y-10642286D02*
X18458810Y-10594667D01*
X18458810Y-10594667D02*
X18468333Y-10556571D01*
X18468333Y-10556571D02*
X18477857Y-10537524D01*
X18477857Y-10537524D02*
X18487381Y-10528000D01*
X18487381Y-10528000D02*
X18506429Y-10518476D01*
X18696905Y-10518476D02*
X18715953Y-10518476D01*
X18715953Y-10518476D02*
X18735000Y-10528000D01*
X18735000Y-10528000D02*
X18744524Y-10537524D01*
X18744524Y-10537524D02*
X18754048Y-10556571D01*
X18754048Y-10556571D02*
X18763572Y-10594667D01*
X18763572Y-10594667D02*
X18763572Y-10642286D01*
X18763572Y-10642286D02*
X18754048Y-10680381D01*
X18754048Y-10680381D02*
X18744524Y-10699429D01*
X18744524Y-10699429D02*
X18735000Y-10708952D01*
X18735000Y-10708952D02*
X18715953Y-10718476D01*
X18715953Y-10718476D02*
X18696905Y-10718476D01*
X18696905Y-10718476D02*
X18677857Y-10708952D01*
X18677857Y-10708952D02*
X18668333Y-10699429D01*
X18668333Y-10699429D02*
X18658810Y-10680381D01*
X18658810Y-10680381D02*
X18649286Y-10642286D01*
X18649286Y-10642286D02*
X18649286Y-10594667D01*
X18649286Y-10594667D02*
X18658810Y-10556571D01*
X18658810Y-10556571D02*
X18668333Y-10537524D01*
X18668333Y-10537524D02*
X18677857Y-10528000D01*
X18677857Y-10528000D02*
X18696905Y-10518476D01*
X18858810Y-10718476D02*
X18896905Y-10718476D01*
X18896905Y-10718476D02*
X18915953Y-10708952D01*
X18915953Y-10708952D02*
X18925476Y-10699429D01*
X18925476Y-10699429D02*
X18944524Y-10670857D01*
X18944524Y-10670857D02*
X18954048Y-10632762D01*
X18954048Y-10632762D02*
X18954048Y-10556571D01*
X18954048Y-10556571D02*
X18944524Y-10537524D01*
X18944524Y-10537524D02*
X18935000Y-10528000D01*
X18935000Y-10528000D02*
X18915953Y-10518476D01*
X18915953Y-10518476D02*
X18877857Y-10518476D01*
X18877857Y-10518476D02*
X18858810Y-10528000D01*
X18858810Y-10528000D02*
X18849286Y-10537524D01*
X18849286Y-10537524D02*
X18839762Y-10556571D01*
X18839762Y-10556571D02*
X18839762Y-10604190D01*
X18839762Y-10604190D02*
X18849286Y-10623238D01*
X18849286Y-10623238D02*
X18858810Y-10632762D01*
X18858810Y-10632762D02*
X18877857Y-10642286D01*
X18877857Y-10642286D02*
X18915953Y-10642286D01*
X18915953Y-10642286D02*
X18935000Y-10632762D01*
X18935000Y-10632762D02*
X18944524Y-10623238D01*
X18944524Y-10623238D02*
X18954048Y-10604190D01*
X19068333Y-10604190D02*
X19049286Y-10594667D01*
X19049286Y-10594667D02*
X19039762Y-10585143D01*
X19039762Y-10585143D02*
X19030238Y-10566095D01*
X19030238Y-10566095D02*
X19030238Y-10556571D01*
X19030238Y-10556571D02*
X19039762Y-10537524D01*
X19039762Y-10537524D02*
X19049286Y-10528000D01*
X19049286Y-10528000D02*
X19068333Y-10518476D01*
X19068333Y-10518476D02*
X19106429Y-10518476D01*
X19106429Y-10518476D02*
X19125476Y-10528000D01*
X19125476Y-10528000D02*
X19135000Y-10537524D01*
X19135000Y-10537524D02*
X19144524Y-10556571D01*
X19144524Y-10556571D02*
X19144524Y-10566095D01*
X19144524Y-10566095D02*
X19135000Y-10585143D01*
X19135000Y-10585143D02*
X19125476Y-10594667D01*
X19125476Y-10594667D02*
X19106429Y-10604190D01*
X19106429Y-10604190D02*
X19068333Y-10604190D01*
X19068333Y-10604190D02*
X19049286Y-10613714D01*
X19049286Y-10613714D02*
X19039762Y-10623238D01*
X19039762Y-10623238D02*
X19030238Y-10642286D01*
X19030238Y-10642286D02*
X19030238Y-10680381D01*
X19030238Y-10680381D02*
X19039762Y-10699429D01*
X19039762Y-10699429D02*
X19049286Y-10708952D01*
X19049286Y-10708952D02*
X19068333Y-10718476D01*
X19068333Y-10718476D02*
X19106429Y-10718476D01*
X19106429Y-10718476D02*
X19125476Y-10708952D01*
X19125476Y-10708952D02*
X19135000Y-10699429D01*
X19135000Y-10699429D02*
X19144524Y-10680381D01*
X19144524Y-10680381D02*
X19144524Y-10642286D01*
X19144524Y-10642286D02*
X19135000Y-10623238D01*
X19135000Y-10623238D02*
X19125476Y-10613714D01*
X19125476Y-10613714D02*
X19106429Y-10604190D01*
X19220714Y-10518476D02*
X19220714Y-10556571D01*
X19296905Y-10518476D02*
X19296905Y-10556571D01*
X19559762Y-10794667D02*
X19550238Y-10785143D01*
X19550238Y-10785143D02*
X19531191Y-10756571D01*
X19531191Y-10756571D02*
X19521667Y-10737524D01*
X19521667Y-10737524D02*
X19512143Y-10708952D01*
X19512143Y-10708952D02*
X19502619Y-10661333D01*
X19502619Y-10661333D02*
X19502619Y-10623238D01*
X19502619Y-10623238D02*
X19512143Y-10575619D01*
X19512143Y-10575619D02*
X19521667Y-10547048D01*
X19521667Y-10547048D02*
X19531191Y-10528000D01*
X19531191Y-10528000D02*
X19550238Y-10499429D01*
X19550238Y-10499429D02*
X19559762Y-10489905D01*
X19740714Y-10718476D02*
X19626429Y-10718476D01*
X19683572Y-10718476D02*
X19683572Y-10518476D01*
X19683572Y-10518476D02*
X19664524Y-10547048D01*
X19664524Y-10547048D02*
X19645476Y-10566095D01*
X19645476Y-10566095D02*
X19626429Y-10575619D01*
X19912143Y-10585143D02*
X19912143Y-10718476D01*
X19864524Y-10508952D02*
X19816905Y-10651810D01*
X19816905Y-10651810D02*
X19940714Y-10651810D01*
X20007381Y-10537524D02*
X20016905Y-10528000D01*
X20016905Y-10528000D02*
X20035953Y-10518476D01*
X20035953Y-10518476D02*
X20083572Y-10518476D01*
X20083572Y-10518476D02*
X20102619Y-10528000D01*
X20102619Y-10528000D02*
X20112143Y-10537524D01*
X20112143Y-10537524D02*
X20121667Y-10556571D01*
X20121667Y-10556571D02*
X20121667Y-10575619D01*
X20121667Y-10575619D02*
X20112143Y-10604190D01*
X20112143Y-10604190D02*
X19997857Y-10718476D01*
X19997857Y-10718476D02*
X20121667Y-10718476D01*
X20327381Y-10718476D02*
X20327381Y-10518476D01*
X20413095Y-10718476D02*
X20413095Y-10613714D01*
X20413095Y-10613714D02*
X20403572Y-10594667D01*
X20403572Y-10594667D02*
X20384524Y-10585143D01*
X20384524Y-10585143D02*
X20355953Y-10585143D01*
X20355953Y-10585143D02*
X20336905Y-10594667D01*
X20336905Y-10594667D02*
X20327381Y-10604190D01*
X20536905Y-10718476D02*
X20517857Y-10708952D01*
X20517857Y-10708952D02*
X20508334Y-10699429D01*
X20508334Y-10699429D02*
X20498810Y-10680381D01*
X20498810Y-10680381D02*
X20498810Y-10623238D01*
X20498810Y-10623238D02*
X20508334Y-10604190D01*
X20508334Y-10604190D02*
X20517857Y-10594667D01*
X20517857Y-10594667D02*
X20536905Y-10585143D01*
X20536905Y-10585143D02*
X20565476Y-10585143D01*
X20565476Y-10585143D02*
X20584524Y-10594667D01*
X20584524Y-10594667D02*
X20594048Y-10604190D01*
X20594048Y-10604190D02*
X20603572Y-10623238D01*
X20603572Y-10623238D02*
X20603572Y-10680381D01*
X20603572Y-10680381D02*
X20594048Y-10699429D01*
X20594048Y-10699429D02*
X20584524Y-10708952D01*
X20584524Y-10708952D02*
X20565476Y-10718476D01*
X20565476Y-10718476D02*
X20536905Y-10718476D01*
X20717857Y-10718476D02*
X20698810Y-10708952D01*
X20698810Y-10708952D02*
X20689286Y-10689905D01*
X20689286Y-10689905D02*
X20689286Y-10518476D01*
X20870238Y-10708952D02*
X20851191Y-10718476D01*
X20851191Y-10718476D02*
X20813095Y-10718476D01*
X20813095Y-10718476D02*
X20794048Y-10708952D01*
X20794048Y-10708952D02*
X20784524Y-10689905D01*
X20784524Y-10689905D02*
X20784524Y-10613714D01*
X20784524Y-10613714D02*
X20794048Y-10594667D01*
X20794048Y-10594667D02*
X20813095Y-10585143D01*
X20813095Y-10585143D02*
X20851191Y-10585143D01*
X20851191Y-10585143D02*
X20870238Y-10594667D01*
X20870238Y-10594667D02*
X20879762Y-10613714D01*
X20879762Y-10613714D02*
X20879762Y-10632762D01*
X20879762Y-10632762D02*
X20784524Y-10651810D01*
X20955953Y-10708952D02*
X20975000Y-10718476D01*
X20975000Y-10718476D02*
X21013095Y-10718476D01*
X21013095Y-10718476D02*
X21032143Y-10708952D01*
X21032143Y-10708952D02*
X21041667Y-10689905D01*
X21041667Y-10689905D02*
X21041667Y-10680381D01*
X21041667Y-10680381D02*
X21032143Y-10661333D01*
X21032143Y-10661333D02*
X21013095Y-10651810D01*
X21013095Y-10651810D02*
X20984524Y-10651810D01*
X20984524Y-10651810D02*
X20965476Y-10642286D01*
X20965476Y-10642286D02*
X20955953Y-10623238D01*
X20955953Y-10623238D02*
X20955953Y-10613714D01*
X20955953Y-10613714D02*
X20965476Y-10594667D01*
X20965476Y-10594667D02*
X20984524Y-10585143D01*
X20984524Y-10585143D02*
X21013095Y-10585143D01*
X21013095Y-10585143D02*
X21032143Y-10594667D01*
X21108334Y-10794667D02*
X21117857Y-10785143D01*
X21117857Y-10785143D02*
X21136905Y-10756571D01*
X21136905Y-10756571D02*
X21146429Y-10737524D01*
X21146429Y-10737524D02*
X21155953Y-10708952D01*
X21155953Y-10708952D02*
X21165476Y-10661333D01*
X21165476Y-10661333D02*
X21165476Y-10623238D01*
X21165476Y-10623238D02*
X21155953Y-10575619D01*
X21155953Y-10575619D02*
X21146429Y-10547048D01*
X21146429Y-10547048D02*
X21136905Y-10528000D01*
X21136905Y-10528000D02*
X21117857Y-10499429D01*
X21117857Y-10499429D02*
X21108334Y-10489905D01*
D13*
X16095000Y-10909000D02*
G75*
G03*
X16095000Y-10909000I-15000J0D01*
G01*
D11*
X16380714Y-10782476D02*
X16399762Y-10782476D01*
X16399762Y-10782476D02*
X16418809Y-10792000D01*
X16418809Y-10792000D02*
X16428333Y-10801524D01*
X16428333Y-10801524D02*
X16437857Y-10820571D01*
X16437857Y-10820571D02*
X16447381Y-10858667D01*
X16447381Y-10858667D02*
X16447381Y-10906286D01*
X16447381Y-10906286D02*
X16437857Y-10944381D01*
X16437857Y-10944381D02*
X16428333Y-10963429D01*
X16428333Y-10963429D02*
X16418809Y-10972952D01*
X16418809Y-10972952D02*
X16399762Y-10982476D01*
X16399762Y-10982476D02*
X16380714Y-10982476D01*
X16380714Y-10982476D02*
X16361667Y-10972952D01*
X16361667Y-10972952D02*
X16352143Y-10963429D01*
X16352143Y-10963429D02*
X16342619Y-10944381D01*
X16342619Y-10944381D02*
X16333095Y-10906286D01*
X16333095Y-10906286D02*
X16333095Y-10858667D01*
X16333095Y-10858667D02*
X16342619Y-10820571D01*
X16342619Y-10820571D02*
X16352143Y-10801524D01*
X16352143Y-10801524D02*
X16361667Y-10792000D01*
X16361667Y-10792000D02*
X16380714Y-10782476D01*
X16533095Y-10963429D02*
X16542619Y-10972952D01*
X16542619Y-10972952D02*
X16533095Y-10982476D01*
X16533095Y-10982476D02*
X16523571Y-10972952D01*
X16523571Y-10972952D02*
X16533095Y-10963429D01*
X16533095Y-10963429D02*
X16533095Y-10982476D01*
X16609286Y-10782476D02*
X16733095Y-10782476D01*
X16733095Y-10782476D02*
X16666428Y-10858667D01*
X16666428Y-10858667D02*
X16695000Y-10858667D01*
X16695000Y-10858667D02*
X16714048Y-10868190D01*
X16714048Y-10868190D02*
X16723571Y-10877714D01*
X16723571Y-10877714D02*
X16733095Y-10896762D01*
X16733095Y-10896762D02*
X16733095Y-10944381D01*
X16733095Y-10944381D02*
X16723571Y-10963429D01*
X16723571Y-10963429D02*
X16714048Y-10972952D01*
X16714048Y-10972952D02*
X16695000Y-10982476D01*
X16695000Y-10982476D02*
X16637857Y-10982476D01*
X16637857Y-10982476D02*
X16618809Y-10972952D01*
X16618809Y-10972952D02*
X16609286Y-10963429D01*
X16856905Y-10782476D02*
X16875952Y-10782476D01*
X16875952Y-10782476D02*
X16895000Y-10792000D01*
X16895000Y-10792000D02*
X16904524Y-10801524D01*
X16904524Y-10801524D02*
X16914048Y-10820571D01*
X16914048Y-10820571D02*
X16923571Y-10858667D01*
X16923571Y-10858667D02*
X16923571Y-10906286D01*
X16923571Y-10906286D02*
X16914048Y-10944381D01*
X16914048Y-10944381D02*
X16904524Y-10963429D01*
X16904524Y-10963429D02*
X16895000Y-10972952D01*
X16895000Y-10972952D02*
X16875952Y-10982476D01*
X16875952Y-10982476D02*
X16856905Y-10982476D01*
X16856905Y-10982476D02*
X16837857Y-10972952D01*
X16837857Y-10972952D02*
X16828333Y-10963429D01*
X16828333Y-10963429D02*
X16818810Y-10944381D01*
X16818810Y-10944381D02*
X16809286Y-10906286D01*
X16809286Y-10906286D02*
X16809286Y-10858667D01*
X16809286Y-10858667D02*
X16818810Y-10820571D01*
X16818810Y-10820571D02*
X16828333Y-10801524D01*
X16828333Y-10801524D02*
X16837857Y-10792000D01*
X16837857Y-10792000D02*
X16856905Y-10782476D01*
X17047381Y-10782476D02*
X17066429Y-10782476D01*
X17066429Y-10782476D02*
X17085476Y-10792000D01*
X17085476Y-10792000D02*
X17095000Y-10801524D01*
X17095000Y-10801524D02*
X17104524Y-10820571D01*
X17104524Y-10820571D02*
X17114048Y-10858667D01*
X17114048Y-10858667D02*
X17114048Y-10906286D01*
X17114048Y-10906286D02*
X17104524Y-10944381D01*
X17104524Y-10944381D02*
X17095000Y-10963429D01*
X17095000Y-10963429D02*
X17085476Y-10972952D01*
X17085476Y-10972952D02*
X17066429Y-10982476D01*
X17066429Y-10982476D02*
X17047381Y-10982476D01*
X17047381Y-10982476D02*
X17028333Y-10972952D01*
X17028333Y-10972952D02*
X17018810Y-10963429D01*
X17018810Y-10963429D02*
X17009286Y-10944381D01*
X17009286Y-10944381D02*
X16999762Y-10906286D01*
X16999762Y-10906286D02*
X16999762Y-10858667D01*
X16999762Y-10858667D02*
X17009286Y-10820571D01*
X17009286Y-10820571D02*
X17018810Y-10801524D01*
X17018810Y-10801524D02*
X17028333Y-10792000D01*
X17028333Y-10792000D02*
X17047381Y-10782476D01*
X17199762Y-10982476D02*
X17199762Y-10849143D01*
X17199762Y-10868190D02*
X17209286Y-10858667D01*
X17209286Y-10858667D02*
X17228333Y-10849143D01*
X17228333Y-10849143D02*
X17256905Y-10849143D01*
X17256905Y-10849143D02*
X17275952Y-10858667D01*
X17275952Y-10858667D02*
X17285476Y-10877714D01*
X17285476Y-10877714D02*
X17285476Y-10982476D01*
X17285476Y-10877714D02*
X17295000Y-10858667D01*
X17295000Y-10858667D02*
X17314048Y-10849143D01*
X17314048Y-10849143D02*
X17342619Y-10849143D01*
X17342619Y-10849143D02*
X17361667Y-10858667D01*
X17361667Y-10858667D02*
X17371191Y-10877714D01*
X17371191Y-10877714D02*
X17371191Y-10982476D01*
X17466429Y-10982476D02*
X17466429Y-10849143D01*
X17466429Y-10868190D02*
X17475952Y-10858667D01*
X17475952Y-10858667D02*
X17495000Y-10849143D01*
X17495000Y-10849143D02*
X17523572Y-10849143D01*
X17523572Y-10849143D02*
X17542619Y-10858667D01*
X17542619Y-10858667D02*
X17552143Y-10877714D01*
X17552143Y-10877714D02*
X17552143Y-10982476D01*
X17552143Y-10877714D02*
X17561667Y-10858667D01*
X17561667Y-10858667D02*
X17580714Y-10849143D01*
X17580714Y-10849143D02*
X17609286Y-10849143D01*
X17609286Y-10849143D02*
X17628333Y-10858667D01*
X17628333Y-10858667D02*
X17637857Y-10877714D01*
X17637857Y-10877714D02*
X17637857Y-10982476D01*
X17995952Y-10772952D02*
X17824524Y-11030095D01*
X18220714Y-10782476D02*
X18239762Y-10782476D01*
X18239762Y-10782476D02*
X18258810Y-10792000D01*
X18258810Y-10792000D02*
X18268333Y-10801524D01*
X18268333Y-10801524D02*
X18277857Y-10820571D01*
X18277857Y-10820571D02*
X18287381Y-10858667D01*
X18287381Y-10858667D02*
X18287381Y-10906286D01*
X18287381Y-10906286D02*
X18277857Y-10944381D01*
X18277857Y-10944381D02*
X18268333Y-10963429D01*
X18268333Y-10963429D02*
X18258810Y-10972952D01*
X18258810Y-10972952D02*
X18239762Y-10982476D01*
X18239762Y-10982476D02*
X18220714Y-10982476D01*
X18220714Y-10982476D02*
X18201667Y-10972952D01*
X18201667Y-10972952D02*
X18192143Y-10963429D01*
X18192143Y-10963429D02*
X18182619Y-10944381D01*
X18182619Y-10944381D02*
X18173095Y-10906286D01*
X18173095Y-10906286D02*
X18173095Y-10858667D01*
X18173095Y-10858667D02*
X18182619Y-10820571D01*
X18182619Y-10820571D02*
X18192143Y-10801524D01*
X18192143Y-10801524D02*
X18201667Y-10792000D01*
X18201667Y-10792000D02*
X18220714Y-10782476D01*
X18373095Y-10963429D02*
X18382619Y-10972952D01*
X18382619Y-10972952D02*
X18373095Y-10982476D01*
X18373095Y-10982476D02*
X18363572Y-10972952D01*
X18363572Y-10972952D02*
X18373095Y-10963429D01*
X18373095Y-10963429D02*
X18373095Y-10982476D01*
X18506429Y-10782476D02*
X18525476Y-10782476D01*
X18525476Y-10782476D02*
X18544524Y-10792000D01*
X18544524Y-10792000D02*
X18554048Y-10801524D01*
X18554048Y-10801524D02*
X18563572Y-10820571D01*
X18563572Y-10820571D02*
X18573095Y-10858667D01*
X18573095Y-10858667D02*
X18573095Y-10906286D01*
X18573095Y-10906286D02*
X18563572Y-10944381D01*
X18563572Y-10944381D02*
X18554048Y-10963429D01*
X18554048Y-10963429D02*
X18544524Y-10972952D01*
X18544524Y-10972952D02*
X18525476Y-10982476D01*
X18525476Y-10982476D02*
X18506429Y-10982476D01*
X18506429Y-10982476D02*
X18487381Y-10972952D01*
X18487381Y-10972952D02*
X18477857Y-10963429D01*
X18477857Y-10963429D02*
X18468333Y-10944381D01*
X18468333Y-10944381D02*
X18458810Y-10906286D01*
X18458810Y-10906286D02*
X18458810Y-10858667D01*
X18458810Y-10858667D02*
X18468333Y-10820571D01*
X18468333Y-10820571D02*
X18477857Y-10801524D01*
X18477857Y-10801524D02*
X18487381Y-10792000D01*
X18487381Y-10792000D02*
X18506429Y-10782476D01*
X18763572Y-10982476D02*
X18649286Y-10982476D01*
X18706429Y-10982476D02*
X18706429Y-10782476D01*
X18706429Y-10782476D02*
X18687381Y-10811048D01*
X18687381Y-10811048D02*
X18668333Y-10830095D01*
X18668333Y-10830095D02*
X18649286Y-10839619D01*
X18954048Y-10982476D02*
X18839762Y-10982476D01*
X18896905Y-10982476D02*
X18896905Y-10782476D01*
X18896905Y-10782476D02*
X18877857Y-10811048D01*
X18877857Y-10811048D02*
X18858810Y-10830095D01*
X18858810Y-10830095D02*
X18839762Y-10839619D01*
X19068333Y-10868190D02*
X19049286Y-10858667D01*
X19049286Y-10858667D02*
X19039762Y-10849143D01*
X19039762Y-10849143D02*
X19030238Y-10830095D01*
X19030238Y-10830095D02*
X19030238Y-10820571D01*
X19030238Y-10820571D02*
X19039762Y-10801524D01*
X19039762Y-10801524D02*
X19049286Y-10792000D01*
X19049286Y-10792000D02*
X19068333Y-10782476D01*
X19068333Y-10782476D02*
X19106429Y-10782476D01*
X19106429Y-10782476D02*
X19125476Y-10792000D01*
X19125476Y-10792000D02*
X19135000Y-10801524D01*
X19135000Y-10801524D02*
X19144524Y-10820571D01*
X19144524Y-10820571D02*
X19144524Y-10830095D01*
X19144524Y-10830095D02*
X19135000Y-10849143D01*
X19135000Y-10849143D02*
X19125476Y-10858667D01*
X19125476Y-10858667D02*
X19106429Y-10868190D01*
X19106429Y-10868190D02*
X19068333Y-10868190D01*
X19068333Y-10868190D02*
X19049286Y-10877714D01*
X19049286Y-10877714D02*
X19039762Y-10887238D01*
X19039762Y-10887238D02*
X19030238Y-10906286D01*
X19030238Y-10906286D02*
X19030238Y-10944381D01*
X19030238Y-10944381D02*
X19039762Y-10963429D01*
X19039762Y-10963429D02*
X19049286Y-10972952D01*
X19049286Y-10972952D02*
X19068333Y-10982476D01*
X19068333Y-10982476D02*
X19106429Y-10982476D01*
X19106429Y-10982476D02*
X19125476Y-10972952D01*
X19125476Y-10972952D02*
X19135000Y-10963429D01*
X19135000Y-10963429D02*
X19144524Y-10944381D01*
X19144524Y-10944381D02*
X19144524Y-10906286D01*
X19144524Y-10906286D02*
X19135000Y-10887238D01*
X19135000Y-10887238D02*
X19125476Y-10877714D01*
X19125476Y-10877714D02*
X19106429Y-10868190D01*
X19220714Y-10782476D02*
X19220714Y-10820571D01*
X19296905Y-10782476D02*
X19296905Y-10820571D01*
X19559762Y-11058667D02*
X19550238Y-11049143D01*
X19550238Y-11049143D02*
X19531191Y-11020571D01*
X19531191Y-11020571D02*
X19521667Y-11001524D01*
X19521667Y-11001524D02*
X19512143Y-10972952D01*
X19512143Y-10972952D02*
X19502619Y-10925333D01*
X19502619Y-10925333D02*
X19502619Y-10887238D01*
X19502619Y-10887238D02*
X19512143Y-10839619D01*
X19512143Y-10839619D02*
X19521667Y-10811048D01*
X19521667Y-10811048D02*
X19531191Y-10792000D01*
X19531191Y-10792000D02*
X19550238Y-10763429D01*
X19550238Y-10763429D02*
X19559762Y-10753905D01*
X19626429Y-10801524D02*
X19635953Y-10792000D01*
X19635953Y-10792000D02*
X19655000Y-10782476D01*
X19655000Y-10782476D02*
X19702619Y-10782476D01*
X19702619Y-10782476D02*
X19721667Y-10792000D01*
X19721667Y-10792000D02*
X19731191Y-10801524D01*
X19731191Y-10801524D02*
X19740714Y-10820571D01*
X19740714Y-10820571D02*
X19740714Y-10839619D01*
X19740714Y-10839619D02*
X19731191Y-10868190D01*
X19731191Y-10868190D02*
X19616905Y-10982476D01*
X19616905Y-10982476D02*
X19740714Y-10982476D01*
X19946429Y-10982476D02*
X19946429Y-10782476D01*
X20032143Y-10982476D02*
X20032143Y-10877714D01*
X20032143Y-10877714D02*
X20022619Y-10858667D01*
X20022619Y-10858667D02*
X20003572Y-10849143D01*
X20003572Y-10849143D02*
X19975000Y-10849143D01*
X19975000Y-10849143D02*
X19955953Y-10858667D01*
X19955953Y-10858667D02*
X19946429Y-10868190D01*
X20155953Y-10982476D02*
X20136905Y-10972952D01*
X20136905Y-10972952D02*
X20127381Y-10963429D01*
X20127381Y-10963429D02*
X20117857Y-10944381D01*
X20117857Y-10944381D02*
X20117857Y-10887238D01*
X20117857Y-10887238D02*
X20127381Y-10868190D01*
X20127381Y-10868190D02*
X20136905Y-10858667D01*
X20136905Y-10858667D02*
X20155953Y-10849143D01*
X20155953Y-10849143D02*
X20184524Y-10849143D01*
X20184524Y-10849143D02*
X20203572Y-10858667D01*
X20203572Y-10858667D02*
X20213095Y-10868190D01*
X20213095Y-10868190D02*
X20222619Y-10887238D01*
X20222619Y-10887238D02*
X20222619Y-10944381D01*
X20222619Y-10944381D02*
X20213095Y-10963429D01*
X20213095Y-10963429D02*
X20203572Y-10972952D01*
X20203572Y-10972952D02*
X20184524Y-10982476D01*
X20184524Y-10982476D02*
X20155953Y-10982476D01*
X20336905Y-10982476D02*
X20317857Y-10972952D01*
X20317857Y-10972952D02*
X20308334Y-10953905D01*
X20308334Y-10953905D02*
X20308334Y-10782476D01*
X20489286Y-10972952D02*
X20470238Y-10982476D01*
X20470238Y-10982476D02*
X20432143Y-10982476D01*
X20432143Y-10982476D02*
X20413095Y-10972952D01*
X20413095Y-10972952D02*
X20403572Y-10953905D01*
X20403572Y-10953905D02*
X20403572Y-10877714D01*
X20403572Y-10877714D02*
X20413095Y-10858667D01*
X20413095Y-10858667D02*
X20432143Y-10849143D01*
X20432143Y-10849143D02*
X20470238Y-10849143D01*
X20470238Y-10849143D02*
X20489286Y-10858667D01*
X20489286Y-10858667D02*
X20498810Y-10877714D01*
X20498810Y-10877714D02*
X20498810Y-10896762D01*
X20498810Y-10896762D02*
X20403572Y-10915810D01*
X20575000Y-10972952D02*
X20594048Y-10982476D01*
X20594048Y-10982476D02*
X20632143Y-10982476D01*
X20632143Y-10982476D02*
X20651191Y-10972952D01*
X20651191Y-10972952D02*
X20660715Y-10953905D01*
X20660715Y-10953905D02*
X20660715Y-10944381D01*
X20660715Y-10944381D02*
X20651191Y-10925333D01*
X20651191Y-10925333D02*
X20632143Y-10915810D01*
X20632143Y-10915810D02*
X20603572Y-10915810D01*
X20603572Y-10915810D02*
X20584524Y-10906286D01*
X20584524Y-10906286D02*
X20575000Y-10887238D01*
X20575000Y-10887238D02*
X20575000Y-10877714D01*
X20575000Y-10877714D02*
X20584524Y-10858667D01*
X20584524Y-10858667D02*
X20603572Y-10849143D01*
X20603572Y-10849143D02*
X20632143Y-10849143D01*
X20632143Y-10849143D02*
X20651191Y-10858667D01*
X20727381Y-11058667D02*
X20736905Y-11049143D01*
X20736905Y-11049143D02*
X20755953Y-11020571D01*
X20755953Y-11020571D02*
X20765476Y-11001524D01*
X20765476Y-11001524D02*
X20775000Y-10972952D01*
X20775000Y-10972952D02*
X20784524Y-10925333D01*
X20784524Y-10925333D02*
X20784524Y-10887238D01*
X20784524Y-10887238D02*
X20775000Y-10839619D01*
X20775000Y-10839619D02*
X20765476Y-10811048D01*
X20765476Y-10811048D02*
X20755953Y-10792000D01*
X20755953Y-10792000D02*
X20736905Y-10763429D01*
X20736905Y-10763429D02*
X20727381Y-10753905D01*
D14*
X16070000Y-11148000D02*
X16070000Y-11198000D01*
X16045000Y-11173000D02*
X16095000Y-11173000D01*
D11*
X16380714Y-11046476D02*
X16399762Y-11046476D01*
X16399762Y-11046476D02*
X16418809Y-11056000D01*
X16418809Y-11056000D02*
X16428333Y-11065524D01*
X16428333Y-11065524D02*
X16437857Y-11084571D01*
X16437857Y-11084571D02*
X16447381Y-11122667D01*
X16447381Y-11122667D02*
X16447381Y-11170286D01*
X16447381Y-11170286D02*
X16437857Y-11208381D01*
X16437857Y-11208381D02*
X16428333Y-11227428D01*
X16428333Y-11227428D02*
X16418809Y-11236952D01*
X16418809Y-11236952D02*
X16399762Y-11246476D01*
X16399762Y-11246476D02*
X16380714Y-11246476D01*
X16380714Y-11246476D02*
X16361667Y-11236952D01*
X16361667Y-11236952D02*
X16352143Y-11227428D01*
X16352143Y-11227428D02*
X16342619Y-11208381D01*
X16342619Y-11208381D02*
X16333095Y-11170286D01*
X16333095Y-11170286D02*
X16333095Y-11122667D01*
X16333095Y-11122667D02*
X16342619Y-11084571D01*
X16342619Y-11084571D02*
X16352143Y-11065524D01*
X16352143Y-11065524D02*
X16361667Y-11056000D01*
X16361667Y-11056000D02*
X16380714Y-11046476D01*
X16533095Y-11227428D02*
X16542619Y-11236952D01*
X16542619Y-11236952D02*
X16533095Y-11246476D01*
X16533095Y-11246476D02*
X16523571Y-11236952D01*
X16523571Y-11236952D02*
X16533095Y-11227428D01*
X16533095Y-11227428D02*
X16533095Y-11246476D01*
X16723571Y-11046476D02*
X16628333Y-11046476D01*
X16628333Y-11046476D02*
X16618809Y-11141714D01*
X16618809Y-11141714D02*
X16628333Y-11132190D01*
X16628333Y-11132190D02*
X16647381Y-11122667D01*
X16647381Y-11122667D02*
X16695000Y-11122667D01*
X16695000Y-11122667D02*
X16714048Y-11132190D01*
X16714048Y-11132190D02*
X16723571Y-11141714D01*
X16723571Y-11141714D02*
X16733095Y-11160762D01*
X16733095Y-11160762D02*
X16733095Y-11208381D01*
X16733095Y-11208381D02*
X16723571Y-11227428D01*
X16723571Y-11227428D02*
X16714048Y-11236952D01*
X16714048Y-11236952D02*
X16695000Y-11246476D01*
X16695000Y-11246476D02*
X16647381Y-11246476D01*
X16647381Y-11246476D02*
X16628333Y-11236952D01*
X16628333Y-11236952D02*
X16618809Y-11227428D01*
X16856905Y-11046476D02*
X16875952Y-11046476D01*
X16875952Y-11046476D02*
X16895000Y-11056000D01*
X16895000Y-11056000D02*
X16904524Y-11065524D01*
X16904524Y-11065524D02*
X16914048Y-11084571D01*
X16914048Y-11084571D02*
X16923571Y-11122667D01*
X16923571Y-11122667D02*
X16923571Y-11170286D01*
X16923571Y-11170286D02*
X16914048Y-11208381D01*
X16914048Y-11208381D02*
X16904524Y-11227428D01*
X16904524Y-11227428D02*
X16895000Y-11236952D01*
X16895000Y-11236952D02*
X16875952Y-11246476D01*
X16875952Y-11246476D02*
X16856905Y-11246476D01*
X16856905Y-11246476D02*
X16837857Y-11236952D01*
X16837857Y-11236952D02*
X16828333Y-11227428D01*
X16828333Y-11227428D02*
X16818810Y-11208381D01*
X16818810Y-11208381D02*
X16809286Y-11170286D01*
X16809286Y-11170286D02*
X16809286Y-11122667D01*
X16809286Y-11122667D02*
X16818810Y-11084571D01*
X16818810Y-11084571D02*
X16828333Y-11065524D01*
X16828333Y-11065524D02*
X16837857Y-11056000D01*
X16837857Y-11056000D02*
X16856905Y-11046476D01*
X17047381Y-11046476D02*
X17066429Y-11046476D01*
X17066429Y-11046476D02*
X17085476Y-11056000D01*
X17085476Y-11056000D02*
X17095000Y-11065524D01*
X17095000Y-11065524D02*
X17104524Y-11084571D01*
X17104524Y-11084571D02*
X17114048Y-11122667D01*
X17114048Y-11122667D02*
X17114048Y-11170286D01*
X17114048Y-11170286D02*
X17104524Y-11208381D01*
X17104524Y-11208381D02*
X17095000Y-11227428D01*
X17095000Y-11227428D02*
X17085476Y-11236952D01*
X17085476Y-11236952D02*
X17066429Y-11246476D01*
X17066429Y-11246476D02*
X17047381Y-11246476D01*
X17047381Y-11246476D02*
X17028333Y-11236952D01*
X17028333Y-11236952D02*
X17018810Y-11227428D01*
X17018810Y-11227428D02*
X17009286Y-11208381D01*
X17009286Y-11208381D02*
X16999762Y-11170286D01*
X16999762Y-11170286D02*
X16999762Y-11122667D01*
X16999762Y-11122667D02*
X17009286Y-11084571D01*
X17009286Y-11084571D02*
X17018810Y-11065524D01*
X17018810Y-11065524D02*
X17028333Y-11056000D01*
X17028333Y-11056000D02*
X17047381Y-11046476D01*
X17199762Y-11246476D02*
X17199762Y-11113143D01*
X17199762Y-11132190D02*
X17209286Y-11122667D01*
X17209286Y-11122667D02*
X17228333Y-11113143D01*
X17228333Y-11113143D02*
X17256905Y-11113143D01*
X17256905Y-11113143D02*
X17275952Y-11122667D01*
X17275952Y-11122667D02*
X17285476Y-11141714D01*
X17285476Y-11141714D02*
X17285476Y-11246476D01*
X17285476Y-11141714D02*
X17295000Y-11122667D01*
X17295000Y-11122667D02*
X17314048Y-11113143D01*
X17314048Y-11113143D02*
X17342619Y-11113143D01*
X17342619Y-11113143D02*
X17361667Y-11122667D01*
X17361667Y-11122667D02*
X17371191Y-11141714D01*
X17371191Y-11141714D02*
X17371191Y-11246476D01*
X17466429Y-11246476D02*
X17466429Y-11113143D01*
X17466429Y-11132190D02*
X17475952Y-11122667D01*
X17475952Y-11122667D02*
X17495000Y-11113143D01*
X17495000Y-11113143D02*
X17523572Y-11113143D01*
X17523572Y-11113143D02*
X17542619Y-11122667D01*
X17542619Y-11122667D02*
X17552143Y-11141714D01*
X17552143Y-11141714D02*
X17552143Y-11246476D01*
X17552143Y-11141714D02*
X17561667Y-11122667D01*
X17561667Y-11122667D02*
X17580714Y-11113143D01*
X17580714Y-11113143D02*
X17609286Y-11113143D01*
X17609286Y-11113143D02*
X17628333Y-11122667D01*
X17628333Y-11122667D02*
X17637857Y-11141714D01*
X17637857Y-11141714D02*
X17637857Y-11246476D01*
X17995952Y-11036952D02*
X17824524Y-11294095D01*
X18220714Y-11046476D02*
X18239762Y-11046476D01*
X18239762Y-11046476D02*
X18258810Y-11056000D01*
X18258810Y-11056000D02*
X18268333Y-11065524D01*
X18268333Y-11065524D02*
X18277857Y-11084571D01*
X18277857Y-11084571D02*
X18287381Y-11122667D01*
X18287381Y-11122667D02*
X18287381Y-11170286D01*
X18287381Y-11170286D02*
X18277857Y-11208381D01*
X18277857Y-11208381D02*
X18268333Y-11227428D01*
X18268333Y-11227428D02*
X18258810Y-11236952D01*
X18258810Y-11236952D02*
X18239762Y-11246476D01*
X18239762Y-11246476D02*
X18220714Y-11246476D01*
X18220714Y-11246476D02*
X18201667Y-11236952D01*
X18201667Y-11236952D02*
X18192143Y-11227428D01*
X18192143Y-11227428D02*
X18182619Y-11208381D01*
X18182619Y-11208381D02*
X18173095Y-11170286D01*
X18173095Y-11170286D02*
X18173095Y-11122667D01*
X18173095Y-11122667D02*
X18182619Y-11084571D01*
X18182619Y-11084571D02*
X18192143Y-11065524D01*
X18192143Y-11065524D02*
X18201667Y-11056000D01*
X18201667Y-11056000D02*
X18220714Y-11046476D01*
X18373095Y-11227428D02*
X18382619Y-11236952D01*
X18382619Y-11236952D02*
X18373095Y-11246476D01*
X18373095Y-11246476D02*
X18363572Y-11236952D01*
X18363572Y-11236952D02*
X18373095Y-11227428D01*
X18373095Y-11227428D02*
X18373095Y-11246476D01*
X18506429Y-11046476D02*
X18525476Y-11046476D01*
X18525476Y-11046476D02*
X18544524Y-11056000D01*
X18544524Y-11056000D02*
X18554048Y-11065524D01*
X18554048Y-11065524D02*
X18563572Y-11084571D01*
X18563572Y-11084571D02*
X18573095Y-11122667D01*
X18573095Y-11122667D02*
X18573095Y-11170286D01*
X18573095Y-11170286D02*
X18563572Y-11208381D01*
X18563572Y-11208381D02*
X18554048Y-11227428D01*
X18554048Y-11227428D02*
X18544524Y-11236952D01*
X18544524Y-11236952D02*
X18525476Y-11246476D01*
X18525476Y-11246476D02*
X18506429Y-11246476D01*
X18506429Y-11246476D02*
X18487381Y-11236952D01*
X18487381Y-11236952D02*
X18477857Y-11227428D01*
X18477857Y-11227428D02*
X18468333Y-11208381D01*
X18468333Y-11208381D02*
X18458810Y-11170286D01*
X18458810Y-11170286D02*
X18458810Y-11122667D01*
X18458810Y-11122667D02*
X18468333Y-11084571D01*
X18468333Y-11084571D02*
X18477857Y-11065524D01*
X18477857Y-11065524D02*
X18487381Y-11056000D01*
X18487381Y-11056000D02*
X18506429Y-11046476D01*
X18763572Y-11246476D02*
X18649286Y-11246476D01*
X18706429Y-11246476D02*
X18706429Y-11046476D01*
X18706429Y-11046476D02*
X18687381Y-11075048D01*
X18687381Y-11075048D02*
X18668333Y-11094095D01*
X18668333Y-11094095D02*
X18649286Y-11103619D01*
X18858810Y-11246476D02*
X18896905Y-11246476D01*
X18896905Y-11246476D02*
X18915953Y-11236952D01*
X18915953Y-11236952D02*
X18925476Y-11227428D01*
X18925476Y-11227428D02*
X18944524Y-11198857D01*
X18944524Y-11198857D02*
X18954048Y-11160762D01*
X18954048Y-11160762D02*
X18954048Y-11084571D01*
X18954048Y-11084571D02*
X18944524Y-11065524D01*
X18944524Y-11065524D02*
X18935000Y-11056000D01*
X18935000Y-11056000D02*
X18915953Y-11046476D01*
X18915953Y-11046476D02*
X18877857Y-11046476D01*
X18877857Y-11046476D02*
X18858810Y-11056000D01*
X18858810Y-11056000D02*
X18849286Y-11065524D01*
X18849286Y-11065524D02*
X18839762Y-11084571D01*
X18839762Y-11084571D02*
X18839762Y-11132190D01*
X18839762Y-11132190D02*
X18849286Y-11151238D01*
X18849286Y-11151238D02*
X18858810Y-11160762D01*
X18858810Y-11160762D02*
X18877857Y-11170286D01*
X18877857Y-11170286D02*
X18915953Y-11170286D01*
X18915953Y-11170286D02*
X18935000Y-11160762D01*
X18935000Y-11160762D02*
X18944524Y-11151238D01*
X18944524Y-11151238D02*
X18954048Y-11132190D01*
X19020714Y-11046476D02*
X19154048Y-11046476D01*
X19154048Y-11046476D02*
X19068333Y-11246476D01*
X19220714Y-11046476D02*
X19220714Y-11084571D01*
X19296905Y-11046476D02*
X19296905Y-11084571D01*
X19559762Y-11322667D02*
X19550238Y-11313143D01*
X19550238Y-11313143D02*
X19531191Y-11284571D01*
X19531191Y-11284571D02*
X19521667Y-11265524D01*
X19521667Y-11265524D02*
X19512143Y-11236952D01*
X19512143Y-11236952D02*
X19502619Y-11189333D01*
X19502619Y-11189333D02*
X19502619Y-11151238D01*
X19502619Y-11151238D02*
X19512143Y-11103619D01*
X19512143Y-11103619D02*
X19521667Y-11075048D01*
X19521667Y-11075048D02*
X19531191Y-11056000D01*
X19531191Y-11056000D02*
X19550238Y-11027429D01*
X19550238Y-11027429D02*
X19559762Y-11017905D01*
X19664524Y-11132190D02*
X19645476Y-11122667D01*
X19645476Y-11122667D02*
X19635953Y-11113143D01*
X19635953Y-11113143D02*
X19626429Y-11094095D01*
X19626429Y-11094095D02*
X19626429Y-11084571D01*
X19626429Y-11084571D02*
X19635953Y-11065524D01*
X19635953Y-11065524D02*
X19645476Y-11056000D01*
X19645476Y-11056000D02*
X19664524Y-11046476D01*
X19664524Y-11046476D02*
X19702619Y-11046476D01*
X19702619Y-11046476D02*
X19721667Y-11056000D01*
X19721667Y-11056000D02*
X19731191Y-11065524D01*
X19731191Y-11065524D02*
X19740714Y-11084571D01*
X19740714Y-11084571D02*
X19740714Y-11094095D01*
X19740714Y-11094095D02*
X19731191Y-11113143D01*
X19731191Y-11113143D02*
X19721667Y-11122667D01*
X19721667Y-11122667D02*
X19702619Y-11132190D01*
X19702619Y-11132190D02*
X19664524Y-11132190D01*
X19664524Y-11132190D02*
X19645476Y-11141714D01*
X19645476Y-11141714D02*
X19635953Y-11151238D01*
X19635953Y-11151238D02*
X19626429Y-11170286D01*
X19626429Y-11170286D02*
X19626429Y-11208381D01*
X19626429Y-11208381D02*
X19635953Y-11227428D01*
X19635953Y-11227428D02*
X19645476Y-11236952D01*
X19645476Y-11236952D02*
X19664524Y-11246476D01*
X19664524Y-11246476D02*
X19702619Y-11246476D01*
X19702619Y-11246476D02*
X19721667Y-11236952D01*
X19721667Y-11236952D02*
X19731191Y-11227428D01*
X19731191Y-11227428D02*
X19740714Y-11208381D01*
X19740714Y-11208381D02*
X19740714Y-11170286D01*
X19740714Y-11170286D02*
X19731191Y-11151238D01*
X19731191Y-11151238D02*
X19721667Y-11141714D01*
X19721667Y-11141714D02*
X19702619Y-11132190D01*
X19946429Y-11246476D02*
X19946429Y-11046476D01*
X20032143Y-11246476D02*
X20032143Y-11141714D01*
X20032143Y-11141714D02*
X20022619Y-11122667D01*
X20022619Y-11122667D02*
X20003572Y-11113143D01*
X20003572Y-11113143D02*
X19975000Y-11113143D01*
X19975000Y-11113143D02*
X19955953Y-11122667D01*
X19955953Y-11122667D02*
X19946429Y-11132190D01*
X20155953Y-11246476D02*
X20136905Y-11236952D01*
X20136905Y-11236952D02*
X20127381Y-11227428D01*
X20127381Y-11227428D02*
X20117857Y-11208381D01*
X20117857Y-11208381D02*
X20117857Y-11151238D01*
X20117857Y-11151238D02*
X20127381Y-11132190D01*
X20127381Y-11132190D02*
X20136905Y-11122667D01*
X20136905Y-11122667D02*
X20155953Y-11113143D01*
X20155953Y-11113143D02*
X20184524Y-11113143D01*
X20184524Y-11113143D02*
X20203572Y-11122667D01*
X20203572Y-11122667D02*
X20213095Y-11132190D01*
X20213095Y-11132190D02*
X20222619Y-11151238D01*
X20222619Y-11151238D02*
X20222619Y-11208381D01*
X20222619Y-11208381D02*
X20213095Y-11227428D01*
X20213095Y-11227428D02*
X20203572Y-11236952D01*
X20203572Y-11236952D02*
X20184524Y-11246476D01*
X20184524Y-11246476D02*
X20155953Y-11246476D01*
X20336905Y-11246476D02*
X20317857Y-11236952D01*
X20317857Y-11236952D02*
X20308334Y-11217905D01*
X20308334Y-11217905D02*
X20308334Y-11046476D01*
X20489286Y-11236952D02*
X20470238Y-11246476D01*
X20470238Y-11246476D02*
X20432143Y-11246476D01*
X20432143Y-11246476D02*
X20413095Y-11236952D01*
X20413095Y-11236952D02*
X20403572Y-11217905D01*
X20403572Y-11217905D02*
X20403572Y-11141714D01*
X20403572Y-11141714D02*
X20413095Y-11122667D01*
X20413095Y-11122667D02*
X20432143Y-11113143D01*
X20432143Y-11113143D02*
X20470238Y-11113143D01*
X20470238Y-11113143D02*
X20489286Y-11122667D01*
X20489286Y-11122667D02*
X20498810Y-11141714D01*
X20498810Y-11141714D02*
X20498810Y-11160762D01*
X20498810Y-11160762D02*
X20403572Y-11179810D01*
X20575000Y-11236952D02*
X20594048Y-11246476D01*
X20594048Y-11246476D02*
X20632143Y-11246476D01*
X20632143Y-11246476D02*
X20651191Y-11236952D01*
X20651191Y-11236952D02*
X20660715Y-11217905D01*
X20660715Y-11217905D02*
X20660715Y-11208381D01*
X20660715Y-11208381D02*
X20651191Y-11189333D01*
X20651191Y-11189333D02*
X20632143Y-11179810D01*
X20632143Y-11179810D02*
X20603572Y-11179810D01*
X20603572Y-11179810D02*
X20584524Y-11170286D01*
X20584524Y-11170286D02*
X20575000Y-11151238D01*
X20575000Y-11151238D02*
X20575000Y-11141714D01*
X20575000Y-11141714D02*
X20584524Y-11122667D01*
X20584524Y-11122667D02*
X20603572Y-11113143D01*
X20603572Y-11113143D02*
X20632143Y-11113143D01*
X20632143Y-11113143D02*
X20651191Y-11122667D01*
X20727381Y-11322667D02*
X20736905Y-11313143D01*
X20736905Y-11313143D02*
X20755953Y-11284571D01*
X20755953Y-11284571D02*
X20765476Y-11265524D01*
X20765476Y-11265524D02*
X20775000Y-11236952D01*
X20775000Y-11236952D02*
X20784524Y-11189333D01*
X20784524Y-11189333D02*
X20784524Y-11151238D01*
X20784524Y-11151238D02*
X20775000Y-11103619D01*
X20775000Y-11103619D02*
X20765476Y-11075048D01*
X20765476Y-11075048D02*
X20755953Y-11056000D01*
X20755953Y-11056000D02*
X20736905Y-11027429D01*
X20736905Y-11027429D02*
X20727381Y-11017905D01*
D15*
X16086213Y-11458213D02*
X16086213Y-11415787D01*
X16043787Y-11415787D01*
X16043787Y-11458213D01*
X16086213Y-11458213D01*
D11*
X16380714Y-11310476D02*
X16399762Y-11310476D01*
X16399762Y-11310476D02*
X16418809Y-11320000D01*
X16418809Y-11320000D02*
X16428333Y-11329524D01*
X16428333Y-11329524D02*
X16437857Y-11348571D01*
X16437857Y-11348571D02*
X16447381Y-11386667D01*
X16447381Y-11386667D02*
X16447381Y-11434286D01*
X16447381Y-11434286D02*
X16437857Y-11472381D01*
X16437857Y-11472381D02*
X16428333Y-11491428D01*
X16428333Y-11491428D02*
X16418809Y-11500952D01*
X16418809Y-11500952D02*
X16399762Y-11510476D01*
X16399762Y-11510476D02*
X16380714Y-11510476D01*
X16380714Y-11510476D02*
X16361667Y-11500952D01*
X16361667Y-11500952D02*
X16352143Y-11491428D01*
X16352143Y-11491428D02*
X16342619Y-11472381D01*
X16342619Y-11472381D02*
X16333095Y-11434286D01*
X16333095Y-11434286D02*
X16333095Y-11386667D01*
X16333095Y-11386667D02*
X16342619Y-11348571D01*
X16342619Y-11348571D02*
X16352143Y-11329524D01*
X16352143Y-11329524D02*
X16361667Y-11320000D01*
X16361667Y-11320000D02*
X16380714Y-11310476D01*
X16533095Y-11491428D02*
X16542619Y-11500952D01*
X16542619Y-11500952D02*
X16533095Y-11510476D01*
X16533095Y-11510476D02*
X16523571Y-11500952D01*
X16523571Y-11500952D02*
X16533095Y-11491428D01*
X16533095Y-11491428D02*
X16533095Y-11510476D01*
X16714048Y-11310476D02*
X16675952Y-11310476D01*
X16675952Y-11310476D02*
X16656905Y-11320000D01*
X16656905Y-11320000D02*
X16647381Y-11329524D01*
X16647381Y-11329524D02*
X16628333Y-11358095D01*
X16628333Y-11358095D02*
X16618809Y-11396190D01*
X16618809Y-11396190D02*
X16618809Y-11472381D01*
X16618809Y-11472381D02*
X16628333Y-11491428D01*
X16628333Y-11491428D02*
X16637857Y-11500952D01*
X16637857Y-11500952D02*
X16656905Y-11510476D01*
X16656905Y-11510476D02*
X16695000Y-11510476D01*
X16695000Y-11510476D02*
X16714048Y-11500952D01*
X16714048Y-11500952D02*
X16723571Y-11491428D01*
X16723571Y-11491428D02*
X16733095Y-11472381D01*
X16733095Y-11472381D02*
X16733095Y-11424762D01*
X16733095Y-11424762D02*
X16723571Y-11405714D01*
X16723571Y-11405714D02*
X16714048Y-11396190D01*
X16714048Y-11396190D02*
X16695000Y-11386667D01*
X16695000Y-11386667D02*
X16656905Y-11386667D01*
X16656905Y-11386667D02*
X16637857Y-11396190D01*
X16637857Y-11396190D02*
X16628333Y-11405714D01*
X16628333Y-11405714D02*
X16618809Y-11424762D01*
X16856905Y-11310476D02*
X16875952Y-11310476D01*
X16875952Y-11310476D02*
X16895000Y-11320000D01*
X16895000Y-11320000D02*
X16904524Y-11329524D01*
X16904524Y-11329524D02*
X16914048Y-11348571D01*
X16914048Y-11348571D02*
X16923571Y-11386667D01*
X16923571Y-11386667D02*
X16923571Y-11434286D01*
X16923571Y-11434286D02*
X16914048Y-11472381D01*
X16914048Y-11472381D02*
X16904524Y-11491428D01*
X16904524Y-11491428D02*
X16895000Y-11500952D01*
X16895000Y-11500952D02*
X16875952Y-11510476D01*
X16875952Y-11510476D02*
X16856905Y-11510476D01*
X16856905Y-11510476D02*
X16837857Y-11500952D01*
X16837857Y-11500952D02*
X16828333Y-11491428D01*
X16828333Y-11491428D02*
X16818810Y-11472381D01*
X16818810Y-11472381D02*
X16809286Y-11434286D01*
X16809286Y-11434286D02*
X16809286Y-11386667D01*
X16809286Y-11386667D02*
X16818810Y-11348571D01*
X16818810Y-11348571D02*
X16828333Y-11329524D01*
X16828333Y-11329524D02*
X16837857Y-11320000D01*
X16837857Y-11320000D02*
X16856905Y-11310476D01*
X17047381Y-11310476D02*
X17066429Y-11310476D01*
X17066429Y-11310476D02*
X17085476Y-11320000D01*
X17085476Y-11320000D02*
X17095000Y-11329524D01*
X17095000Y-11329524D02*
X17104524Y-11348571D01*
X17104524Y-11348571D02*
X17114048Y-11386667D01*
X17114048Y-11386667D02*
X17114048Y-11434286D01*
X17114048Y-11434286D02*
X17104524Y-11472381D01*
X17104524Y-11472381D02*
X17095000Y-11491428D01*
X17095000Y-11491428D02*
X17085476Y-11500952D01*
X17085476Y-11500952D02*
X17066429Y-11510476D01*
X17066429Y-11510476D02*
X17047381Y-11510476D01*
X17047381Y-11510476D02*
X17028333Y-11500952D01*
X17028333Y-11500952D02*
X17018810Y-11491428D01*
X17018810Y-11491428D02*
X17009286Y-11472381D01*
X17009286Y-11472381D02*
X16999762Y-11434286D01*
X16999762Y-11434286D02*
X16999762Y-11386667D01*
X16999762Y-11386667D02*
X17009286Y-11348571D01*
X17009286Y-11348571D02*
X17018810Y-11329524D01*
X17018810Y-11329524D02*
X17028333Y-11320000D01*
X17028333Y-11320000D02*
X17047381Y-11310476D01*
X17199762Y-11510476D02*
X17199762Y-11377143D01*
X17199762Y-11396190D02*
X17209286Y-11386667D01*
X17209286Y-11386667D02*
X17228333Y-11377143D01*
X17228333Y-11377143D02*
X17256905Y-11377143D01*
X17256905Y-11377143D02*
X17275952Y-11386667D01*
X17275952Y-11386667D02*
X17285476Y-11405714D01*
X17285476Y-11405714D02*
X17285476Y-11510476D01*
X17285476Y-11405714D02*
X17295000Y-11386667D01*
X17295000Y-11386667D02*
X17314048Y-11377143D01*
X17314048Y-11377143D02*
X17342619Y-11377143D01*
X17342619Y-11377143D02*
X17361667Y-11386667D01*
X17361667Y-11386667D02*
X17371191Y-11405714D01*
X17371191Y-11405714D02*
X17371191Y-11510476D01*
X17466429Y-11510476D02*
X17466429Y-11377143D01*
X17466429Y-11396190D02*
X17475952Y-11386667D01*
X17475952Y-11386667D02*
X17495000Y-11377143D01*
X17495000Y-11377143D02*
X17523572Y-11377143D01*
X17523572Y-11377143D02*
X17542619Y-11386667D01*
X17542619Y-11386667D02*
X17552143Y-11405714D01*
X17552143Y-11405714D02*
X17552143Y-11510476D01*
X17552143Y-11405714D02*
X17561667Y-11386667D01*
X17561667Y-11386667D02*
X17580714Y-11377143D01*
X17580714Y-11377143D02*
X17609286Y-11377143D01*
X17609286Y-11377143D02*
X17628333Y-11386667D01*
X17628333Y-11386667D02*
X17637857Y-11405714D01*
X17637857Y-11405714D02*
X17637857Y-11510476D01*
X17995952Y-11300952D02*
X17824524Y-11558095D01*
X18220714Y-11310476D02*
X18239762Y-11310476D01*
X18239762Y-11310476D02*
X18258810Y-11320000D01*
X18258810Y-11320000D02*
X18268333Y-11329524D01*
X18268333Y-11329524D02*
X18277857Y-11348571D01*
X18277857Y-11348571D02*
X18287381Y-11386667D01*
X18287381Y-11386667D02*
X18287381Y-11434286D01*
X18287381Y-11434286D02*
X18277857Y-11472381D01*
X18277857Y-11472381D02*
X18268333Y-11491428D01*
X18268333Y-11491428D02*
X18258810Y-11500952D01*
X18258810Y-11500952D02*
X18239762Y-11510476D01*
X18239762Y-11510476D02*
X18220714Y-11510476D01*
X18220714Y-11510476D02*
X18201667Y-11500952D01*
X18201667Y-11500952D02*
X18192143Y-11491428D01*
X18192143Y-11491428D02*
X18182619Y-11472381D01*
X18182619Y-11472381D02*
X18173095Y-11434286D01*
X18173095Y-11434286D02*
X18173095Y-11386667D01*
X18173095Y-11386667D02*
X18182619Y-11348571D01*
X18182619Y-11348571D02*
X18192143Y-11329524D01*
X18192143Y-11329524D02*
X18201667Y-11320000D01*
X18201667Y-11320000D02*
X18220714Y-11310476D01*
X18373095Y-11491428D02*
X18382619Y-11500952D01*
X18382619Y-11500952D02*
X18373095Y-11510476D01*
X18373095Y-11510476D02*
X18363572Y-11500952D01*
X18363572Y-11500952D02*
X18373095Y-11491428D01*
X18373095Y-11491428D02*
X18373095Y-11510476D01*
X18506429Y-11310476D02*
X18525476Y-11310476D01*
X18525476Y-11310476D02*
X18544524Y-11320000D01*
X18544524Y-11320000D02*
X18554048Y-11329524D01*
X18554048Y-11329524D02*
X18563572Y-11348571D01*
X18563572Y-11348571D02*
X18573095Y-11386667D01*
X18573095Y-11386667D02*
X18573095Y-11434286D01*
X18573095Y-11434286D02*
X18563572Y-11472381D01*
X18563572Y-11472381D02*
X18554048Y-11491428D01*
X18554048Y-11491428D02*
X18544524Y-11500952D01*
X18544524Y-11500952D02*
X18525476Y-11510476D01*
X18525476Y-11510476D02*
X18506429Y-11510476D01*
X18506429Y-11510476D02*
X18487381Y-11500952D01*
X18487381Y-11500952D02*
X18477857Y-11491428D01*
X18477857Y-11491428D02*
X18468333Y-11472381D01*
X18468333Y-11472381D02*
X18458810Y-11434286D01*
X18458810Y-11434286D02*
X18458810Y-11386667D01*
X18458810Y-11386667D02*
X18468333Y-11348571D01*
X18468333Y-11348571D02*
X18477857Y-11329524D01*
X18477857Y-11329524D02*
X18487381Y-11320000D01*
X18487381Y-11320000D02*
X18506429Y-11310476D01*
X18649286Y-11329524D02*
X18658810Y-11320000D01*
X18658810Y-11320000D02*
X18677857Y-11310476D01*
X18677857Y-11310476D02*
X18725476Y-11310476D01*
X18725476Y-11310476D02*
X18744524Y-11320000D01*
X18744524Y-11320000D02*
X18754048Y-11329524D01*
X18754048Y-11329524D02*
X18763572Y-11348571D01*
X18763572Y-11348571D02*
X18763572Y-11367619D01*
X18763572Y-11367619D02*
X18754048Y-11396190D01*
X18754048Y-11396190D02*
X18639762Y-11510476D01*
X18639762Y-11510476D02*
X18763572Y-11510476D01*
X18830238Y-11310476D02*
X18954048Y-11310476D01*
X18954048Y-11310476D02*
X18887381Y-11386667D01*
X18887381Y-11386667D02*
X18915953Y-11386667D01*
X18915953Y-11386667D02*
X18935000Y-11396190D01*
X18935000Y-11396190D02*
X18944524Y-11405714D01*
X18944524Y-11405714D02*
X18954048Y-11424762D01*
X18954048Y-11424762D02*
X18954048Y-11472381D01*
X18954048Y-11472381D02*
X18944524Y-11491428D01*
X18944524Y-11491428D02*
X18935000Y-11500952D01*
X18935000Y-11500952D02*
X18915953Y-11510476D01*
X18915953Y-11510476D02*
X18858810Y-11510476D01*
X18858810Y-11510476D02*
X18839762Y-11500952D01*
X18839762Y-11500952D02*
X18830238Y-11491428D01*
X19125476Y-11310476D02*
X19087381Y-11310476D01*
X19087381Y-11310476D02*
X19068333Y-11320000D01*
X19068333Y-11320000D02*
X19058810Y-11329524D01*
X19058810Y-11329524D02*
X19039762Y-11358095D01*
X19039762Y-11358095D02*
X19030238Y-11396190D01*
X19030238Y-11396190D02*
X19030238Y-11472381D01*
X19030238Y-11472381D02*
X19039762Y-11491428D01*
X19039762Y-11491428D02*
X19049286Y-11500952D01*
X19049286Y-11500952D02*
X19068333Y-11510476D01*
X19068333Y-11510476D02*
X19106429Y-11510476D01*
X19106429Y-11510476D02*
X19125476Y-11500952D01*
X19125476Y-11500952D02*
X19135000Y-11491428D01*
X19135000Y-11491428D02*
X19144524Y-11472381D01*
X19144524Y-11472381D02*
X19144524Y-11424762D01*
X19144524Y-11424762D02*
X19135000Y-11405714D01*
X19135000Y-11405714D02*
X19125476Y-11396190D01*
X19125476Y-11396190D02*
X19106429Y-11386667D01*
X19106429Y-11386667D02*
X19068333Y-11386667D01*
X19068333Y-11386667D02*
X19049286Y-11396190D01*
X19049286Y-11396190D02*
X19039762Y-11405714D01*
X19039762Y-11405714D02*
X19030238Y-11424762D01*
X19220714Y-11310476D02*
X19220714Y-11348571D01*
X19296905Y-11310476D02*
X19296905Y-11348571D01*
X19559762Y-11586667D02*
X19550238Y-11577143D01*
X19550238Y-11577143D02*
X19531191Y-11548571D01*
X19531191Y-11548571D02*
X19521667Y-11529524D01*
X19521667Y-11529524D02*
X19512143Y-11500952D01*
X19512143Y-11500952D02*
X19502619Y-11453333D01*
X19502619Y-11453333D02*
X19502619Y-11415238D01*
X19502619Y-11415238D02*
X19512143Y-11367619D01*
X19512143Y-11367619D02*
X19521667Y-11339048D01*
X19521667Y-11339048D02*
X19531191Y-11320000D01*
X19531191Y-11320000D02*
X19550238Y-11291428D01*
X19550238Y-11291428D02*
X19559762Y-11281905D01*
X19674048Y-11310476D02*
X19693095Y-11310476D01*
X19693095Y-11310476D02*
X19712143Y-11320000D01*
X19712143Y-11320000D02*
X19721667Y-11329524D01*
X19721667Y-11329524D02*
X19731191Y-11348571D01*
X19731191Y-11348571D02*
X19740714Y-11386667D01*
X19740714Y-11386667D02*
X19740714Y-11434286D01*
X19740714Y-11434286D02*
X19731191Y-11472381D01*
X19731191Y-11472381D02*
X19721667Y-11491428D01*
X19721667Y-11491428D02*
X19712143Y-11500952D01*
X19712143Y-11500952D02*
X19693095Y-11510476D01*
X19693095Y-11510476D02*
X19674048Y-11510476D01*
X19674048Y-11510476D02*
X19655000Y-11500952D01*
X19655000Y-11500952D02*
X19645476Y-11491428D01*
X19645476Y-11491428D02*
X19635953Y-11472381D01*
X19635953Y-11472381D02*
X19626429Y-11434286D01*
X19626429Y-11434286D02*
X19626429Y-11386667D01*
X19626429Y-11386667D02*
X19635953Y-11348571D01*
X19635953Y-11348571D02*
X19645476Y-11329524D01*
X19645476Y-11329524D02*
X19655000Y-11320000D01*
X19655000Y-11320000D02*
X19674048Y-11310476D01*
X19946429Y-11510476D02*
X19946429Y-11310476D01*
X20032143Y-11510476D02*
X20032143Y-11405714D01*
X20032143Y-11405714D02*
X20022619Y-11386667D01*
X20022619Y-11386667D02*
X20003572Y-11377143D01*
X20003572Y-11377143D02*
X19975000Y-11377143D01*
X19975000Y-11377143D02*
X19955953Y-11386667D01*
X19955953Y-11386667D02*
X19946429Y-11396190D01*
X20155953Y-11510476D02*
X20136905Y-11500952D01*
X20136905Y-11500952D02*
X20127381Y-11491428D01*
X20127381Y-11491428D02*
X20117857Y-11472381D01*
X20117857Y-11472381D02*
X20117857Y-11415238D01*
X20117857Y-11415238D02*
X20127381Y-11396190D01*
X20127381Y-11396190D02*
X20136905Y-11386667D01*
X20136905Y-11386667D02*
X20155953Y-11377143D01*
X20155953Y-11377143D02*
X20184524Y-11377143D01*
X20184524Y-11377143D02*
X20203572Y-11386667D01*
X20203572Y-11386667D02*
X20213095Y-11396190D01*
X20213095Y-11396190D02*
X20222619Y-11415238D01*
X20222619Y-11415238D02*
X20222619Y-11472381D01*
X20222619Y-11472381D02*
X20213095Y-11491428D01*
X20213095Y-11491428D02*
X20203572Y-11500952D01*
X20203572Y-11500952D02*
X20184524Y-11510476D01*
X20184524Y-11510476D02*
X20155953Y-11510476D01*
X20336905Y-11510476D02*
X20317857Y-11500952D01*
X20317857Y-11500952D02*
X20308334Y-11481905D01*
X20308334Y-11481905D02*
X20308334Y-11310476D01*
X20489286Y-11500952D02*
X20470238Y-11510476D01*
X20470238Y-11510476D02*
X20432143Y-11510476D01*
X20432143Y-11510476D02*
X20413095Y-11500952D01*
X20413095Y-11500952D02*
X20403572Y-11481905D01*
X20403572Y-11481905D02*
X20403572Y-11405714D01*
X20403572Y-11405714D02*
X20413095Y-11386667D01*
X20413095Y-11386667D02*
X20432143Y-11377143D01*
X20432143Y-11377143D02*
X20470238Y-11377143D01*
X20470238Y-11377143D02*
X20489286Y-11386667D01*
X20489286Y-11386667D02*
X20498810Y-11405714D01*
X20498810Y-11405714D02*
X20498810Y-11424762D01*
X20498810Y-11424762D02*
X20403572Y-11443809D01*
X20575000Y-11500952D02*
X20594048Y-11510476D01*
X20594048Y-11510476D02*
X20632143Y-11510476D01*
X20632143Y-11510476D02*
X20651191Y-11500952D01*
X20651191Y-11500952D02*
X20660715Y-11481905D01*
X20660715Y-11481905D02*
X20660715Y-11472381D01*
X20660715Y-11472381D02*
X20651191Y-11453333D01*
X20651191Y-11453333D02*
X20632143Y-11443809D01*
X20632143Y-11443809D02*
X20603572Y-11443809D01*
X20603572Y-11443809D02*
X20584524Y-11434286D01*
X20584524Y-11434286D02*
X20575000Y-11415238D01*
X20575000Y-11415238D02*
X20575000Y-11405714D01*
X20575000Y-11405714D02*
X20584524Y-11386667D01*
X20584524Y-11386667D02*
X20603572Y-11377143D01*
X20603572Y-11377143D02*
X20632143Y-11377143D01*
X20632143Y-11377143D02*
X20651191Y-11386667D01*
X20866429Y-11434286D02*
X21018810Y-11434286D01*
X20942619Y-11510476D02*
X20942619Y-11358095D01*
X21319762Y-11377143D02*
X21319762Y-11510476D01*
X21272143Y-11300952D02*
X21224524Y-11443809D01*
X21224524Y-11443809D02*
X21348334Y-11443809D01*
X21535000Y-11500952D02*
X21554048Y-11510476D01*
X21554048Y-11510476D02*
X21592143Y-11510476D01*
X21592143Y-11510476D02*
X21611191Y-11500952D01*
X21611191Y-11500952D02*
X21620715Y-11481905D01*
X21620715Y-11481905D02*
X21620715Y-11472381D01*
X21620715Y-11472381D02*
X21611191Y-11453333D01*
X21611191Y-11453333D02*
X21592143Y-11443809D01*
X21592143Y-11443809D02*
X21563572Y-11443809D01*
X21563572Y-11443809D02*
X21544524Y-11434286D01*
X21544524Y-11434286D02*
X21535000Y-11415238D01*
X21535000Y-11415238D02*
X21535000Y-11405714D01*
X21535000Y-11405714D02*
X21544524Y-11386667D01*
X21544524Y-11386667D02*
X21563572Y-11377143D01*
X21563572Y-11377143D02*
X21592143Y-11377143D01*
X21592143Y-11377143D02*
X21611191Y-11386667D01*
X21735000Y-11510476D02*
X21715953Y-11500952D01*
X21715953Y-11500952D02*
X21706429Y-11481905D01*
X21706429Y-11481905D02*
X21706429Y-11310476D01*
X21839762Y-11510476D02*
X21820715Y-11500952D01*
X21820715Y-11500952D02*
X21811191Y-11491428D01*
X21811191Y-11491428D02*
X21801667Y-11472381D01*
X21801667Y-11472381D02*
X21801667Y-11415238D01*
X21801667Y-11415238D02*
X21811191Y-11396190D01*
X21811191Y-11396190D02*
X21820715Y-11386667D01*
X21820715Y-11386667D02*
X21839762Y-11377143D01*
X21839762Y-11377143D02*
X21868334Y-11377143D01*
X21868334Y-11377143D02*
X21887381Y-11386667D01*
X21887381Y-11386667D02*
X21896905Y-11396190D01*
X21896905Y-11396190D02*
X21906429Y-11415238D01*
X21906429Y-11415238D02*
X21906429Y-11472381D01*
X21906429Y-11472381D02*
X21896905Y-11491428D01*
X21896905Y-11491428D02*
X21887381Y-11500952D01*
X21887381Y-11500952D02*
X21868334Y-11510476D01*
X21868334Y-11510476D02*
X21839762Y-11510476D01*
X21963572Y-11377143D02*
X22039762Y-11377143D01*
X21992143Y-11310476D02*
X21992143Y-11481905D01*
X21992143Y-11481905D02*
X22001667Y-11500952D01*
X22001667Y-11500952D02*
X22020715Y-11510476D01*
X22020715Y-11510476D02*
X22039762Y-11510476D01*
X22096905Y-11500952D02*
X22115953Y-11510476D01*
X22115953Y-11510476D02*
X22154048Y-11510476D01*
X22154048Y-11510476D02*
X22173096Y-11500952D01*
X22173096Y-11500952D02*
X22182619Y-11481905D01*
X22182619Y-11481905D02*
X22182619Y-11472381D01*
X22182619Y-11472381D02*
X22173096Y-11453333D01*
X22173096Y-11453333D02*
X22154048Y-11443809D01*
X22154048Y-11443809D02*
X22125476Y-11443809D01*
X22125476Y-11443809D02*
X22106429Y-11434286D01*
X22106429Y-11434286D02*
X22096905Y-11415238D01*
X22096905Y-11415238D02*
X22096905Y-11405714D01*
X22096905Y-11405714D02*
X22106429Y-11386667D01*
X22106429Y-11386667D02*
X22125476Y-11377143D01*
X22125476Y-11377143D02*
X22154048Y-11377143D01*
X22154048Y-11377143D02*
X22173096Y-11386667D01*
X22249286Y-11586667D02*
X22258810Y-11577143D01*
X22258810Y-11577143D02*
X22277857Y-11548571D01*
X22277857Y-11548571D02*
X22287381Y-11529524D01*
X22287381Y-11529524D02*
X22296905Y-11500952D01*
X22296905Y-11500952D02*
X22306429Y-11453333D01*
X22306429Y-11453333D02*
X22306429Y-11415238D01*
X22306429Y-11415238D02*
X22296905Y-11367619D01*
X22296905Y-11367619D02*
X22287381Y-11339048D01*
X22287381Y-11339048D02*
X22277857Y-11320000D01*
X22277857Y-11320000D02*
X22258810Y-11291428D01*
X22258810Y-11291428D02*
X22249286Y-11281905D01*
D10*
X16045000Y-11751000D02*
X16095000Y-11701000D01*
X16045000Y-11651000D01*
X15995000Y-11701000D01*
X16045000Y-11751000D01*
D11*
X16447381Y-11774476D02*
X16333095Y-11774476D01*
X16390238Y-11774476D02*
X16390238Y-11574476D01*
X16390238Y-11574476D02*
X16371190Y-11603048D01*
X16371190Y-11603048D02*
X16352143Y-11622095D01*
X16352143Y-11622095D02*
X16333095Y-11631619D01*
X16533095Y-11755428D02*
X16542619Y-11764952D01*
X16542619Y-11764952D02*
X16533095Y-11774476D01*
X16533095Y-11774476D02*
X16523571Y-11764952D01*
X16523571Y-11764952D02*
X16533095Y-11755428D01*
X16533095Y-11755428D02*
X16533095Y-11774476D01*
X16666428Y-11574476D02*
X16685476Y-11574476D01*
X16685476Y-11574476D02*
X16704524Y-11584000D01*
X16704524Y-11584000D02*
X16714048Y-11593524D01*
X16714048Y-11593524D02*
X16723571Y-11612571D01*
X16723571Y-11612571D02*
X16733095Y-11650667D01*
X16733095Y-11650667D02*
X16733095Y-11698286D01*
X16733095Y-11698286D02*
X16723571Y-11736381D01*
X16723571Y-11736381D02*
X16714048Y-11755428D01*
X16714048Y-11755428D02*
X16704524Y-11764952D01*
X16704524Y-11764952D02*
X16685476Y-11774476D01*
X16685476Y-11774476D02*
X16666428Y-11774476D01*
X16666428Y-11774476D02*
X16647381Y-11764952D01*
X16647381Y-11764952D02*
X16637857Y-11755428D01*
X16637857Y-11755428D02*
X16628333Y-11736381D01*
X16628333Y-11736381D02*
X16618809Y-11698286D01*
X16618809Y-11698286D02*
X16618809Y-11650667D01*
X16618809Y-11650667D02*
X16628333Y-11612571D01*
X16628333Y-11612571D02*
X16637857Y-11593524D01*
X16637857Y-11593524D02*
X16647381Y-11584000D01*
X16647381Y-11584000D02*
X16666428Y-11574476D01*
X16856905Y-11574476D02*
X16875952Y-11574476D01*
X16875952Y-11574476D02*
X16895000Y-11584000D01*
X16895000Y-11584000D02*
X16904524Y-11593524D01*
X16904524Y-11593524D02*
X16914048Y-11612571D01*
X16914048Y-11612571D02*
X16923571Y-11650667D01*
X16923571Y-11650667D02*
X16923571Y-11698286D01*
X16923571Y-11698286D02*
X16914048Y-11736381D01*
X16914048Y-11736381D02*
X16904524Y-11755428D01*
X16904524Y-11755428D02*
X16895000Y-11764952D01*
X16895000Y-11764952D02*
X16875952Y-11774476D01*
X16875952Y-11774476D02*
X16856905Y-11774476D01*
X16856905Y-11774476D02*
X16837857Y-11764952D01*
X16837857Y-11764952D02*
X16828333Y-11755428D01*
X16828333Y-11755428D02*
X16818810Y-11736381D01*
X16818810Y-11736381D02*
X16809286Y-11698286D01*
X16809286Y-11698286D02*
X16809286Y-11650667D01*
X16809286Y-11650667D02*
X16818810Y-11612571D01*
X16818810Y-11612571D02*
X16828333Y-11593524D01*
X16828333Y-11593524D02*
X16837857Y-11584000D01*
X16837857Y-11584000D02*
X16856905Y-11574476D01*
X17047381Y-11574476D02*
X17066429Y-11574476D01*
X17066429Y-11574476D02*
X17085476Y-11584000D01*
X17085476Y-11584000D02*
X17095000Y-11593524D01*
X17095000Y-11593524D02*
X17104524Y-11612571D01*
X17104524Y-11612571D02*
X17114048Y-11650667D01*
X17114048Y-11650667D02*
X17114048Y-11698286D01*
X17114048Y-11698286D02*
X17104524Y-11736381D01*
X17104524Y-11736381D02*
X17095000Y-11755428D01*
X17095000Y-11755428D02*
X17085476Y-11764952D01*
X17085476Y-11764952D02*
X17066429Y-11774476D01*
X17066429Y-11774476D02*
X17047381Y-11774476D01*
X17047381Y-11774476D02*
X17028333Y-11764952D01*
X17028333Y-11764952D02*
X17018810Y-11755428D01*
X17018810Y-11755428D02*
X17009286Y-11736381D01*
X17009286Y-11736381D02*
X16999762Y-11698286D01*
X16999762Y-11698286D02*
X16999762Y-11650667D01*
X16999762Y-11650667D02*
X17009286Y-11612571D01*
X17009286Y-11612571D02*
X17018810Y-11593524D01*
X17018810Y-11593524D02*
X17028333Y-11584000D01*
X17028333Y-11584000D02*
X17047381Y-11574476D01*
X17199762Y-11774476D02*
X17199762Y-11641143D01*
X17199762Y-11660190D02*
X17209286Y-11650667D01*
X17209286Y-11650667D02*
X17228333Y-11641143D01*
X17228333Y-11641143D02*
X17256905Y-11641143D01*
X17256905Y-11641143D02*
X17275952Y-11650667D01*
X17275952Y-11650667D02*
X17285476Y-11669714D01*
X17285476Y-11669714D02*
X17285476Y-11774476D01*
X17285476Y-11669714D02*
X17295000Y-11650667D01*
X17295000Y-11650667D02*
X17314048Y-11641143D01*
X17314048Y-11641143D02*
X17342619Y-11641143D01*
X17342619Y-11641143D02*
X17361667Y-11650667D01*
X17361667Y-11650667D02*
X17371191Y-11669714D01*
X17371191Y-11669714D02*
X17371191Y-11774476D01*
X17466429Y-11774476D02*
X17466429Y-11641143D01*
X17466429Y-11660190D02*
X17475952Y-11650667D01*
X17475952Y-11650667D02*
X17495000Y-11641143D01*
X17495000Y-11641143D02*
X17523572Y-11641143D01*
X17523572Y-11641143D02*
X17542619Y-11650667D01*
X17542619Y-11650667D02*
X17552143Y-11669714D01*
X17552143Y-11669714D02*
X17552143Y-11774476D01*
X17552143Y-11669714D02*
X17561667Y-11650667D01*
X17561667Y-11650667D02*
X17580714Y-11641143D01*
X17580714Y-11641143D02*
X17609286Y-11641143D01*
X17609286Y-11641143D02*
X17628333Y-11650667D01*
X17628333Y-11650667D02*
X17637857Y-11669714D01*
X17637857Y-11669714D02*
X17637857Y-11774476D01*
X17995952Y-11564952D02*
X17824524Y-11822095D01*
X18220714Y-11574476D02*
X18239762Y-11574476D01*
X18239762Y-11574476D02*
X18258810Y-11584000D01*
X18258810Y-11584000D02*
X18268333Y-11593524D01*
X18268333Y-11593524D02*
X18277857Y-11612571D01*
X18277857Y-11612571D02*
X18287381Y-11650667D01*
X18287381Y-11650667D02*
X18287381Y-11698286D01*
X18287381Y-11698286D02*
X18277857Y-11736381D01*
X18277857Y-11736381D02*
X18268333Y-11755428D01*
X18268333Y-11755428D02*
X18258810Y-11764952D01*
X18258810Y-11764952D02*
X18239762Y-11774476D01*
X18239762Y-11774476D02*
X18220714Y-11774476D01*
X18220714Y-11774476D02*
X18201667Y-11764952D01*
X18201667Y-11764952D02*
X18192143Y-11755428D01*
X18192143Y-11755428D02*
X18182619Y-11736381D01*
X18182619Y-11736381D02*
X18173095Y-11698286D01*
X18173095Y-11698286D02*
X18173095Y-11650667D01*
X18173095Y-11650667D02*
X18182619Y-11612571D01*
X18182619Y-11612571D02*
X18192143Y-11593524D01*
X18192143Y-11593524D02*
X18201667Y-11584000D01*
X18201667Y-11584000D02*
X18220714Y-11574476D01*
X18373095Y-11755428D02*
X18382619Y-11764952D01*
X18382619Y-11764952D02*
X18373095Y-11774476D01*
X18373095Y-11774476D02*
X18363572Y-11764952D01*
X18363572Y-11764952D02*
X18373095Y-11755428D01*
X18373095Y-11755428D02*
X18373095Y-11774476D01*
X18506429Y-11574476D02*
X18525476Y-11574476D01*
X18525476Y-11574476D02*
X18544524Y-11584000D01*
X18544524Y-11584000D02*
X18554048Y-11593524D01*
X18554048Y-11593524D02*
X18563572Y-11612571D01*
X18563572Y-11612571D02*
X18573095Y-11650667D01*
X18573095Y-11650667D02*
X18573095Y-11698286D01*
X18573095Y-11698286D02*
X18563572Y-11736381D01*
X18563572Y-11736381D02*
X18554048Y-11755428D01*
X18554048Y-11755428D02*
X18544524Y-11764952D01*
X18544524Y-11764952D02*
X18525476Y-11774476D01*
X18525476Y-11774476D02*
X18506429Y-11774476D01*
X18506429Y-11774476D02*
X18487381Y-11764952D01*
X18487381Y-11764952D02*
X18477857Y-11755428D01*
X18477857Y-11755428D02*
X18468333Y-11736381D01*
X18468333Y-11736381D02*
X18458810Y-11698286D01*
X18458810Y-11698286D02*
X18458810Y-11650667D01*
X18458810Y-11650667D02*
X18468333Y-11612571D01*
X18468333Y-11612571D02*
X18477857Y-11593524D01*
X18477857Y-11593524D02*
X18487381Y-11584000D01*
X18487381Y-11584000D02*
X18506429Y-11574476D01*
X18639762Y-11574476D02*
X18763572Y-11574476D01*
X18763572Y-11574476D02*
X18696905Y-11650667D01*
X18696905Y-11650667D02*
X18725476Y-11650667D01*
X18725476Y-11650667D02*
X18744524Y-11660190D01*
X18744524Y-11660190D02*
X18754048Y-11669714D01*
X18754048Y-11669714D02*
X18763572Y-11688762D01*
X18763572Y-11688762D02*
X18763572Y-11736381D01*
X18763572Y-11736381D02*
X18754048Y-11755428D01*
X18754048Y-11755428D02*
X18744524Y-11764952D01*
X18744524Y-11764952D02*
X18725476Y-11774476D01*
X18725476Y-11774476D02*
X18668333Y-11774476D01*
X18668333Y-11774476D02*
X18649286Y-11764952D01*
X18649286Y-11764952D02*
X18639762Y-11755428D01*
X18858810Y-11774476D02*
X18896905Y-11774476D01*
X18896905Y-11774476D02*
X18915953Y-11764952D01*
X18915953Y-11764952D02*
X18925476Y-11755428D01*
X18925476Y-11755428D02*
X18944524Y-11726857D01*
X18944524Y-11726857D02*
X18954048Y-11688762D01*
X18954048Y-11688762D02*
X18954048Y-11612571D01*
X18954048Y-11612571D02*
X18944524Y-11593524D01*
X18944524Y-11593524D02*
X18935000Y-11584000D01*
X18935000Y-11584000D02*
X18915953Y-11574476D01*
X18915953Y-11574476D02*
X18877857Y-11574476D01*
X18877857Y-11574476D02*
X18858810Y-11584000D01*
X18858810Y-11584000D02*
X18849286Y-11593524D01*
X18849286Y-11593524D02*
X18839762Y-11612571D01*
X18839762Y-11612571D02*
X18839762Y-11660190D01*
X18839762Y-11660190D02*
X18849286Y-11679238D01*
X18849286Y-11679238D02*
X18858810Y-11688762D01*
X18858810Y-11688762D02*
X18877857Y-11698286D01*
X18877857Y-11698286D02*
X18915953Y-11698286D01*
X18915953Y-11698286D02*
X18935000Y-11688762D01*
X18935000Y-11688762D02*
X18944524Y-11679238D01*
X18944524Y-11679238D02*
X18954048Y-11660190D01*
X19125476Y-11641143D02*
X19125476Y-11774476D01*
X19077857Y-11564952D02*
X19030238Y-11707809D01*
X19030238Y-11707809D02*
X19154048Y-11707809D01*
X19220714Y-11574476D02*
X19220714Y-11612571D01*
X19296905Y-11574476D02*
X19296905Y-11612571D01*
X19559762Y-11850667D02*
X19550238Y-11841143D01*
X19550238Y-11841143D02*
X19531191Y-11812571D01*
X19531191Y-11812571D02*
X19521667Y-11793524D01*
X19521667Y-11793524D02*
X19512143Y-11764952D01*
X19512143Y-11764952D02*
X19502619Y-11717333D01*
X19502619Y-11717333D02*
X19502619Y-11679238D01*
X19502619Y-11679238D02*
X19512143Y-11631619D01*
X19512143Y-11631619D02*
X19521667Y-11603048D01*
X19521667Y-11603048D02*
X19531191Y-11584000D01*
X19531191Y-11584000D02*
X19550238Y-11555428D01*
X19550238Y-11555428D02*
X19559762Y-11545905D01*
X19721667Y-11574476D02*
X19683572Y-11574476D01*
X19683572Y-11574476D02*
X19664524Y-11584000D01*
X19664524Y-11584000D02*
X19655000Y-11593524D01*
X19655000Y-11593524D02*
X19635953Y-11622095D01*
X19635953Y-11622095D02*
X19626429Y-11660190D01*
X19626429Y-11660190D02*
X19626429Y-11736381D01*
X19626429Y-11736381D02*
X19635953Y-11755428D01*
X19635953Y-11755428D02*
X19645476Y-11764952D01*
X19645476Y-11764952D02*
X19664524Y-11774476D01*
X19664524Y-11774476D02*
X19702619Y-11774476D01*
X19702619Y-11774476D02*
X19721667Y-11764952D01*
X19721667Y-11764952D02*
X19731191Y-11755428D01*
X19731191Y-11755428D02*
X19740714Y-11736381D01*
X19740714Y-11736381D02*
X19740714Y-11688762D01*
X19740714Y-11688762D02*
X19731191Y-11669714D01*
X19731191Y-11669714D02*
X19721667Y-11660190D01*
X19721667Y-11660190D02*
X19702619Y-11650667D01*
X19702619Y-11650667D02*
X19664524Y-11650667D01*
X19664524Y-11650667D02*
X19645476Y-11660190D01*
X19645476Y-11660190D02*
X19635953Y-11669714D01*
X19635953Y-11669714D02*
X19626429Y-11688762D01*
X19946429Y-11774476D02*
X19946429Y-11574476D01*
X20032143Y-11774476D02*
X20032143Y-11669714D01*
X20032143Y-11669714D02*
X20022619Y-11650667D01*
X20022619Y-11650667D02*
X20003572Y-11641143D01*
X20003572Y-11641143D02*
X19975000Y-11641143D01*
X19975000Y-11641143D02*
X19955953Y-11650667D01*
X19955953Y-11650667D02*
X19946429Y-11660190D01*
X20155953Y-11774476D02*
X20136905Y-11764952D01*
X20136905Y-11764952D02*
X20127381Y-11755428D01*
X20127381Y-11755428D02*
X20117857Y-11736381D01*
X20117857Y-11736381D02*
X20117857Y-11679238D01*
X20117857Y-11679238D02*
X20127381Y-11660190D01*
X20127381Y-11660190D02*
X20136905Y-11650667D01*
X20136905Y-11650667D02*
X20155953Y-11641143D01*
X20155953Y-11641143D02*
X20184524Y-11641143D01*
X20184524Y-11641143D02*
X20203572Y-11650667D01*
X20203572Y-11650667D02*
X20213095Y-11660190D01*
X20213095Y-11660190D02*
X20222619Y-11679238D01*
X20222619Y-11679238D02*
X20222619Y-11736381D01*
X20222619Y-11736381D02*
X20213095Y-11755428D01*
X20213095Y-11755428D02*
X20203572Y-11764952D01*
X20203572Y-11764952D02*
X20184524Y-11774476D01*
X20184524Y-11774476D02*
X20155953Y-11774476D01*
X20336905Y-11774476D02*
X20317857Y-11764952D01*
X20317857Y-11764952D02*
X20308334Y-11745905D01*
X20308334Y-11745905D02*
X20308334Y-11574476D01*
X20489286Y-11764952D02*
X20470238Y-11774476D01*
X20470238Y-11774476D02*
X20432143Y-11774476D01*
X20432143Y-11774476D02*
X20413095Y-11764952D01*
X20413095Y-11764952D02*
X20403572Y-11745905D01*
X20403572Y-11745905D02*
X20403572Y-11669714D01*
X20403572Y-11669714D02*
X20413095Y-11650667D01*
X20413095Y-11650667D02*
X20432143Y-11641143D01*
X20432143Y-11641143D02*
X20470238Y-11641143D01*
X20470238Y-11641143D02*
X20489286Y-11650667D01*
X20489286Y-11650667D02*
X20498810Y-11669714D01*
X20498810Y-11669714D02*
X20498810Y-11688762D01*
X20498810Y-11688762D02*
X20403572Y-11707809D01*
X20575000Y-11764952D02*
X20594048Y-11774476D01*
X20594048Y-11774476D02*
X20632143Y-11774476D01*
X20632143Y-11774476D02*
X20651191Y-11764952D01*
X20651191Y-11764952D02*
X20660715Y-11745905D01*
X20660715Y-11745905D02*
X20660715Y-11736381D01*
X20660715Y-11736381D02*
X20651191Y-11717333D01*
X20651191Y-11717333D02*
X20632143Y-11707809D01*
X20632143Y-11707809D02*
X20603572Y-11707809D01*
X20603572Y-11707809D02*
X20584524Y-11698286D01*
X20584524Y-11698286D02*
X20575000Y-11679238D01*
X20575000Y-11679238D02*
X20575000Y-11669714D01*
X20575000Y-11669714D02*
X20584524Y-11650667D01*
X20584524Y-11650667D02*
X20603572Y-11641143D01*
X20603572Y-11641143D02*
X20632143Y-11641143D01*
X20632143Y-11641143D02*
X20651191Y-11650667D01*
X20727381Y-11850667D02*
X20736905Y-11841143D01*
X20736905Y-11841143D02*
X20755953Y-11812571D01*
X20755953Y-11812571D02*
X20765476Y-11793524D01*
X20765476Y-11793524D02*
X20775000Y-11764952D01*
X20775000Y-11764952D02*
X20784524Y-11717333D01*
X20784524Y-11717333D02*
X20784524Y-11679238D01*
X20784524Y-11679238D02*
X20775000Y-11631619D01*
X20775000Y-11631619D02*
X20765476Y-11603048D01*
X20765476Y-11603048D02*
X20755953Y-11584000D01*
X20755953Y-11584000D02*
X20736905Y-11555428D01*
X20736905Y-11555428D02*
X20727381Y-11545905D01*
M02*
