%TF.GenerationSoftware,KiCad,Pcbnew,(7.0.0)*%
%TF.CreationDate,2023-06-08T15:27:57+08:00*%
%TF.ProjectId,Board_Car_V0_2,426f6172-645f-4436-9172-5f56305f322e,rev?*%
%TF.SameCoordinates,Original*%
%TF.FileFunction,Copper,L2,Bot*%
%TF.FilePolarity,Positive*%
%FSLAX46Y46*%
G04 Gerber Fmt 4.6, Leading zero omitted, Abs format (unit mm)*
G04 Created by KiCad (PCBNEW (7.0.0)) date 2023-06-08 15:27:57*
%MOMM*%
%LPD*%
G01*
G04 APERTURE LIST*
%TA.AperFunction,ComponentPad*%
%ADD10O,1.700000X1.700000*%
%TD*%
%TA.AperFunction,ComponentPad*%
%ADD11R,1.700000X1.700000*%
%TD*%
%TA.AperFunction,ComponentPad*%
%ADD12O,1.000000X1.600000*%
%TD*%
%TA.AperFunction,ComponentPad*%
%ADD13O,1.000000X2.100000*%
%TD*%
%TA.AperFunction,ViaPad*%
%ADD14C,0.500000*%
%TD*%
%TA.AperFunction,ViaPad*%
%ADD15C,1.000000*%
%TD*%
%TA.AperFunction,ViaPad*%
%ADD16C,0.600000*%
%TD*%
%TA.AperFunction,Conductor*%
%ADD17C,0.200000*%
%TD*%
%TA.AperFunction,Conductor*%
%ADD18C,1.000000*%
%TD*%
%TA.AperFunction,Conductor*%
%ADD19C,0.500000*%
%TD*%
G04 APERTURE END LIST*
D10*
%TO.P,J2,3,Pin_3*%
%TO.N,/PWM6*%
X167893999Y-67309999D03*
%TO.P,J2,2,Pin_2*%
%TO.N,+BATT*%
X165353999Y-67309999D03*
D11*
%TO.P,J2,1,Pin_1*%
%TO.N,GND*%
X162813999Y-67309999D03*
%TD*%
D10*
%TO.P,J1,3,Pin_3*%
%TO.N,/PWM5*%
X167893999Y-69849999D03*
%TO.P,J1,2,Pin_2*%
%TO.N,+BATT*%
X165353999Y-69849999D03*
D11*
%TO.P,J1,1,Pin_1*%
%TO.N,GND*%
X162813999Y-69849999D03*
%TD*%
D12*
%TO.P,USB1,4,SHELL*%
%TO.N,GND*%
X179706999Y-98929999D03*
D13*
%TO.P,USB1,3,SHELL*%
X179706999Y-94749999D03*
D12*
%TO.P,USB1,2,SHELL*%
X171066999Y-98929999D03*
D13*
%TO.P,USB1,1,SHELL*%
X171066999Y-94749999D03*
%TD*%
D14*
%TO.N,GND*%
X199898000Y-88519000D03*
X199771000Y-87376000D03*
X199898000Y-86233000D03*
X199771000Y-85217000D03*
X198755000Y-85598000D03*
X198882000Y-86487000D03*
X198755000Y-87503000D03*
X198755000Y-88392000D03*
X190246000Y-85852000D03*
X190246000Y-86741000D03*
X190246000Y-87630000D03*
X183896000Y-88900000D03*
X183896000Y-89662000D03*
X183896000Y-90424000D03*
X183896000Y-91186000D03*
X172847000Y-91186000D03*
X171958000Y-91186000D03*
X171069000Y-90932000D03*
X171069000Y-90170000D03*
X171069000Y-89408000D03*
X172212000Y-66548000D03*
X172466000Y-65659000D03*
X171323000Y-66294000D03*
X171069000Y-68834000D03*
X171069000Y-68072000D03*
X170688000Y-74168000D03*
X171069000Y-71501000D03*
X171069000Y-70739000D03*
X172466000Y-79883000D03*
X171704000Y-79883000D03*
X170942000Y-80264000D03*
X170942000Y-81026000D03*
X170942000Y-81788000D03*
X170942000Y-82550000D03*
X170942000Y-83312000D03*
X187833000Y-87630000D03*
X188595000Y-87630000D03*
X186309000Y-87630000D03*
X187071000Y-87630000D03*
X187071000Y-86741000D03*
X187833000Y-86741000D03*
X186309000Y-86741000D03*
X188595000Y-86741000D03*
X188595000Y-85852000D03*
X187833000Y-85852000D03*
X187071000Y-85852000D03*
X186309000Y-85852000D03*
X185039000Y-74549000D03*
X185801000Y-74676000D03*
X186436000Y-74168000D03*
X186436000Y-73406000D03*
X186436000Y-72644000D03*
X186182000Y-77216000D03*
X187071000Y-76454000D03*
X187833000Y-76454000D03*
X188595000Y-76581000D03*
X198882000Y-65913000D03*
X197866000Y-66040000D03*
X196723000Y-66040000D03*
X196977000Y-67437000D03*
X197739000Y-68199000D03*
X198755000Y-68199000D03*
X188468000Y-63500000D03*
X189230000Y-63500000D03*
X189992000Y-63500000D03*
X189992000Y-64262000D03*
X188468000Y-64262000D03*
X189230000Y-64262000D03*
X189484000Y-67691000D03*
X189484000Y-67056000D03*
X181356000Y-51181000D03*
X181356000Y-52705000D03*
X181356000Y-51943000D03*
X180594000Y-51181000D03*
X179832000Y-51181000D03*
X179070000Y-51181000D03*
X178308000Y-51181000D03*
X178308000Y-51943000D03*
X178308000Y-52705000D03*
X187198000Y-70485000D03*
X187198000Y-69723000D03*
X185547000Y-70485000D03*
X185547000Y-69723000D03*
X192024000Y-71374000D03*
X192024000Y-72136000D03*
X191262000Y-72136000D03*
X196596000Y-75565000D03*
X196596000Y-76327000D03*
X196596000Y-77089000D03*
X194818000Y-74676000D03*
X194818000Y-75438000D03*
X194818000Y-76200000D03*
X186309000Y-96266000D03*
X186309000Y-95504000D03*
X186309000Y-94742000D03*
X186309000Y-93980000D03*
X188341000Y-97155000D03*
X187452000Y-97155000D03*
X186436000Y-97155000D03*
X179832000Y-89027000D03*
X180594000Y-89027000D03*
X180340000Y-90805000D03*
X179578000Y-91059000D03*
X178689000Y-91059000D03*
X180721000Y-83693000D03*
X179959000Y-83693000D03*
X179197000Y-83693000D03*
X179832000Y-80899000D03*
X179832000Y-80137000D03*
X180594000Y-80137000D03*
X180594000Y-79375000D03*
X177546000Y-78105000D03*
X178308000Y-78105000D03*
X179197000Y-73914000D03*
X180213000Y-73914000D03*
X176149000Y-70866000D03*
X175895000Y-70104000D03*
X175133000Y-68707000D03*
X178435000Y-63881000D03*
X179197000Y-63881000D03*
X179959000Y-63119000D03*
X179197000Y-63119000D03*
X179959000Y-62357000D03*
X180721000Y-62357000D03*
D15*
%TO.N,+BATT*%
X175514000Y-72898000D03*
X175514000Y-80899000D03*
X184150000Y-78486000D03*
%TO.N,+3.3V*%
X176276000Y-66802000D03*
X177000500Y-72898000D03*
D16*
X187706000Y-67691000D03*
X188214000Y-71755000D03*
D14*
%TO.N,/BUZZ*%
X195834000Y-72009000D03*
X190246000Y-62357000D03*
%TO.N,/PWM5*%
X191262000Y-60452000D03*
%TO.N,/PWM6*%
X192405000Y-59817000D03*
%TO.N,/DP*%
X176149000Y-91313000D03*
%TO.N,/DN*%
X175006000Y-91313000D03*
%TO.N,/DP*%
X190373000Y-71628000D03*
%TO.N,/DN*%
X189611000Y-71628000D03*
%TO.N,/PWM4N*%
X184404000Y-64389000D03*
X179070000Y-79756000D03*
%TO.N,/PWM4P*%
X184150000Y-63500000D03*
X178181000Y-79502000D03*
%TO.N,/PWM1N*%
X178435000Y-75946000D03*
X184096630Y-61668630D03*
%TO.N,/PWM1P*%
X183753322Y-61059168D03*
X178435000Y-77216000D03*
%TO.N,/RF24_MOSI*%
X194183000Y-58039000D03*
X181610000Y-56134000D03*
D15*
%TO.N,VBUS*%
X191262000Y-90805000D03*
X178435000Y-92456000D03*
X172974000Y-92456000D03*
%TD*%
D17*
%TO.N,/PWM4N*%
X179070000Y-79756000D02*
X184404000Y-74422000D01*
X184404000Y-74422000D02*
X184404000Y-64389000D01*
%TO.N,/PWM4P*%
X180956000Y-66186000D02*
X183642000Y-63500000D01*
X180956000Y-76727000D02*
X180956000Y-66186000D01*
X183642000Y-63500000D02*
X184150000Y-63500000D01*
X178181000Y-79502000D02*
X180956000Y-76727000D01*
%TO.N,/PWM1P*%
X183415832Y-61059168D02*
X183753322Y-61059168D01*
X177800000Y-66675000D02*
X183415832Y-61059168D01*
X177800000Y-76581000D02*
X177800000Y-66675000D01*
X178435000Y-77216000D02*
X177800000Y-76581000D01*
D18*
%TO.N,+BATT*%
X180086000Y-82550000D02*
X184150000Y-78486000D01*
X175514000Y-80899000D02*
X177165000Y-82550000D01*
X175514000Y-80899000D02*
X175514000Y-72898000D01*
X177165000Y-82550000D02*
X180086000Y-82550000D01*
D17*
%TO.N,/PWM1N*%
X178200000Y-75711000D02*
X178435000Y-75946000D01*
X178200000Y-67037000D02*
X178200000Y-75711000D01*
X183568370Y-61668630D02*
X178200000Y-67037000D01*
X184096630Y-61668630D02*
X183568370Y-61668630D01*
D19*
%TO.N,+3.3V*%
X177000500Y-69839000D02*
X177000500Y-72898000D01*
X176276000Y-69114500D02*
X177000500Y-69839000D01*
X176276000Y-66802000D02*
X176276000Y-69114500D01*
D17*
%TO.N,/PWM6*%
X172690000Y-67310000D02*
X167894000Y-67310000D01*
X192405000Y-59817000D02*
X180183000Y-59817000D01*
X180183000Y-59817000D02*
X172690000Y-67310000D01*
%TO.N,/PWM5*%
X180548000Y-60452000D02*
X171150000Y-69850000D01*
X191262000Y-60452000D02*
X180548000Y-60452000D01*
X171150000Y-69850000D02*
X167894000Y-69850000D01*
D18*
%TO.N,+BATT*%
X165354000Y-69850000D02*
X165354000Y-67310000D01*
X165354000Y-71628000D02*
X165354000Y-69850000D01*
X166624000Y-72898000D02*
X165354000Y-71628000D01*
X175514000Y-72898000D02*
X166624000Y-72898000D01*
D19*
%TO.N,+3.3V*%
X188214000Y-68199000D02*
X188214000Y-71755000D01*
X187706000Y-67691000D02*
X188214000Y-68199000D01*
D17*
%TO.N,/BUZZ*%
X195834000Y-67945000D02*
X190246000Y-62357000D01*
X195834000Y-72009000D02*
X195834000Y-67945000D01*
%TO.N,/DP*%
X190373000Y-77089000D02*
X176149000Y-91313000D01*
X190373000Y-71628000D02*
X190373000Y-77089000D01*
%TO.N,/DN*%
X189611000Y-76708000D02*
X175006000Y-91313000D01*
X189611000Y-71628000D02*
X189611000Y-76708000D01*
%TO.N,/RF24_MOSI*%
X192278000Y-56134000D02*
X194183000Y-58039000D01*
X181610000Y-56134000D02*
X192278000Y-56134000D01*
D18*
%TO.N,VBUS*%
X189611000Y-92456000D02*
X191262000Y-90805000D01*
X178435000Y-92456000D02*
X189611000Y-92456000D01*
X172974000Y-92456000D02*
X178435000Y-92456000D01*
%TD*%
%TA.AperFunction,Conductor*%
%TO.N,GND*%
G36*
X195435679Y-48018142D02*
G01*
X195481288Y-48066047D01*
X195495781Y-48130584D01*
X195475032Y-48193391D01*
X195424947Y-48236595D01*
X195079258Y-48400092D01*
X195079235Y-48400104D01*
X195076506Y-48401395D01*
X195073897Y-48402958D01*
X195073889Y-48402963D01*
X194735648Y-48605697D01*
X194735638Y-48605703D01*
X194733043Y-48607259D01*
X194730616Y-48609058D01*
X194730607Y-48609065D01*
X194413855Y-48843985D01*
X194411412Y-48845797D01*
X194409160Y-48847837D01*
X194409154Y-48847843D01*
X194116963Y-49112669D01*
X194116953Y-49112678D01*
X194114711Y-49114711D01*
X194112678Y-49116953D01*
X194112669Y-49116963D01*
X193847843Y-49409154D01*
X193847837Y-49409160D01*
X193845797Y-49411412D01*
X193843986Y-49413853D01*
X193843985Y-49413855D01*
X193609065Y-49730607D01*
X193609058Y-49730616D01*
X193607259Y-49733043D01*
X193605703Y-49735638D01*
X193605697Y-49735648D01*
X193402963Y-50073889D01*
X193402958Y-50073897D01*
X193401395Y-50076506D01*
X193400104Y-50079235D01*
X193400092Y-50079258D01*
X193231490Y-50435738D01*
X193231482Y-50435755D01*
X193230188Y-50438493D01*
X193229159Y-50441366D01*
X193229158Y-50441371D01*
X193145649Y-50674764D01*
X193095286Y-50815518D01*
X193094549Y-50818459D01*
X193094546Y-50818470D01*
X192998728Y-51200999D01*
X192997989Y-51203951D01*
X192997545Y-51206939D01*
X192997542Y-51206958D01*
X192939679Y-51597036D01*
X192939677Y-51597054D01*
X192939233Y-51600049D01*
X192939084Y-51603075D01*
X192939083Y-51603089D01*
X192933629Y-51714118D01*
X192919585Y-52000000D01*
X192919734Y-52003033D01*
X192939083Y-52396910D01*
X192939084Y-52396922D01*
X192939233Y-52399951D01*
X192939677Y-52402947D01*
X192939679Y-52402963D01*
X192997542Y-52793041D01*
X192997545Y-52793056D01*
X192997989Y-52796049D01*
X192998727Y-52798996D01*
X192998728Y-52799000D01*
X193092873Y-53174851D01*
X193095286Y-53184482D01*
X193230188Y-53561507D01*
X193231486Y-53564251D01*
X193231490Y-53564261D01*
X193400092Y-53920741D01*
X193400100Y-53920756D01*
X193401395Y-53923494D01*
X193607259Y-54266957D01*
X193845797Y-54588588D01*
X194114711Y-54885289D01*
X194411412Y-55154203D01*
X194733043Y-55392741D01*
X195076506Y-55598605D01*
X195079251Y-55599903D01*
X195079258Y-55599907D01*
X195261285Y-55685999D01*
X195438493Y-55769812D01*
X195815518Y-55904714D01*
X196203951Y-56002011D01*
X196600049Y-56060767D01*
X197000000Y-56080415D01*
X197399951Y-56060767D01*
X197796049Y-56002011D01*
X198184482Y-55904714D01*
X198561507Y-55769812D01*
X198923494Y-55598605D01*
X199266957Y-55392741D01*
X199588588Y-55154203D01*
X199885289Y-54885289D01*
X200154203Y-54588588D01*
X200392741Y-54266957D01*
X200598605Y-53923494D01*
X200763405Y-53575052D01*
X200806609Y-53524968D01*
X200869416Y-53504219D01*
X200933953Y-53518712D01*
X200981858Y-53564321D01*
X200999500Y-53628070D01*
X200999500Y-94371930D01*
X200981858Y-94435679D01*
X200933953Y-94481288D01*
X200869416Y-94495781D01*
X200806609Y-94475032D01*
X200763405Y-94424947D01*
X200599907Y-94079258D01*
X200599903Y-94079251D01*
X200598605Y-94076506D01*
X200392741Y-93733043D01*
X200154203Y-93411412D01*
X199885289Y-93114711D01*
X199588588Y-92845797D01*
X199266957Y-92607259D01*
X198923494Y-92401395D01*
X198920756Y-92400100D01*
X198920741Y-92400092D01*
X198564261Y-92231490D01*
X198564251Y-92231486D01*
X198561507Y-92230188D01*
X198184482Y-92095286D01*
X198181534Y-92094547D01*
X198181529Y-92094546D01*
X197799000Y-91998728D01*
X197798996Y-91998727D01*
X197796049Y-91997989D01*
X197793056Y-91997545D01*
X197793041Y-91997542D01*
X197402963Y-91939679D01*
X197402947Y-91939677D01*
X197399951Y-91939233D01*
X197396922Y-91939084D01*
X197396910Y-91939083D01*
X197003033Y-91919734D01*
X197000000Y-91919585D01*
X196996967Y-91919734D01*
X196603089Y-91939083D01*
X196603075Y-91939084D01*
X196600049Y-91939233D01*
X196597054Y-91939677D01*
X196597036Y-91939679D01*
X196206958Y-91997542D01*
X196206939Y-91997545D01*
X196203951Y-91997989D01*
X196201007Y-91998726D01*
X196200999Y-91998728D01*
X195818470Y-92094546D01*
X195818459Y-92094549D01*
X195815518Y-92095286D01*
X195812651Y-92096311D01*
X195812647Y-92096313D01*
X195441371Y-92229158D01*
X195441366Y-92229159D01*
X195438493Y-92230188D01*
X195435755Y-92231482D01*
X195435738Y-92231490D01*
X195079258Y-92400092D01*
X195079235Y-92400104D01*
X195076506Y-92401395D01*
X195073897Y-92402958D01*
X195073889Y-92402963D01*
X194735648Y-92605697D01*
X194735638Y-92605703D01*
X194733043Y-92607259D01*
X194730616Y-92609058D01*
X194730607Y-92609065D01*
X194413855Y-92843985D01*
X194411412Y-92845797D01*
X194409160Y-92847837D01*
X194409154Y-92847843D01*
X194116963Y-93112669D01*
X194116953Y-93112678D01*
X194114711Y-93114711D01*
X194112678Y-93116953D01*
X194112669Y-93116963D01*
X193847843Y-93409154D01*
X193847837Y-93409160D01*
X193845797Y-93411412D01*
X193843986Y-93413853D01*
X193843985Y-93413855D01*
X193609065Y-93730607D01*
X193609058Y-93730616D01*
X193607259Y-93733043D01*
X193605703Y-93735638D01*
X193605697Y-93735648D01*
X193402963Y-94073889D01*
X193402958Y-94073897D01*
X193401395Y-94076506D01*
X193400104Y-94079235D01*
X193400092Y-94079258D01*
X193231490Y-94435738D01*
X193231482Y-94435755D01*
X193230188Y-94438493D01*
X193229159Y-94441366D01*
X193229158Y-94441371D01*
X193145649Y-94674764D01*
X193095286Y-94815518D01*
X193094549Y-94818459D01*
X193094546Y-94818470D01*
X192998728Y-95200999D01*
X192997989Y-95203951D01*
X192997545Y-95206939D01*
X192997542Y-95206958D01*
X192939679Y-95597036D01*
X192939677Y-95597054D01*
X192939233Y-95600049D01*
X192939084Y-95603075D01*
X192939083Y-95603089D01*
X192928157Y-95825500D01*
X192919585Y-96000000D01*
X192919734Y-96003033D01*
X192939083Y-96396910D01*
X192939084Y-96396922D01*
X192939233Y-96399951D01*
X192939677Y-96402947D01*
X192939679Y-96402963D01*
X192997542Y-96793041D01*
X192997545Y-96793056D01*
X192997989Y-96796049D01*
X192998727Y-96798996D01*
X192998728Y-96799000D01*
X193092873Y-97174851D01*
X193095286Y-97184482D01*
X193230188Y-97561507D01*
X193231486Y-97564251D01*
X193231490Y-97564261D01*
X193400092Y-97920741D01*
X193400100Y-97920756D01*
X193401395Y-97923494D01*
X193607259Y-98266957D01*
X193845797Y-98588588D01*
X194114711Y-98885289D01*
X194411412Y-99154203D01*
X194733043Y-99392741D01*
X195076506Y-99598605D01*
X195079251Y-99599903D01*
X195079258Y-99599907D01*
X195424947Y-99763405D01*
X195475032Y-99806609D01*
X195495781Y-99869416D01*
X195481288Y-99933953D01*
X195435679Y-99981858D01*
X195371930Y-99999500D01*
X166628070Y-99999500D01*
X166564321Y-99981858D01*
X166518712Y-99933953D01*
X166504219Y-99869416D01*
X166524968Y-99806609D01*
X166575053Y-99763405D01*
X166746978Y-99682091D01*
X166923494Y-99598605D01*
X167266957Y-99392741D01*
X167588588Y-99154203D01*
X167885289Y-98885289D01*
X168154203Y-98588588D01*
X168392741Y-98266957D01*
X168598605Y-97923494D01*
X168621514Y-97875056D01*
X183224500Y-97875056D01*
X183226293Y-97882332D01*
X183226294Y-97882337D01*
X183251594Y-97984984D01*
X183265210Y-98040225D01*
X183268693Y-98046862D01*
X183268695Y-98046866D01*
X183296542Y-98099923D01*
X183344266Y-98190852D01*
X183457071Y-98318183D01*
X183597070Y-98414818D01*
X183756128Y-98475140D01*
X183882628Y-98490500D01*
X183963623Y-98490500D01*
X183967372Y-98490500D01*
X184093872Y-98475140D01*
X184252930Y-98414818D01*
X184392929Y-98318183D01*
X184505734Y-98190852D01*
X184584790Y-98040225D01*
X184625500Y-97875056D01*
X190024500Y-97875056D01*
X190026293Y-97882332D01*
X190026294Y-97882337D01*
X190051594Y-97984984D01*
X190065210Y-98040225D01*
X190068693Y-98046862D01*
X190068695Y-98046866D01*
X190096542Y-98099923D01*
X190144266Y-98190852D01*
X190257071Y-98318183D01*
X190397070Y-98414818D01*
X190556128Y-98475140D01*
X190682628Y-98490500D01*
X190763623Y-98490500D01*
X190767372Y-98490500D01*
X190893872Y-98475140D01*
X191052930Y-98414818D01*
X191192929Y-98318183D01*
X191305734Y-98190852D01*
X191384790Y-98040225D01*
X191425500Y-97875056D01*
X191425500Y-97704944D01*
X191384790Y-97539775D01*
X191305734Y-97389148D01*
X191192929Y-97261817D01*
X191186760Y-97257558D01*
X191186758Y-97257557D01*
X191059106Y-97169445D01*
X191059105Y-97169444D01*
X191052930Y-97165182D01*
X191045915Y-97162521D01*
X191045912Y-97162520D01*
X190900888Y-97107520D01*
X190900882Y-97107518D01*
X190893872Y-97104860D01*
X190886427Y-97103956D01*
X190886423Y-97103955D01*
X190771092Y-97089951D01*
X190771080Y-97089950D01*
X190767372Y-97089500D01*
X190682628Y-97089500D01*
X190678920Y-97089950D01*
X190678907Y-97089951D01*
X190563576Y-97103955D01*
X190563570Y-97103956D01*
X190556128Y-97104860D01*
X190549119Y-97107517D01*
X190549111Y-97107520D01*
X190404087Y-97162520D01*
X190404081Y-97162523D01*
X190397070Y-97165182D01*
X190390897Y-97169442D01*
X190390893Y-97169445D01*
X190263241Y-97257557D01*
X190263235Y-97257562D01*
X190257071Y-97261817D01*
X190252099Y-97267428D01*
X190252098Y-97267430D01*
X190149241Y-97383531D01*
X190149236Y-97383537D01*
X190144266Y-97389148D01*
X190140780Y-97395788D01*
X190140779Y-97395791D01*
X190068695Y-97533133D01*
X190068692Y-97533140D01*
X190065210Y-97539775D01*
X190063416Y-97547050D01*
X190063415Y-97547055D01*
X190026294Y-97697662D01*
X190026293Y-97697668D01*
X190024500Y-97704944D01*
X190024500Y-97875056D01*
X184625500Y-97875056D01*
X184625500Y-97704944D01*
X184584790Y-97539775D01*
X184505734Y-97389148D01*
X184392929Y-97261817D01*
X184386760Y-97257558D01*
X184386758Y-97257557D01*
X184259106Y-97169445D01*
X184259105Y-97169444D01*
X184252930Y-97165182D01*
X184245915Y-97162521D01*
X184245912Y-97162520D01*
X184100888Y-97107520D01*
X184100882Y-97107518D01*
X184093872Y-97104860D01*
X184086427Y-97103956D01*
X184086423Y-97103955D01*
X183971092Y-97089951D01*
X183971080Y-97089950D01*
X183967372Y-97089500D01*
X183882628Y-97089500D01*
X183878920Y-97089950D01*
X183878907Y-97089951D01*
X183763576Y-97103955D01*
X183763570Y-97103956D01*
X183756128Y-97104860D01*
X183749119Y-97107517D01*
X183749111Y-97107520D01*
X183604087Y-97162520D01*
X183604081Y-97162523D01*
X183597070Y-97165182D01*
X183590897Y-97169442D01*
X183590893Y-97169445D01*
X183463241Y-97257557D01*
X183463235Y-97257562D01*
X183457071Y-97261817D01*
X183452099Y-97267428D01*
X183452098Y-97267430D01*
X183349241Y-97383531D01*
X183349236Y-97383537D01*
X183344266Y-97389148D01*
X183340780Y-97395788D01*
X183340779Y-97395791D01*
X183268695Y-97533133D01*
X183268692Y-97533140D01*
X183265210Y-97539775D01*
X183263416Y-97547050D01*
X183263415Y-97547055D01*
X183226294Y-97697662D01*
X183226293Y-97697668D01*
X183224500Y-97704944D01*
X183224500Y-97875056D01*
X168621514Y-97875056D01*
X168769812Y-97561507D01*
X168904714Y-97184482D01*
X169002011Y-96796049D01*
X169060767Y-96399951D01*
X169080415Y-96000000D01*
X169060767Y-95600049D01*
X169008842Y-95250000D01*
X171916534Y-95250000D01*
X171917595Y-95258059D01*
X171935251Y-95392176D01*
X171935252Y-95392182D01*
X171936313Y-95400236D01*
X171939422Y-95407742D01*
X171939423Y-95407745D01*
X171949457Y-95431968D01*
X171994302Y-95540233D01*
X171999245Y-95546674D01*
X171999248Y-95546680D01*
X172042438Y-95602965D01*
X172086549Y-95660451D01*
X172092991Y-95665394D01*
X172200319Y-95747751D01*
X172200322Y-95747753D01*
X172206767Y-95752698D01*
X172346764Y-95810687D01*
X172459280Y-95825500D01*
X172530667Y-95825500D01*
X172534720Y-95825500D01*
X172647236Y-95810687D01*
X172787233Y-95752698D01*
X172907451Y-95660451D01*
X172999698Y-95540233D01*
X173057687Y-95400236D01*
X173077466Y-95250000D01*
X177696534Y-95250000D01*
X177697595Y-95258059D01*
X177715251Y-95392176D01*
X177715252Y-95392182D01*
X177716313Y-95400236D01*
X177719422Y-95407742D01*
X177719423Y-95407745D01*
X177729457Y-95431968D01*
X177774302Y-95540233D01*
X177779245Y-95546674D01*
X177779248Y-95546680D01*
X177822438Y-95602965D01*
X177866549Y-95660451D01*
X177872991Y-95665394D01*
X177980319Y-95747751D01*
X177980322Y-95747753D01*
X177986767Y-95752698D01*
X178126764Y-95810687D01*
X178239280Y-95825500D01*
X178310667Y-95825500D01*
X178314720Y-95825500D01*
X178427236Y-95810687D01*
X178567233Y-95752698D01*
X178687451Y-95660451D01*
X178779698Y-95540233D01*
X178837687Y-95400236D01*
X178857466Y-95250000D01*
X178837687Y-95099764D01*
X178779698Y-94959767D01*
X178774753Y-94953322D01*
X178774751Y-94953319D01*
X178692394Y-94845991D01*
X178687451Y-94839549D01*
X178668685Y-94825149D01*
X178573680Y-94752248D01*
X178573674Y-94752245D01*
X178567233Y-94747302D01*
X178559724Y-94744191D01*
X178559723Y-94744191D01*
X178434745Y-94692423D01*
X178434742Y-94692422D01*
X178427236Y-94689313D01*
X178419182Y-94688252D01*
X178419176Y-94688251D01*
X178318739Y-94675029D01*
X178318737Y-94675028D01*
X178314720Y-94674500D01*
X178239280Y-94674500D01*
X178235263Y-94675028D01*
X178235260Y-94675029D01*
X178134823Y-94688251D01*
X178134815Y-94688252D01*
X178126764Y-94689313D01*
X178119259Y-94692421D01*
X178119254Y-94692423D01*
X177994276Y-94744191D01*
X177994272Y-94744193D01*
X177986767Y-94747302D01*
X177980328Y-94752242D01*
X177980319Y-94752248D01*
X177872991Y-94834605D01*
X177872987Y-94834608D01*
X177866549Y-94839549D01*
X177861608Y-94845987D01*
X177861605Y-94845991D01*
X177779248Y-94953319D01*
X177779242Y-94953328D01*
X177774302Y-94959767D01*
X177771193Y-94967272D01*
X177771191Y-94967276D01*
X177719423Y-95092254D01*
X177719421Y-95092259D01*
X177716313Y-95099764D01*
X177715252Y-95107815D01*
X177715251Y-95107823D01*
X177697760Y-95240683D01*
X177696534Y-95250000D01*
X173077466Y-95250000D01*
X173057687Y-95099764D01*
X172999698Y-94959767D01*
X172994753Y-94953322D01*
X172994751Y-94953319D01*
X172912394Y-94845991D01*
X172907451Y-94839549D01*
X172888685Y-94825149D01*
X172793680Y-94752248D01*
X172793674Y-94752245D01*
X172787233Y-94747302D01*
X172779724Y-94744191D01*
X172779723Y-94744191D01*
X172654745Y-94692423D01*
X172654742Y-94692422D01*
X172647236Y-94689313D01*
X172639182Y-94688252D01*
X172639176Y-94688251D01*
X172538739Y-94675029D01*
X172538737Y-94675028D01*
X172534720Y-94674500D01*
X172459280Y-94674500D01*
X172455263Y-94675028D01*
X172455260Y-94675029D01*
X172354823Y-94688251D01*
X172354815Y-94688252D01*
X172346764Y-94689313D01*
X172339259Y-94692421D01*
X172339254Y-94692423D01*
X172214276Y-94744191D01*
X172214272Y-94744193D01*
X172206767Y-94747302D01*
X172200328Y-94752242D01*
X172200319Y-94752248D01*
X172092991Y-94834605D01*
X172092987Y-94834608D01*
X172086549Y-94839549D01*
X172081608Y-94845987D01*
X172081605Y-94845991D01*
X171999248Y-94953319D01*
X171999242Y-94953328D01*
X171994302Y-94959767D01*
X171991193Y-94967272D01*
X171991191Y-94967276D01*
X171939423Y-95092254D01*
X171939421Y-95092259D01*
X171936313Y-95099764D01*
X171935252Y-95107815D01*
X171935251Y-95107823D01*
X171917760Y-95240683D01*
X171916534Y-95250000D01*
X169008842Y-95250000D01*
X169002011Y-95203951D01*
X168904714Y-94815518D01*
X168769812Y-94438493D01*
X168738330Y-94371930D01*
X168599907Y-94079258D01*
X168599903Y-94079251D01*
X168598605Y-94076506D01*
X168392741Y-93733043D01*
X168154203Y-93411412D01*
X167885289Y-93114711D01*
X167588588Y-92845797D01*
X167266957Y-92607259D01*
X167014597Y-92456000D01*
X172268355Y-92456000D01*
X172269259Y-92463445D01*
X172272596Y-92490927D01*
X172273500Y-92505874D01*
X172273500Y-92541056D01*
X172275293Y-92548333D01*
X172275294Y-92548336D01*
X172281920Y-92575219D01*
X172284617Y-92589941D01*
X172287954Y-92617422D01*
X172287956Y-92617432D01*
X172288860Y-92624872D01*
X172291517Y-92631878D01*
X172291518Y-92631882D01*
X172301337Y-92657773D01*
X172305789Y-92672063D01*
X172314210Y-92706225D01*
X172317695Y-92712865D01*
X172330559Y-92737376D01*
X172336702Y-92751026D01*
X172346521Y-92776915D01*
X172349182Y-92783930D01*
X172353442Y-92790101D01*
X172369173Y-92812892D01*
X172376917Y-92825703D01*
X172389778Y-92850208D01*
X172389781Y-92850213D01*
X172393266Y-92856852D01*
X172416591Y-92883181D01*
X172425824Y-92894966D01*
X172441553Y-92917753D01*
X172441556Y-92917757D01*
X172445817Y-92923929D01*
X172451430Y-92928901D01*
X172451433Y-92928905D01*
X172472149Y-92947257D01*
X172482740Y-92957848D01*
X172501096Y-92978568D01*
X172501098Y-92978570D01*
X172506071Y-92984183D01*
X172535034Y-93004175D01*
X172546813Y-93013404D01*
X172554796Y-93020476D01*
X172573148Y-93036734D01*
X172604297Y-93053082D01*
X172617112Y-93060829D01*
X172646070Y-93080818D01*
X172678982Y-93093299D01*
X172692609Y-93099432D01*
X172723775Y-93115790D01*
X172757952Y-93124213D01*
X172772228Y-93128663D01*
X172805128Y-93141140D01*
X172840055Y-93145380D01*
X172854779Y-93148078D01*
X172888944Y-93156500D01*
X172931628Y-93156500D01*
X173059056Y-93156500D01*
X178349944Y-93156500D01*
X178392628Y-93156500D01*
X178477372Y-93156500D01*
X178520056Y-93156500D01*
X189586079Y-93156500D01*
X189593566Y-93156725D01*
X189653606Y-93160358D01*
X189712782Y-93149513D01*
X189720181Y-93148387D01*
X189779872Y-93141140D01*
X189789332Y-93137551D01*
X189810959Y-93131522D01*
X189820932Y-93129695D01*
X189875808Y-93104996D01*
X189882673Y-93102152D01*
X189938930Y-93080818D01*
X189947264Y-93075064D01*
X189966821Y-93064034D01*
X189976057Y-93059878D01*
X190023413Y-93022775D01*
X190029420Y-93018355D01*
X190078929Y-92984183D01*
X190118822Y-92939151D01*
X190123924Y-92933731D01*
X191739723Y-91317931D01*
X191745142Y-91312829D01*
X191790183Y-91272929D01*
X191824366Y-91223405D01*
X191828779Y-91217407D01*
X191865878Y-91170056D01*
X191870034Y-91160820D01*
X191881061Y-91141269D01*
X191886818Y-91132930D01*
X191908147Y-91076686D01*
X191911001Y-91069795D01*
X191935695Y-91014931D01*
X191937522Y-91004957D01*
X191943548Y-90983340D01*
X191947140Y-90973872D01*
X191954387Y-90914175D01*
X191955510Y-90906798D01*
X191966358Y-90847606D01*
X191965746Y-90837495D01*
X191966424Y-90815046D01*
X191967645Y-90805000D01*
X191960392Y-90745273D01*
X191959716Y-90737830D01*
X191958759Y-90722002D01*
X191956086Y-90677804D01*
X191953071Y-90668128D01*
X191948361Y-90646188D01*
X191947140Y-90636128D01*
X191925806Y-90579876D01*
X191923372Y-90572820D01*
X191907708Y-90522552D01*
X191905478Y-90515394D01*
X191900233Y-90506718D01*
X191890410Y-90486543D01*
X191886818Y-90477070D01*
X191852636Y-90427549D01*
X191848586Y-90421284D01*
X191821351Y-90376231D01*
X191821349Y-90376229D01*
X191817472Y-90369815D01*
X191810306Y-90362649D01*
X191795936Y-90345406D01*
X191794442Y-90343242D01*
X191790183Y-90337071D01*
X191745170Y-90297193D01*
X191739716Y-90292059D01*
X191702488Y-90254831D01*
X191702488Y-90254830D01*
X191697185Y-90249528D01*
X191690682Y-90245597D01*
X191688503Y-90244279D01*
X191670434Y-90230983D01*
X191668464Y-90229237D01*
X191668459Y-90229234D01*
X191662852Y-90224266D01*
X191609590Y-90196311D01*
X191603096Y-90192648D01*
X191551606Y-90161522D01*
X191544446Y-90159290D01*
X191544444Y-90159290D01*
X191541925Y-90158505D01*
X191521198Y-90149919D01*
X191518871Y-90148697D01*
X191518862Y-90148693D01*
X191512225Y-90145210D01*
X191468290Y-90134381D01*
X191453823Y-90130815D01*
X191446610Y-90128804D01*
X191396355Y-90113144D01*
X191396349Y-90113142D01*
X191389196Y-90110914D01*
X191381713Y-90110461D01*
X191381708Y-90110460D01*
X191379072Y-90110301D01*
X191356911Y-90106928D01*
X191354338Y-90106294D01*
X191354333Y-90106293D01*
X191347056Y-90104500D01*
X191339559Y-90104500D01*
X191286921Y-90104500D01*
X191279433Y-90104274D01*
X191226881Y-90101094D01*
X191226873Y-90101094D01*
X191219394Y-90100642D01*
X191212017Y-90101993D01*
X191212014Y-90101994D01*
X191209424Y-90102469D01*
X191187073Y-90104500D01*
X191176944Y-90104500D01*
X191169664Y-90106294D01*
X191169658Y-90106295D01*
X191118560Y-90118889D01*
X191111240Y-90120461D01*
X191059438Y-90129954D01*
X191059433Y-90129955D01*
X191052069Y-90131305D01*
X191045237Y-90134379D01*
X191045232Y-90134381D01*
X191042819Y-90135467D01*
X191021618Y-90142783D01*
X191019057Y-90143414D01*
X191019050Y-90143416D01*
X191011775Y-90145210D01*
X191005137Y-90148693D01*
X191005131Y-90148696D01*
X190958522Y-90173158D01*
X190951792Y-90176436D01*
X190903780Y-90198045D01*
X190903778Y-90198046D01*
X190896944Y-90201122D01*
X190891045Y-90205742D01*
X190891037Y-90205748D01*
X190888959Y-90207377D01*
X190870131Y-90219550D01*
X190867795Y-90220775D01*
X190867782Y-90220783D01*
X190861148Y-90224266D01*
X190855537Y-90229236D01*
X190855528Y-90229243D01*
X190816120Y-90264155D01*
X190810374Y-90268944D01*
X190799590Y-90277393D01*
X190799579Y-90277402D01*
X190796634Y-90279710D01*
X190793991Y-90282351D01*
X190793976Y-90282366D01*
X190784292Y-90292050D01*
X190778847Y-90297176D01*
X190739427Y-90332099D01*
X190739419Y-90332107D01*
X190733817Y-90337071D01*
X190729561Y-90343236D01*
X190729556Y-90343242D01*
X190728053Y-90345420D01*
X190713691Y-90362651D01*
X189357162Y-91719181D01*
X189316934Y-91746061D01*
X189269481Y-91755500D01*
X178520056Y-91755500D01*
X178477372Y-91755500D01*
X176631229Y-91755500D01*
X176567956Y-91738142D01*
X176522397Y-91690927D01*
X176507308Y-91627075D01*
X176526748Y-91564987D01*
X176531882Y-91559063D01*
X176548204Y-91523321D01*
X176562901Y-91498987D01*
X176567883Y-91492543D01*
X176739993Y-91155508D01*
X176762742Y-91124227D01*
X190548823Y-77338146D01*
X190551522Y-77335798D01*
X190557228Y-77332958D01*
X190588487Y-77298667D01*
X190592402Y-77294567D01*
X190605174Y-77281797D01*
X190608422Y-77277054D01*
X190608965Y-77276401D01*
X190612733Y-77272072D01*
X190625174Y-77258425D01*
X190625173Y-77258425D01*
X190632916Y-77249933D01*
X190637067Y-77239214D01*
X190641070Y-77232751D01*
X190643088Y-77228923D01*
X190646162Y-77221960D01*
X190652657Y-77212480D01*
X190658774Y-77186471D01*
X190663843Y-77170097D01*
X190673500Y-77145173D01*
X190673500Y-77133680D01*
X190674895Y-77126218D01*
X190675396Y-77121904D01*
X190675747Y-77114308D01*
X190678379Y-77103119D01*
X190674689Y-77076667D01*
X190673500Y-77059535D01*
X190673500Y-72195473D01*
X190679534Y-72157262D01*
X190723897Y-72020305D01*
X190796152Y-71797238D01*
X190796885Y-71791505D01*
X190797229Y-71789971D01*
X190805442Y-71765542D01*
X190809697Y-71756226D01*
X190828133Y-71628000D01*
X190809697Y-71499774D01*
X190755882Y-71381937D01*
X190671049Y-71284033D01*
X190663589Y-71279238D01*
X190663587Y-71279237D01*
X190616559Y-71249014D01*
X190562069Y-71213996D01*
X190553555Y-71211496D01*
X190446284Y-71179999D01*
X190446282Y-71179998D01*
X190437772Y-71177500D01*
X190308228Y-71177500D01*
X190299718Y-71179998D01*
X190299715Y-71179999D01*
X190192444Y-71211496D01*
X190192441Y-71211497D01*
X190183931Y-71213996D01*
X190176468Y-71218791D01*
X190176468Y-71218792D01*
X190082408Y-71279240D01*
X190082404Y-71279242D01*
X190074951Y-71284033D01*
X190071375Y-71288159D01*
X190021233Y-71314009D01*
X189962767Y-71314009D01*
X189912624Y-71288159D01*
X189909049Y-71284033D01*
X189800069Y-71213996D01*
X189791555Y-71211496D01*
X189684284Y-71179999D01*
X189684282Y-71179998D01*
X189675772Y-71177500D01*
X189546228Y-71177500D01*
X189537718Y-71179998D01*
X189537715Y-71179999D01*
X189430444Y-71211496D01*
X189430441Y-71211497D01*
X189421931Y-71213996D01*
X189414468Y-71218791D01*
X189414468Y-71218792D01*
X189320412Y-71279237D01*
X189320409Y-71279240D01*
X189312951Y-71284033D01*
X189307146Y-71290732D01*
X189307143Y-71290735D01*
X189233922Y-71375237D01*
X189233917Y-71375243D01*
X189228118Y-71381937D01*
X189224438Y-71389994D01*
X189224434Y-71390001D01*
X189183453Y-71479738D01*
X189174303Y-71499774D01*
X189173041Y-71508547D01*
X189173040Y-71508553D01*
X189162533Y-71581634D01*
X189155867Y-71628000D01*
X189174303Y-71756226D01*
X189178559Y-71765547D01*
X189186769Y-71789965D01*
X189187114Y-71791509D01*
X189187848Y-71797238D01*
X189189625Y-71802724D01*
X189189626Y-71802728D01*
X189304466Y-72157259D01*
X189310500Y-72195470D01*
X189310500Y-76532167D01*
X189301061Y-76579620D01*
X189274181Y-76619848D01*
X175194778Y-90699249D01*
X175163492Y-90722002D01*
X174831581Y-90891498D01*
X174831574Y-90891502D01*
X174826452Y-90894118D01*
X174823683Y-90896257D01*
X174820645Y-90897904D01*
X174816931Y-90898996D01*
X174809484Y-90903781D01*
X174809477Y-90903785D01*
X174715412Y-90964237D01*
X174715406Y-90964241D01*
X174707951Y-90969033D01*
X174702146Y-90975732D01*
X174702143Y-90975735D01*
X174628922Y-91060237D01*
X174628917Y-91060243D01*
X174623118Y-91066937D01*
X174619438Y-91074994D01*
X174619434Y-91075001D01*
X174572988Y-91176704D01*
X174569303Y-91184774D01*
X174568041Y-91193547D01*
X174568040Y-91193553D01*
X174556628Y-91272929D01*
X174550867Y-91313000D01*
X174552129Y-91321777D01*
X174568040Y-91432446D01*
X174568041Y-91432450D01*
X174569303Y-91441226D01*
X174623118Y-91559063D01*
X174628252Y-91564988D01*
X174647692Y-91627076D01*
X174632603Y-91690928D01*
X174587044Y-91738142D01*
X174523771Y-91755500D01*
X173059056Y-91755500D01*
X172888944Y-91755500D01*
X172881669Y-91757293D01*
X172881661Y-91757294D01*
X172854779Y-91763920D01*
X172840058Y-91766617D01*
X172812581Y-91769953D01*
X172812565Y-91769956D01*
X172805128Y-91770860D01*
X172798114Y-91773519D01*
X172798109Y-91773521D01*
X172772226Y-91783336D01*
X172757941Y-91787787D01*
X172731059Y-91794413D01*
X172731047Y-91794417D01*
X172723775Y-91796210D01*
X172717145Y-91799689D01*
X172717133Y-91799694D01*
X172692614Y-91812563D01*
X172678965Y-91818705D01*
X172646070Y-91831182D01*
X172639907Y-91835435D01*
X172639899Y-91835440D01*
X172617107Y-91851172D01*
X172604301Y-91858913D01*
X172579790Y-91871778D01*
X172579778Y-91871785D01*
X172573148Y-91875266D01*
X172567539Y-91880234D01*
X172567533Y-91880239D01*
X172546807Y-91898599D01*
X172535029Y-91907827D01*
X172512243Y-91923556D01*
X172512240Y-91923558D01*
X172506071Y-91927817D01*
X172501097Y-91933430D01*
X172501096Y-91933432D01*
X172482735Y-91954156D01*
X172472156Y-91964735D01*
X172451432Y-91983096D01*
X172445817Y-91988071D01*
X172441558Y-91994240D01*
X172441556Y-91994243D01*
X172425827Y-92017029D01*
X172416599Y-92028807D01*
X172398239Y-92049533D01*
X172398234Y-92049539D01*
X172393266Y-92055148D01*
X172389785Y-92061778D01*
X172389778Y-92061790D01*
X172376913Y-92086301D01*
X172369172Y-92099107D01*
X172353440Y-92121899D01*
X172353435Y-92121907D01*
X172349182Y-92128070D01*
X172346524Y-92135077D01*
X172346524Y-92135078D01*
X172336706Y-92160965D01*
X172330563Y-92174614D01*
X172317694Y-92199133D01*
X172317689Y-92199145D01*
X172314210Y-92205775D01*
X172312417Y-92213047D01*
X172312413Y-92213059D01*
X172305787Y-92239941D01*
X172301336Y-92254226D01*
X172291521Y-92280109D01*
X172291519Y-92280114D01*
X172288860Y-92287128D01*
X172287956Y-92294565D01*
X172287953Y-92294581D01*
X172284617Y-92322058D01*
X172281920Y-92336779D01*
X172275294Y-92363661D01*
X172275293Y-92363669D01*
X172273500Y-92370944D01*
X172273500Y-92378445D01*
X172273500Y-92406126D01*
X172272596Y-92421072D01*
X172268355Y-92456000D01*
X167014597Y-92456000D01*
X166923494Y-92401395D01*
X166920756Y-92400100D01*
X166920741Y-92400092D01*
X166564261Y-92231490D01*
X166564251Y-92231486D01*
X166561507Y-92230188D01*
X166184482Y-92095286D01*
X166181534Y-92094547D01*
X166181529Y-92094546D01*
X165799000Y-91998728D01*
X165798996Y-91998727D01*
X165796049Y-91997989D01*
X165793056Y-91997545D01*
X165793041Y-91997542D01*
X165402963Y-91939679D01*
X165402947Y-91939677D01*
X165399951Y-91939233D01*
X165396922Y-91939084D01*
X165396910Y-91939083D01*
X165003033Y-91919734D01*
X165000000Y-91919585D01*
X164996967Y-91919734D01*
X164603089Y-91939083D01*
X164603075Y-91939084D01*
X164600049Y-91939233D01*
X164597054Y-91939677D01*
X164597036Y-91939679D01*
X164206958Y-91997542D01*
X164206939Y-91997545D01*
X164203951Y-91997989D01*
X164201007Y-91998726D01*
X164200999Y-91998728D01*
X163818470Y-92094546D01*
X163818459Y-92094549D01*
X163815518Y-92095286D01*
X163812651Y-92096311D01*
X163812647Y-92096313D01*
X163441371Y-92229158D01*
X163441366Y-92229159D01*
X163438493Y-92230188D01*
X163435755Y-92231482D01*
X163435738Y-92231490D01*
X163079258Y-92400092D01*
X163079235Y-92400104D01*
X163076506Y-92401395D01*
X163073897Y-92402958D01*
X163073889Y-92402963D01*
X162735648Y-92605697D01*
X162735638Y-92605703D01*
X162733043Y-92607259D01*
X162730616Y-92609058D01*
X162730607Y-92609065D01*
X162413855Y-92843985D01*
X162411412Y-92845797D01*
X162409160Y-92847837D01*
X162409154Y-92847843D01*
X162116963Y-93112669D01*
X162116953Y-93112678D01*
X162114711Y-93114711D01*
X162112678Y-93116953D01*
X162112669Y-93116963D01*
X161847843Y-93409154D01*
X161847837Y-93409160D01*
X161845797Y-93411412D01*
X161843986Y-93413853D01*
X161843985Y-93413855D01*
X161609065Y-93730607D01*
X161609058Y-93730616D01*
X161607259Y-93733043D01*
X161605703Y-93735638D01*
X161605697Y-93735648D01*
X161402963Y-94073889D01*
X161402958Y-94073897D01*
X161401395Y-94076506D01*
X161400104Y-94079235D01*
X161400092Y-94079258D01*
X161236595Y-94424947D01*
X161193391Y-94475032D01*
X161130584Y-94495781D01*
X161066047Y-94481288D01*
X161018142Y-94435679D01*
X161000500Y-94371930D01*
X161000500Y-69850000D01*
X164298417Y-69850000D01*
X164299014Y-69856061D01*
X164318102Y-70049869D01*
X164318700Y-70055934D01*
X164320464Y-70061751D01*
X164320466Y-70061758D01*
X164366402Y-70213191D01*
X164369202Y-70226561D01*
X164369454Y-70226509D01*
X164650685Y-71581634D01*
X164653046Y-71614316D01*
X164650094Y-71663115D01*
X164650094Y-71663124D01*
X164649642Y-71670606D01*
X164650993Y-71677982D01*
X164650994Y-71677987D01*
X164660483Y-71729771D01*
X164661610Y-71737171D01*
X164667955Y-71789425D01*
X164667956Y-71789430D01*
X164668860Y-71796872D01*
X164671519Y-71803885D01*
X164671521Y-71803891D01*
X164672450Y-71806340D01*
X164678475Y-71827952D01*
X164678951Y-71830551D01*
X164678954Y-71830560D01*
X164680305Y-71837932D01*
X164683382Y-71844769D01*
X164683383Y-71844772D01*
X164704991Y-71892784D01*
X164707857Y-71899702D01*
X164729182Y-71955930D01*
X164733442Y-71962102D01*
X164733445Y-71962107D01*
X164734937Y-71964268D01*
X164745959Y-71983810D01*
X164747039Y-71986210D01*
X164747044Y-71986219D01*
X164750122Y-71993057D01*
X164754745Y-71998958D01*
X164754747Y-71998961D01*
X164787216Y-72040404D01*
X164791636Y-72046410D01*
X164825817Y-72095929D01*
X164870847Y-72135822D01*
X164876282Y-72140939D01*
X166111059Y-73375716D01*
X166116193Y-73381170D01*
X166156071Y-73426183D01*
X166205577Y-73460355D01*
X166211597Y-73464785D01*
X166258943Y-73501878D01*
X166265783Y-73504956D01*
X166265784Y-73504957D01*
X166268181Y-73506036D01*
X166287730Y-73517061D01*
X166296070Y-73522818D01*
X166352301Y-73544143D01*
X166359223Y-73547010D01*
X166414068Y-73571694D01*
X166424035Y-73573520D01*
X166445653Y-73579547D01*
X166448113Y-73580480D01*
X166448116Y-73580480D01*
X166455128Y-73583140D01*
X166512602Y-73590118D01*
X166514830Y-73590389D01*
X166522235Y-73591516D01*
X166538066Y-73594416D01*
X166581394Y-73602357D01*
X166641422Y-73598726D01*
X166648910Y-73598500D01*
X174689500Y-73598500D01*
X174751500Y-73615113D01*
X174796887Y-73660500D01*
X174813500Y-73722500D01*
X174813500Y-80849126D01*
X174812596Y-80864072D01*
X174808355Y-80899000D01*
X174809259Y-80906446D01*
X174809259Y-80906454D01*
X174809576Y-80909067D01*
X174810254Y-80931474D01*
X174810094Y-80934114D01*
X174810094Y-80934122D01*
X174809642Y-80941606D01*
X174810993Y-80948982D01*
X174810994Y-80948987D01*
X174820483Y-81000771D01*
X174821610Y-81008171D01*
X174827955Y-81060425D01*
X174827956Y-81060430D01*
X174828860Y-81067872D01*
X174831519Y-81074885D01*
X174831521Y-81074891D01*
X174832450Y-81077340D01*
X174838475Y-81098952D01*
X174838951Y-81101551D01*
X174838954Y-81101560D01*
X174840305Y-81108932D01*
X174843382Y-81115769D01*
X174843383Y-81115772D01*
X174864991Y-81163784D01*
X174867857Y-81170702D01*
X174889182Y-81226930D01*
X174893442Y-81233102D01*
X174893445Y-81233107D01*
X174894937Y-81235268D01*
X174905959Y-81254810D01*
X174907039Y-81257210D01*
X174907044Y-81257219D01*
X174910122Y-81264057D01*
X174914745Y-81269958D01*
X174914747Y-81269961D01*
X174947216Y-81311404D01*
X174951636Y-81317410D01*
X174985817Y-81366929D01*
X175030847Y-81406822D01*
X175036282Y-81411939D01*
X176652052Y-83027708D01*
X176657186Y-83033162D01*
X176697071Y-83078183D01*
X176703243Y-83082443D01*
X176703244Y-83082444D01*
X176746573Y-83112352D01*
X176752603Y-83116788D01*
X176799944Y-83153878D01*
X176809180Y-83158034D01*
X176828727Y-83169059D01*
X176837070Y-83174818D01*
X176893214Y-83196110D01*
X176893298Y-83196142D01*
X176900220Y-83199009D01*
X176955069Y-83223695D01*
X176965041Y-83225522D01*
X176986656Y-83231547D01*
X176996128Y-83235140D01*
X177053831Y-83242146D01*
X177055815Y-83242387D01*
X177063222Y-83243514D01*
X177122394Y-83254358D01*
X177182433Y-83250725D01*
X177189921Y-83250500D01*
X180061079Y-83250500D01*
X180068566Y-83250725D01*
X180128606Y-83254358D01*
X180187782Y-83243513D01*
X180195181Y-83242387D01*
X180254872Y-83235140D01*
X180264332Y-83231551D01*
X180285959Y-83225522D01*
X180295932Y-83223695D01*
X180350808Y-83198996D01*
X180357673Y-83196152D01*
X180413930Y-83174818D01*
X180422264Y-83169064D01*
X180441821Y-83158034D01*
X180451057Y-83153878D01*
X180498413Y-83116775D01*
X180504426Y-83112352D01*
X180553929Y-83078183D01*
X180593822Y-83033151D01*
X180598924Y-83027731D01*
X184627731Y-78998924D01*
X184633151Y-78993822D01*
X184678183Y-78953929D01*
X184712355Y-78904420D01*
X184716775Y-78898413D01*
X184753878Y-78851057D01*
X184758034Y-78841821D01*
X184769064Y-78822264D01*
X184774818Y-78813930D01*
X184796145Y-78757690D01*
X184799010Y-78750776D01*
X184823695Y-78695931D01*
X184825522Y-78685957D01*
X184831548Y-78664340D01*
X184835140Y-78654872D01*
X184842387Y-78595175D01*
X184843510Y-78587798D01*
X184854358Y-78528606D01*
X184853746Y-78518495D01*
X184854424Y-78496046D01*
X184855645Y-78486000D01*
X184848392Y-78426273D01*
X184847716Y-78418830D01*
X184844086Y-78358804D01*
X184841071Y-78349128D01*
X184836361Y-78327188D01*
X184835140Y-78317128D01*
X184813806Y-78260876D01*
X184811372Y-78253820D01*
X184795708Y-78203552D01*
X184793478Y-78196394D01*
X184788233Y-78187718D01*
X184778410Y-78167543D01*
X184774818Y-78158070D01*
X184740636Y-78108549D01*
X184736586Y-78102284D01*
X184709351Y-78057231D01*
X184709349Y-78057229D01*
X184705472Y-78050815D01*
X184698305Y-78043648D01*
X184683936Y-78026406D01*
X184682441Y-78024240D01*
X184678183Y-78018071D01*
X184633158Y-77978182D01*
X184627716Y-77973059D01*
X184590488Y-77935831D01*
X184585185Y-77930528D01*
X184578682Y-77926597D01*
X184576503Y-77925279D01*
X184558434Y-77911983D01*
X184556464Y-77910237D01*
X184556459Y-77910234D01*
X184550852Y-77905266D01*
X184497590Y-77877311D01*
X184491096Y-77873648D01*
X184439606Y-77842522D01*
X184432446Y-77840290D01*
X184432444Y-77840290D01*
X184429925Y-77839505D01*
X184409198Y-77830919D01*
X184406871Y-77829697D01*
X184406862Y-77829693D01*
X184400225Y-77826210D01*
X184356302Y-77815384D01*
X184341823Y-77811815D01*
X184334610Y-77809804D01*
X184284355Y-77794144D01*
X184284349Y-77794142D01*
X184277196Y-77791914D01*
X184269713Y-77791461D01*
X184269708Y-77791460D01*
X184267072Y-77791301D01*
X184244911Y-77787928D01*
X184242338Y-77787294D01*
X184242333Y-77787293D01*
X184235056Y-77785500D01*
X184227559Y-77785500D01*
X184174921Y-77785500D01*
X184167433Y-77785274D01*
X184114881Y-77782094D01*
X184114873Y-77782094D01*
X184107394Y-77781642D01*
X184100017Y-77782993D01*
X184100014Y-77782994D01*
X184097424Y-77783469D01*
X184075073Y-77785500D01*
X184064944Y-77785500D01*
X184057664Y-77787294D01*
X184057658Y-77787295D01*
X184006560Y-77799889D01*
X183999240Y-77801461D01*
X183947442Y-77810953D01*
X183947435Y-77810955D01*
X183940069Y-77812305D01*
X183933233Y-77815381D01*
X183933225Y-77815384D01*
X183930819Y-77816467D01*
X183909624Y-77823781D01*
X183907066Y-77824411D01*
X183907051Y-77824416D01*
X183899775Y-77826210D01*
X183893138Y-77829692D01*
X183893128Y-77829697D01*
X183846520Y-77854159D01*
X183839789Y-77857437D01*
X183810014Y-77870838D01*
X183784943Y-77882122D01*
X183779042Y-77886744D01*
X183779037Y-77886748D01*
X183776958Y-77888377D01*
X183758122Y-77900555D01*
X183755795Y-77901776D01*
X183755787Y-77901781D01*
X183749148Y-77905266D01*
X183743536Y-77910237D01*
X183743531Y-77910241D01*
X183704139Y-77945139D01*
X183698393Y-77949928D01*
X183687585Y-77958396D01*
X183687574Y-77958405D01*
X183684633Y-77960710D01*
X183681987Y-77963355D01*
X183681980Y-77963362D01*
X183672284Y-77973057D01*
X183666839Y-77978182D01*
X183627432Y-78013095D01*
X183627426Y-78013101D01*
X183621817Y-78018071D01*
X183617561Y-78024235D01*
X183617554Y-78024244D01*
X183616054Y-78026418D01*
X183601693Y-78043648D01*
X179832162Y-81813181D01*
X179791934Y-81840061D01*
X179744481Y-81849500D01*
X177506518Y-81849500D01*
X177459065Y-81840061D01*
X177418837Y-81813181D01*
X176250819Y-80645162D01*
X176223939Y-80604934D01*
X176214500Y-80557481D01*
X176214500Y-79502000D01*
X177725867Y-79502000D01*
X177727129Y-79510777D01*
X177743040Y-79621446D01*
X177743041Y-79621450D01*
X177744303Y-79630226D01*
X177747987Y-79638294D01*
X177747988Y-79638295D01*
X177794434Y-79739998D01*
X177794436Y-79740002D01*
X177798118Y-79748063D01*
X177803920Y-79754759D01*
X177803922Y-79754762D01*
X177804995Y-79756000D01*
X177882951Y-79845967D01*
X177991931Y-79916004D01*
X178116228Y-79952500D01*
X178236901Y-79952500D01*
X178245772Y-79952500D01*
X178370069Y-79916004D01*
X178464408Y-79855375D01*
X178531448Y-79835691D01*
X178598487Y-79855375D01*
X178644242Y-79908179D01*
X178683434Y-79993998D01*
X178683436Y-79994002D01*
X178687118Y-80002063D01*
X178692920Y-80008759D01*
X178692922Y-80008762D01*
X178692924Y-80008764D01*
X178771951Y-80099967D01*
X178880931Y-80170004D01*
X179005228Y-80206500D01*
X179125901Y-80206500D01*
X179134772Y-80206500D01*
X179259069Y-80170004D01*
X179368049Y-80099967D01*
X179452882Y-80002063D01*
X179469204Y-79966321D01*
X179483901Y-79941987D01*
X179488883Y-79935543D01*
X179660993Y-79598508D01*
X179683742Y-79567227D01*
X184579823Y-74671146D01*
X184582522Y-74668798D01*
X184588228Y-74665958D01*
X184619487Y-74631667D01*
X184623402Y-74627567D01*
X184636174Y-74614797D01*
X184639422Y-74610054D01*
X184639965Y-74609401D01*
X184643733Y-74605072D01*
X184656174Y-74591425D01*
X184656173Y-74591425D01*
X184663916Y-74582933D01*
X184668067Y-74572214D01*
X184672070Y-74565751D01*
X184674077Y-74561944D01*
X184677158Y-74554965D01*
X184683656Y-74545481D01*
X184689772Y-74519472D01*
X184694843Y-74503097D01*
X184704500Y-74478173D01*
X184704500Y-74466677D01*
X184705896Y-74459210D01*
X184706396Y-74454905D01*
X184706747Y-74447307D01*
X184709379Y-74436119D01*
X184705689Y-74409667D01*
X184704500Y-74392535D01*
X184704500Y-67691000D01*
X187200353Y-67691000D01*
X187201615Y-67699777D01*
X187219572Y-67824677D01*
X187219573Y-67824681D01*
X187220835Y-67833457D01*
X187280623Y-67964373D01*
X187325392Y-68016039D01*
X187329477Y-68021008D01*
X187330772Y-68022670D01*
X187333159Y-68026209D01*
X187336009Y-68029388D01*
X187336010Y-68029389D01*
X187363615Y-68060180D01*
X187364996Y-68061747D01*
X187367429Y-68064554D01*
X187374872Y-68073143D01*
X187382265Y-68077894D01*
X187383019Y-68078532D01*
X187383371Y-68078837D01*
X187383376Y-68078843D01*
X187383546Y-68078989D01*
X187387603Y-68082504D01*
X187388479Y-68083152D01*
X187700419Y-68347101D01*
X187719597Y-68363328D01*
X187751990Y-68405815D01*
X187763500Y-68457988D01*
X187763500Y-71113080D01*
X187760219Y-71137306D01*
X187760861Y-71137421D01*
X187759849Y-71143100D01*
X187758316Y-71148662D01*
X187757837Y-71154408D01*
X187757837Y-71154409D01*
X187710615Y-71721062D01*
X187710614Y-71721069D01*
X187710262Y-71725304D01*
X187710493Y-71729549D01*
X187710439Y-71733310D01*
X187709614Y-71743789D01*
X187709614Y-71746227D01*
X187708353Y-71755000D01*
X187709614Y-71763771D01*
X187709614Y-71763775D01*
X187727572Y-71888677D01*
X187727573Y-71888681D01*
X187728835Y-71897457D01*
X187732519Y-71905525D01*
X187732520Y-71905526D01*
X187783783Y-72017777D01*
X187788623Y-72028373D01*
X187794430Y-72035075D01*
X187794431Y-72035076D01*
X187877065Y-72130442D01*
X187877067Y-72130444D01*
X187882872Y-72137143D01*
X188003947Y-72214953D01*
X188142039Y-72255500D01*
X188277090Y-72255500D01*
X188285961Y-72255500D01*
X188424053Y-72214953D01*
X188545128Y-72137143D01*
X188639377Y-72028373D01*
X188699165Y-71897457D01*
X188719647Y-71755000D01*
X188718384Y-71746217D01*
X188718384Y-71743786D01*
X188717558Y-71733289D01*
X188717504Y-71729563D01*
X188717737Y-71725304D01*
X188669684Y-71148662D01*
X188668149Y-71143097D01*
X188667139Y-71137421D01*
X188667780Y-71137306D01*
X188664500Y-71113080D01*
X188664500Y-68231261D01*
X188665280Y-68217378D01*
X188666773Y-68204126D01*
X188669270Y-68181965D01*
X188658635Y-68125761D01*
X188657864Y-68121220D01*
X188654889Y-68101482D01*
X188649348Y-68064713D01*
X188645620Y-68056973D01*
X188644023Y-68048528D01*
X188617316Y-67997998D01*
X188615224Y-67993855D01*
X188594457Y-67950731D01*
X188590425Y-67942358D01*
X188584579Y-67936058D01*
X188580565Y-67928462D01*
X188540164Y-67888061D01*
X188536946Y-67884721D01*
X188504374Y-67849616D01*
X188504372Y-67849615D01*
X188498055Y-67842806D01*
X188492046Y-67839336D01*
X188486340Y-67834237D01*
X188478455Y-67826352D01*
X188463642Y-67806900D01*
X188463109Y-67807273D01*
X188459810Y-67802545D01*
X188456962Y-67797528D01*
X188245093Y-67547137D01*
X188085945Y-67359052D01*
X188085942Y-67359049D01*
X188083193Y-67355800D01*
X188064859Y-67339363D01*
X188053922Y-67328239D01*
X188042937Y-67315561D01*
X188042936Y-67315560D01*
X188037128Y-67308857D01*
X188029668Y-67304062D01*
X188029666Y-67304061D01*
X187976590Y-67269952D01*
X187916053Y-67231047D01*
X187854021Y-67212833D01*
X187786473Y-67192999D01*
X187786470Y-67192998D01*
X187777961Y-67190500D01*
X187634039Y-67190500D01*
X187625530Y-67192998D01*
X187625526Y-67192999D01*
X187504461Y-67228547D01*
X187495947Y-67231047D01*
X187488484Y-67235842D01*
X187488484Y-67235843D01*
X187382329Y-67304064D01*
X187382325Y-67304066D01*
X187374872Y-67308857D01*
X187369070Y-67315551D01*
X187369065Y-67315557D01*
X187286431Y-67410923D01*
X187286428Y-67410927D01*
X187280623Y-67417627D01*
X187276941Y-67425689D01*
X187276938Y-67425694D01*
X187226600Y-67535919D01*
X187220835Y-67548543D01*
X187219573Y-67557316D01*
X187219572Y-67557322D01*
X187204733Y-67660535D01*
X187200353Y-67691000D01*
X184704500Y-67691000D01*
X184704500Y-64956473D01*
X184710534Y-64918262D01*
X184825373Y-64563729D01*
X184827152Y-64558238D01*
X184827885Y-64552505D01*
X184828229Y-64550971D01*
X184836442Y-64526542D01*
X184840697Y-64517226D01*
X184859133Y-64389000D01*
X184840697Y-64260774D01*
X184786882Y-64142937D01*
X184781073Y-64136233D01*
X184707856Y-64051735D01*
X184702049Y-64045033D01*
X184694589Y-64040238D01*
X184694587Y-64040237D01*
X184636336Y-64002802D01*
X184593069Y-63974996D01*
X184584559Y-63972497D01*
X184584554Y-63972495D01*
X184572081Y-63968833D01*
X184519336Y-63937536D01*
X184488041Y-63884789D01*
X184485853Y-63823496D01*
X184513306Y-63768654D01*
X184532882Y-63746063D01*
X184586697Y-63628226D01*
X184605133Y-63500000D01*
X184586697Y-63371774D01*
X184551817Y-63295398D01*
X184536565Y-63262001D01*
X184536564Y-63261999D01*
X184532882Y-63253937D01*
X184518207Y-63237001D01*
X184453856Y-63162735D01*
X184448049Y-63156033D01*
X184440589Y-63151238D01*
X184440587Y-63151237D01*
X184393559Y-63121014D01*
X184339069Y-63085996D01*
X184330555Y-63083496D01*
X184223284Y-63051999D01*
X184223282Y-63051998D01*
X184214772Y-63049500D01*
X184085228Y-63049500D01*
X184076729Y-63051995D01*
X184076718Y-63051997D01*
X184010267Y-63071508D01*
X183991088Y-63075525D01*
X183986493Y-63076113D01*
X183986477Y-63076116D01*
X183980762Y-63076848D01*
X183975278Y-63078624D01*
X183975275Y-63078625D01*
X183612467Y-63196144D01*
X183592321Y-63199805D01*
X183583480Y-63201884D01*
X183572009Y-63202415D01*
X183561503Y-63207053D01*
X183554140Y-63208785D01*
X183549925Y-63210090D01*
X183542857Y-63212828D01*
X183531567Y-63214939D01*
X183521801Y-63220984D01*
X183521794Y-63220988D01*
X183508854Y-63229000D01*
X183493675Y-63237001D01*
X183479744Y-63243152D01*
X183479737Y-63243156D01*
X183469235Y-63247794D01*
X183461115Y-63255912D01*
X183454857Y-63260200D01*
X183451422Y-63262921D01*
X183445813Y-63268033D01*
X183436048Y-63274081D01*
X183429124Y-63283248D01*
X183429122Y-63283251D01*
X183419949Y-63295398D01*
X183408679Y-63308348D01*
X180780187Y-65936840D01*
X180777471Y-65939203D01*
X180771772Y-65942042D01*
X180764039Y-65950523D01*
X180764034Y-65950528D01*
X180740521Y-65976320D01*
X180736575Y-65980452D01*
X180727877Y-65989151D01*
X180727873Y-65989155D01*
X180723826Y-65993203D01*
X180720592Y-65997921D01*
X180720006Y-65998628D01*
X180716259Y-66002934D01*
X180703822Y-66016578D01*
X180696084Y-66025067D01*
X180691935Y-66035773D01*
X180687956Y-66042201D01*
X180685895Y-66046112D01*
X180682834Y-66053043D01*
X180676344Y-66062519D01*
X180673714Y-66073696D01*
X180673711Y-66073705D01*
X180670228Y-66088516D01*
X180665150Y-66104915D01*
X180659651Y-66119109D01*
X180659650Y-66119114D01*
X180655500Y-66129827D01*
X180655500Y-66141317D01*
X180654103Y-66148791D01*
X180653603Y-66153094D01*
X180653251Y-66160697D01*
X180650621Y-66171881D01*
X180652208Y-66183258D01*
X180652208Y-66183262D01*
X180654311Y-66198333D01*
X180655500Y-66215465D01*
X180655500Y-76551167D01*
X180646061Y-76598620D01*
X180619181Y-76638848D01*
X178369778Y-78888249D01*
X178338492Y-78911002D01*
X178006581Y-79080498D01*
X178006574Y-79080502D01*
X178001452Y-79083118D01*
X177998683Y-79085257D01*
X177995645Y-79086904D01*
X177991931Y-79087996D01*
X177984484Y-79092781D01*
X177984477Y-79092785D01*
X177890412Y-79153237D01*
X177890406Y-79153241D01*
X177882951Y-79158033D01*
X177877146Y-79164732D01*
X177877143Y-79164735D01*
X177803922Y-79249237D01*
X177803917Y-79249243D01*
X177798118Y-79255937D01*
X177794438Y-79263994D01*
X177794434Y-79264001D01*
X177747988Y-79365704D01*
X177744303Y-79373774D01*
X177743041Y-79382547D01*
X177743040Y-79382553D01*
X177738802Y-79412033D01*
X177725867Y-79502000D01*
X176214500Y-79502000D01*
X176214500Y-73390347D01*
X176230128Y-73330085D01*
X176273072Y-73285013D01*
X176332509Y-73266492D01*
X176393455Y-73279190D01*
X176440550Y-73319907D01*
X176447575Y-73330085D01*
X176472317Y-73365929D01*
X176599648Y-73478734D01*
X176750275Y-73557790D01*
X176915444Y-73598500D01*
X177078056Y-73598500D01*
X177085556Y-73598500D01*
X177250725Y-73557790D01*
X177317874Y-73522546D01*
X177379245Y-73508400D01*
X177439650Y-73526226D01*
X177483506Y-73571427D01*
X177499500Y-73632343D01*
X177499500Y-76529144D01*
X177499251Y-76532724D01*
X177497227Y-76538765D01*
X177497757Y-76550239D01*
X177497757Y-76550243D01*
X177499368Y-76585080D01*
X177499500Y-76590806D01*
X177499500Y-76608844D01*
X177500552Y-76614471D01*
X177500635Y-76615368D01*
X177501031Y-76621072D01*
X177501884Y-76639516D01*
X177502415Y-76650992D01*
X177507054Y-76661499D01*
X177508792Y-76668888D01*
X177510082Y-76673052D01*
X177512827Y-76680137D01*
X177514939Y-76691433D01*
X177529001Y-76714146D01*
X177537003Y-76729327D01*
X177543152Y-76743254D01*
X177543153Y-76743256D01*
X177547794Y-76753765D01*
X177555917Y-76761888D01*
X177560209Y-76768153D01*
X177562915Y-76771569D01*
X177568031Y-76777181D01*
X177574081Y-76786952D01*
X177583249Y-76793875D01*
X177595396Y-76803048D01*
X177608351Y-76814322D01*
X177821250Y-77027221D01*
X177844003Y-77058507D01*
X177960102Y-77285856D01*
X178016117Y-77395545D01*
X178019644Y-77400108D01*
X178019649Y-77400115D01*
X178021114Y-77402010D01*
X178035797Y-77426327D01*
X178044811Y-77446063D01*
X178052118Y-77462063D01*
X178057920Y-77468759D01*
X178057922Y-77468762D01*
X178121638Y-77542294D01*
X178136951Y-77559967D01*
X178245931Y-77630004D01*
X178370228Y-77666500D01*
X178490901Y-77666500D01*
X178499772Y-77666500D01*
X178624069Y-77630004D01*
X178733049Y-77559967D01*
X178817882Y-77462063D01*
X178871697Y-77344226D01*
X178890133Y-77216000D01*
X178871697Y-77087774D01*
X178817882Y-76969937D01*
X178805502Y-76955650D01*
X178738856Y-76878735D01*
X178733049Y-76872033D01*
X178725589Y-76867238D01*
X178725587Y-76867237D01*
X178631526Y-76806788D01*
X178631524Y-76806787D01*
X178624069Y-76801996D01*
X178620349Y-76800903D01*
X178617315Y-76799258D01*
X178614545Y-76797117D01*
X178608204Y-76793879D01*
X178279437Y-76625988D01*
X178229234Y-76578902D01*
X178211875Y-76512299D01*
X178232706Y-76446698D01*
X178285311Y-76402313D01*
X178353481Y-76392816D01*
X178361712Y-76393999D01*
X178370228Y-76396500D01*
X178490901Y-76396500D01*
X178499772Y-76396500D01*
X178624069Y-76360004D01*
X178733049Y-76289967D01*
X178817882Y-76192063D01*
X178871697Y-76074226D01*
X178890133Y-75946000D01*
X178871697Y-75817774D01*
X178817882Y-75699937D01*
X178812076Y-75693237D01*
X178812074Y-75693233D01*
X178773448Y-75648655D01*
X178767666Y-75641035D01*
X178767585Y-75641099D01*
X178763534Y-75635837D01*
X178760336Y-75632731D01*
X178760332Y-75632726D01*
X178759814Y-75632223D01*
X178752505Y-75624485D01*
X178738859Y-75608737D01*
X178738855Y-75608733D01*
X178733049Y-75602033D01*
X178725583Y-75597234D01*
X178720227Y-75593792D01*
X178714520Y-75589894D01*
X178551749Y-75471966D01*
X178514053Y-75427920D01*
X178500500Y-75371551D01*
X178500500Y-67212833D01*
X178509939Y-67165380D01*
X178536819Y-67125152D01*
X180743712Y-64918259D01*
X183304970Y-62357000D01*
X189790867Y-62357000D01*
X189792129Y-62365777D01*
X189808040Y-62476446D01*
X189808041Y-62476450D01*
X189809303Y-62485226D01*
X189812987Y-62493294D01*
X189812988Y-62493295D01*
X189859434Y-62594998D01*
X189859436Y-62595002D01*
X189863118Y-62603063D01*
X189868920Y-62609759D01*
X189868922Y-62609762D01*
X189932638Y-62683294D01*
X189947951Y-62700967D01*
X190056931Y-62771004D01*
X190060649Y-62772095D01*
X190063683Y-62773740D01*
X190066454Y-62775882D01*
X190403491Y-62947995D01*
X190434777Y-62970748D01*
X195497181Y-68033152D01*
X195524061Y-68073380D01*
X195533500Y-68120833D01*
X195533500Y-71441524D01*
X195527466Y-71479735D01*
X195412622Y-71834280D01*
X195412620Y-71834287D01*
X195410847Y-71839762D01*
X195410115Y-71845474D01*
X195409764Y-71847046D01*
X195401559Y-71871453D01*
X195397303Y-71880774D01*
X195396041Y-71889545D01*
X195396040Y-71889552D01*
X195386497Y-71955930D01*
X195378867Y-72009000D01*
X195380129Y-72017777D01*
X195396040Y-72128446D01*
X195396041Y-72128450D01*
X195397303Y-72137226D01*
X195400987Y-72145294D01*
X195400988Y-72145295D01*
X195447434Y-72246998D01*
X195447436Y-72247002D01*
X195451118Y-72255063D01*
X195456920Y-72261759D01*
X195456922Y-72261762D01*
X195470509Y-72277442D01*
X195535951Y-72352967D01*
X195644931Y-72423004D01*
X195769228Y-72459500D01*
X195889901Y-72459500D01*
X195898772Y-72459500D01*
X196023069Y-72423004D01*
X196132049Y-72352967D01*
X196216882Y-72255063D01*
X196270697Y-72137226D01*
X196289133Y-72009000D01*
X196270697Y-71880774D01*
X196266439Y-71871451D01*
X196258229Y-71847028D01*
X196257885Y-71845492D01*
X196257152Y-71839761D01*
X196140534Y-71479738D01*
X196134500Y-71441527D01*
X196134500Y-69684000D01*
X199390819Y-69684000D01*
X199392346Y-69693641D01*
X199407898Y-69791840D01*
X199407899Y-69791845D01*
X199409426Y-69801482D01*
X199463427Y-69907465D01*
X199547535Y-69991573D01*
X199653518Y-70045574D01*
X199771000Y-70064181D01*
X199888482Y-70045574D01*
X199994465Y-69991573D01*
X200078573Y-69907465D01*
X200132574Y-69801482D01*
X200151181Y-69684000D01*
X200132574Y-69566518D01*
X200078573Y-69460535D01*
X199994465Y-69376427D01*
X199967667Y-69362773D01*
X199897178Y-69326857D01*
X199888482Y-69322426D01*
X199878845Y-69320899D01*
X199878840Y-69320898D01*
X199780641Y-69305346D01*
X199771000Y-69303819D01*
X199761359Y-69305346D01*
X199663159Y-69320898D01*
X199663152Y-69320900D01*
X199653518Y-69322426D01*
X199644822Y-69326856D01*
X199644821Y-69326857D01*
X199556230Y-69371996D01*
X199556226Y-69371998D01*
X199547535Y-69376427D01*
X199540636Y-69383325D01*
X199540633Y-69383328D01*
X199470328Y-69453633D01*
X199470325Y-69453636D01*
X199463427Y-69460535D01*
X199458998Y-69469226D01*
X199458996Y-69469230D01*
X199418097Y-69549500D01*
X199409426Y-69566518D01*
X199407900Y-69576152D01*
X199407898Y-69576159D01*
X199398433Y-69635926D01*
X199390819Y-69684000D01*
X196134500Y-69684000D01*
X196134500Y-67996856D01*
X196134748Y-67993275D01*
X196136773Y-67987235D01*
X196136623Y-67984000D01*
X199390819Y-67984000D01*
X199392346Y-67993641D01*
X199407898Y-68091840D01*
X199407899Y-68091845D01*
X199409426Y-68101482D01*
X199413857Y-68110178D01*
X199455138Y-68191198D01*
X199463427Y-68207465D01*
X199547535Y-68291573D01*
X199653518Y-68345574D01*
X199771000Y-68364181D01*
X199888482Y-68345574D01*
X199994465Y-68291573D01*
X200078573Y-68207465D01*
X200132574Y-68101482D01*
X200151181Y-67984000D01*
X200132574Y-67866518D01*
X200078573Y-67760535D01*
X199994465Y-67676427D01*
X199888482Y-67622426D01*
X199878845Y-67620899D01*
X199878840Y-67620898D01*
X199780641Y-67605346D01*
X199771000Y-67603819D01*
X199761359Y-67605346D01*
X199663159Y-67620898D01*
X199663152Y-67620900D01*
X199653518Y-67622426D01*
X199644822Y-67626856D01*
X199644821Y-67626857D01*
X199556230Y-67671996D01*
X199556226Y-67671998D01*
X199547535Y-67676427D01*
X199540636Y-67683325D01*
X199540633Y-67683328D01*
X199470328Y-67753633D01*
X199470325Y-67753636D01*
X199463427Y-67760535D01*
X199458998Y-67769226D01*
X199458996Y-67769230D01*
X199418038Y-67849616D01*
X199409426Y-67866518D01*
X199407900Y-67876152D01*
X199407898Y-67876159D01*
X199392947Y-67970559D01*
X199390819Y-67984000D01*
X196136623Y-67984000D01*
X196134632Y-67940920D01*
X196134500Y-67935194D01*
X196134500Y-67922894D01*
X196134500Y-67917156D01*
X196133444Y-67911512D01*
X196133365Y-67910656D01*
X196132967Y-67904926D01*
X196132575Y-67896450D01*
X196131585Y-67875008D01*
X196126942Y-67864493D01*
X196125202Y-67857093D01*
X196123922Y-67852958D01*
X196121172Y-67845859D01*
X196119061Y-67834567D01*
X196112937Y-67824677D01*
X196105006Y-67811867D01*
X196096998Y-67796675D01*
X196090847Y-67782746D01*
X196086206Y-67772234D01*
X196078078Y-67764106D01*
X196073785Y-67757839D01*
X196071090Y-67754436D01*
X196065967Y-67748816D01*
X196059919Y-67739048D01*
X196038606Y-67722953D01*
X196025652Y-67711680D01*
X190859747Y-62545776D01*
X190836994Y-62514490D01*
X190664883Y-62177456D01*
X190659888Y-62170994D01*
X190645202Y-62146672D01*
X190632565Y-62119001D01*
X190632564Y-62118999D01*
X190628882Y-62110937D01*
X190616911Y-62097122D01*
X190549856Y-62019735D01*
X190544049Y-62013033D01*
X190536589Y-62008238D01*
X190536587Y-62008237D01*
X190489559Y-61978014D01*
X190435069Y-61942996D01*
X190361491Y-61921392D01*
X190319284Y-61908999D01*
X190319282Y-61908998D01*
X190310772Y-61906500D01*
X190181228Y-61906500D01*
X190172718Y-61908998D01*
X190172715Y-61908999D01*
X190065444Y-61940496D01*
X190065441Y-61940497D01*
X190056931Y-61942996D01*
X190049468Y-61947791D01*
X190049468Y-61947792D01*
X189955412Y-62008237D01*
X189955406Y-62008241D01*
X189947951Y-62013033D01*
X189942146Y-62019732D01*
X189942143Y-62019735D01*
X189868922Y-62104237D01*
X189868917Y-62104243D01*
X189863118Y-62110937D01*
X189859438Y-62118994D01*
X189859434Y-62119001D01*
X189812988Y-62220704D01*
X189809303Y-62228774D01*
X189808041Y-62237547D01*
X189808040Y-62237553D01*
X189793369Y-62339593D01*
X189790867Y-62357000D01*
X183304970Y-62357000D01*
X183603909Y-62058061D01*
X183662586Y-62025183D01*
X183729799Y-62027777D01*
X183927391Y-62091782D01*
X183937704Y-62093101D01*
X183956897Y-62097119D01*
X184031858Y-62119130D01*
X184152531Y-62119130D01*
X184161402Y-62119130D01*
X184285699Y-62082634D01*
X184394679Y-62012597D01*
X184479512Y-61914693D01*
X184533327Y-61796856D01*
X184551763Y-61668630D01*
X184533327Y-61540404D01*
X184479512Y-61422567D01*
X184394679Y-61324663D01*
X184387219Y-61319868D01*
X184387217Y-61319867D01*
X184293156Y-61259418D01*
X184293154Y-61259417D01*
X184285699Y-61254626D01*
X184277194Y-61252128D01*
X184271092Y-61249342D01*
X184228890Y-61217750D01*
X184203627Y-61171482D01*
X184199866Y-61118904D01*
X184208455Y-61059168D01*
X184190019Y-60930942D01*
X184186333Y-60922872D01*
X184183836Y-60914366D01*
X184186098Y-60913701D01*
X184177791Y-60867652D01*
X184197160Y-60809459D01*
X184242049Y-60767667D01*
X184301475Y-60752500D01*
X190694527Y-60752500D01*
X190732738Y-60758534D01*
X190928763Y-60822030D01*
X191092761Y-60875152D01*
X191103074Y-60876471D01*
X191122267Y-60880489D01*
X191197228Y-60902500D01*
X191317901Y-60902500D01*
X191326772Y-60902500D01*
X191451069Y-60866004D01*
X191560049Y-60795967D01*
X191644882Y-60698063D01*
X191698697Y-60580226D01*
X191717133Y-60452000D01*
X191698697Y-60323774D01*
X191684647Y-60293010D01*
X191673758Y-60232655D01*
X191693126Y-60174461D01*
X191738015Y-60132668D01*
X191797442Y-60117500D01*
X191837527Y-60117500D01*
X191875738Y-60123534D01*
X192157686Y-60214862D01*
X192235761Y-60240152D01*
X192246074Y-60241471D01*
X192265267Y-60245489D01*
X192340228Y-60267500D01*
X192460901Y-60267500D01*
X192469772Y-60267500D01*
X192594069Y-60231004D01*
X192703049Y-60160967D01*
X192787882Y-60063063D01*
X192841697Y-59945226D01*
X192860133Y-59817000D01*
X192841697Y-59688774D01*
X192806817Y-59612398D01*
X192791565Y-59579001D01*
X192791564Y-59578999D01*
X192787882Y-59570937D01*
X192773206Y-59554000D01*
X192708856Y-59479735D01*
X192703049Y-59473033D01*
X192695589Y-59468238D01*
X192695587Y-59468237D01*
X192648559Y-59438014D01*
X192594069Y-59402996D01*
X192568962Y-59395624D01*
X192478284Y-59368999D01*
X192478282Y-59368998D01*
X192469772Y-59366500D01*
X192340228Y-59366500D01*
X192331729Y-59368995D01*
X192331718Y-59368997D01*
X192265267Y-59388508D01*
X192246088Y-59392525D01*
X192241493Y-59393113D01*
X192241477Y-59393116D01*
X192235762Y-59393848D01*
X192230286Y-59395621D01*
X192230276Y-59395624D01*
X191875741Y-59510466D01*
X191837530Y-59516500D01*
X180234856Y-59516500D01*
X180231275Y-59516251D01*
X180225235Y-59514227D01*
X180213759Y-59514757D01*
X180213756Y-59514757D01*
X180178920Y-59516368D01*
X180173194Y-59516500D01*
X180155156Y-59516500D01*
X180149530Y-59517551D01*
X180148639Y-59517634D01*
X180142932Y-59518031D01*
X180124481Y-59518884D01*
X180124477Y-59518884D01*
X180113008Y-59519415D01*
X180102502Y-59524053D01*
X180095139Y-59525785D01*
X180090917Y-59527092D01*
X180083852Y-59529828D01*
X180072567Y-59531939D01*
X180062803Y-59537983D01*
X180062798Y-59537986D01*
X180049858Y-59545998D01*
X180034677Y-59554000D01*
X180020746Y-59560151D01*
X180020739Y-59560155D01*
X180010235Y-59564794D01*
X180002113Y-59572914D01*
X179995851Y-59577205D01*
X179992422Y-59579921D01*
X179986813Y-59585033D01*
X179977048Y-59591081D01*
X179970124Y-59600248D01*
X179970122Y-59600251D01*
X179960949Y-59612398D01*
X179949679Y-59625348D01*
X172601848Y-66973181D01*
X172561620Y-67000061D01*
X172514167Y-67009500D01*
X169681605Y-67009500D01*
X169626284Y-66996475D01*
X168325973Y-66348269D01*
X168325969Y-66348267D01*
X168322179Y-66346378D01*
X168318548Y-66345151D01*
X168308247Y-66340270D01*
X168297954Y-66334768D01*
X168292130Y-66333001D01*
X168292127Y-66333000D01*
X168105764Y-66276468D01*
X168105759Y-66276467D01*
X168099934Y-66274700D01*
X168093875Y-66274103D01*
X168093869Y-66274102D01*
X167900061Y-66255014D01*
X167894000Y-66254417D01*
X167887939Y-66255014D01*
X167694130Y-66274102D01*
X167694122Y-66274103D01*
X167688066Y-66274700D01*
X167682242Y-66276466D01*
X167682235Y-66276468D01*
X167495877Y-66332999D01*
X167495875Y-66332999D01*
X167490046Y-66334768D01*
X167484679Y-66337636D01*
X167484671Y-66337640D01*
X167312920Y-66429444D01*
X167312915Y-66429447D01*
X167307550Y-66432315D01*
X167302846Y-66436174D01*
X167302842Y-66436178D01*
X167152296Y-66559727D01*
X167152290Y-66559732D01*
X167147590Y-66563590D01*
X167143732Y-66568290D01*
X167143727Y-66568296D01*
X167020178Y-66718842D01*
X167020174Y-66718846D01*
X167016315Y-66723550D01*
X167013447Y-66728915D01*
X167013444Y-66728920D01*
X166921640Y-66900671D01*
X166921636Y-66900679D01*
X166918768Y-66906046D01*
X166916999Y-66911875D01*
X166916999Y-66911877D01*
X166860468Y-67098235D01*
X166860466Y-67098242D01*
X166858700Y-67104066D01*
X166858103Y-67110122D01*
X166858102Y-67110130D01*
X166846193Y-67231047D01*
X166838417Y-67310000D01*
X166839014Y-67316061D01*
X166858102Y-67509869D01*
X166858103Y-67509875D01*
X166858700Y-67515934D01*
X166860467Y-67521758D01*
X166860468Y-67521764D01*
X166902564Y-67660535D01*
X166918768Y-67713954D01*
X166921638Y-67719323D01*
X166921640Y-67719328D01*
X166998724Y-67863540D01*
X167016315Y-67896450D01*
X167054223Y-67942641D01*
X167134375Y-68040308D01*
X167147590Y-68056410D01*
X167307550Y-68187685D01*
X167490046Y-68285232D01*
X167688066Y-68345300D01*
X167894000Y-68365583D01*
X168099934Y-68345300D01*
X168297954Y-68285232D01*
X168308251Y-68279727D01*
X168318549Y-68274846D01*
X168322179Y-68273621D01*
X169506318Y-67683328D01*
X169626284Y-67623525D01*
X169681605Y-67610500D01*
X172638144Y-67610500D01*
X172641724Y-67610748D01*
X172647765Y-67612773D01*
X172659243Y-67612242D01*
X172670624Y-67613830D01*
X172670486Y-67614812D01*
X172715653Y-67623685D01*
X172761743Y-67660535D01*
X172785580Y-67714516D01*
X172781768Y-67773403D01*
X172751168Y-67823859D01*
X171061848Y-69513181D01*
X171021620Y-69540061D01*
X170974167Y-69549500D01*
X169681605Y-69549500D01*
X169626284Y-69536475D01*
X168325973Y-68888269D01*
X168325969Y-68888267D01*
X168322179Y-68886378D01*
X168318548Y-68885151D01*
X168308247Y-68880270D01*
X168297954Y-68874768D01*
X168292130Y-68873001D01*
X168292127Y-68873000D01*
X168105764Y-68816468D01*
X168105759Y-68816467D01*
X168099934Y-68814700D01*
X168093875Y-68814103D01*
X168093869Y-68814102D01*
X167900061Y-68795014D01*
X167894000Y-68794417D01*
X167887939Y-68795014D01*
X167694130Y-68814102D01*
X167694122Y-68814103D01*
X167688066Y-68814700D01*
X167682242Y-68816466D01*
X167682235Y-68816468D01*
X167495877Y-68872999D01*
X167495875Y-68872999D01*
X167490046Y-68874768D01*
X167484679Y-68877636D01*
X167484671Y-68877640D01*
X167312920Y-68969444D01*
X167312915Y-68969447D01*
X167307550Y-68972315D01*
X167302846Y-68976174D01*
X167302842Y-68976178D01*
X167152296Y-69099727D01*
X167152290Y-69099732D01*
X167147590Y-69103590D01*
X167143732Y-69108290D01*
X167143727Y-69108296D01*
X167020178Y-69258842D01*
X167020174Y-69258846D01*
X167016315Y-69263550D01*
X167013447Y-69268915D01*
X167013444Y-69268920D01*
X166921640Y-69440671D01*
X166921636Y-69440679D01*
X166918768Y-69446046D01*
X166916999Y-69451875D01*
X166916999Y-69451877D01*
X166860468Y-69638235D01*
X166860467Y-69638241D01*
X166858700Y-69644066D01*
X166858103Y-69650122D01*
X166858102Y-69650130D01*
X166843196Y-69801482D01*
X166838417Y-69850000D01*
X166839014Y-69856061D01*
X166858102Y-70049869D01*
X166858103Y-70049875D01*
X166858700Y-70055934D01*
X166860467Y-70061758D01*
X166860468Y-70061764D01*
X166887914Y-70152242D01*
X166918768Y-70253954D01*
X167016315Y-70436450D01*
X167147590Y-70596410D01*
X167307550Y-70727685D01*
X167490046Y-70825232D01*
X167688066Y-70885300D01*
X167894000Y-70905583D01*
X168099934Y-70885300D01*
X168297954Y-70825232D01*
X168308251Y-70819727D01*
X168318549Y-70814846D01*
X168322179Y-70813621D01*
X169499937Y-70226509D01*
X169626284Y-70163525D01*
X169681605Y-70150500D01*
X171098144Y-70150500D01*
X171101724Y-70150748D01*
X171107765Y-70152773D01*
X171154079Y-70150632D01*
X171159806Y-70150500D01*
X171172111Y-70150500D01*
X171177844Y-70150500D01*
X171183478Y-70149445D01*
X171184351Y-70149365D01*
X171190072Y-70148967D01*
X171219992Y-70147585D01*
X171230506Y-70142941D01*
X171237908Y-70141201D01*
X171242038Y-70139922D01*
X171249135Y-70137172D01*
X171260433Y-70135061D01*
X171283144Y-70120998D01*
X171298319Y-70112999D01*
X171322765Y-70102206D01*
X171330892Y-70094077D01*
X171337175Y-70089774D01*
X171340555Y-70087096D01*
X171346176Y-70081970D01*
X171355952Y-70075919D01*
X171372053Y-70054595D01*
X171383314Y-70041655D01*
X180636151Y-60788819D01*
X180676380Y-60761939D01*
X180723833Y-60752500D01*
X182996961Y-60752500D01*
X183053042Y-60765906D01*
X183096996Y-60803226D01*
X183119319Y-60856390D01*
X183115186Y-60913902D01*
X183086095Y-60962315D01*
X183085411Y-60962917D01*
X183082450Y-60966422D01*
X183082439Y-60966434D01*
X183080987Y-60968155D01*
X183080858Y-60968046D01*
X183079627Y-60969302D01*
X183073229Y-60976798D01*
X177624187Y-66425840D01*
X177621471Y-66428203D01*
X177615772Y-66431042D01*
X177608039Y-66439523D01*
X177608034Y-66439528D01*
X177584521Y-66465320D01*
X177580575Y-66469452D01*
X177571877Y-66478151D01*
X177571873Y-66478155D01*
X177567826Y-66482203D01*
X177564592Y-66486921D01*
X177564006Y-66487628D01*
X177560259Y-66491934D01*
X177547822Y-66505578D01*
X177540084Y-66514067D01*
X177535935Y-66524773D01*
X177531956Y-66531201D01*
X177529895Y-66535112D01*
X177526834Y-66542043D01*
X177520344Y-66551519D01*
X177517714Y-66562696D01*
X177517711Y-66562705D01*
X177514228Y-66577516D01*
X177509150Y-66593915D01*
X177503651Y-66608109D01*
X177503650Y-66608114D01*
X177499500Y-66618827D01*
X177499500Y-66630317D01*
X177498103Y-66637791D01*
X177497603Y-66642094D01*
X177497251Y-66649697D01*
X177494621Y-66660881D01*
X177496208Y-66672258D01*
X177496208Y-66672262D01*
X177498311Y-66687333D01*
X177499500Y-66704465D01*
X177499500Y-69398515D01*
X177485512Y-69455728D01*
X177446704Y-69500033D01*
X177391832Y-69521435D01*
X177333275Y-69515104D01*
X177300063Y-69492998D01*
X177298140Y-69495411D01*
X177290874Y-69489616D01*
X177284555Y-69482806D01*
X177278546Y-69479336D01*
X177272840Y-69474237D01*
X176762819Y-68964216D01*
X176735939Y-68923988D01*
X176726500Y-68876535D01*
X176726500Y-67863539D01*
X176730551Y-67832102D01*
X176732711Y-67823859D01*
X176934143Y-67055292D01*
X176934572Y-67049743D01*
X176935220Y-67045894D01*
X176941560Y-67022499D01*
X176958479Y-66977888D01*
X176958478Y-66977888D01*
X176961140Y-66970872D01*
X176981645Y-66802000D01*
X176961140Y-66633128D01*
X176955716Y-66618827D01*
X176903479Y-66481087D01*
X176900818Y-66474070D01*
X176811090Y-66344077D01*
X176808442Y-66340241D01*
X176808441Y-66340240D01*
X176804183Y-66334071D01*
X176676852Y-66221266D01*
X176633157Y-66198333D01*
X176532866Y-66145695D01*
X176532862Y-66145693D01*
X176526225Y-66142210D01*
X176518947Y-66140416D01*
X176518944Y-66140415D01*
X176368337Y-66103294D01*
X176368332Y-66103293D01*
X176361056Y-66101500D01*
X176190944Y-66101500D01*
X176183668Y-66103293D01*
X176183662Y-66103294D01*
X176033055Y-66140415D01*
X176033050Y-66140416D01*
X176025775Y-66142210D01*
X176019140Y-66145692D01*
X176019133Y-66145695D01*
X175881791Y-66217779D01*
X175881788Y-66217780D01*
X175875148Y-66221266D01*
X175869537Y-66226236D01*
X175869531Y-66226241D01*
X175753430Y-66329098D01*
X175747817Y-66334071D01*
X175743562Y-66340235D01*
X175743557Y-66340241D01*
X175655445Y-66467893D01*
X175655442Y-66467897D01*
X175651182Y-66474070D01*
X175648523Y-66481081D01*
X175648520Y-66481087D01*
X175593520Y-66626111D01*
X175593517Y-66626119D01*
X175590860Y-66633128D01*
X175589956Y-66640570D01*
X175589955Y-66640576D01*
X175571356Y-66793755D01*
X175570355Y-66802000D01*
X175571259Y-66809445D01*
X175589955Y-66963426D01*
X175590860Y-66970872D01*
X175593517Y-66977878D01*
X175593518Y-66977882D01*
X175610438Y-67022499D01*
X175616773Y-67045877D01*
X175617428Y-67049769D01*
X175617856Y-67055293D01*
X175619259Y-67060648D01*
X175619261Y-67060657D01*
X175821449Y-67832103D01*
X175825500Y-67863540D01*
X175825500Y-69082239D01*
X175824720Y-69096122D01*
X175821770Y-69122300D01*
X175821770Y-69122303D01*
X175820730Y-69131535D01*
X175822457Y-69140662D01*
X175831356Y-69187697D01*
X175832132Y-69192265D01*
X175839267Y-69239601D01*
X175840652Y-69248787D01*
X175844379Y-69256526D01*
X175845977Y-69264972D01*
X175850321Y-69273191D01*
X175872687Y-69315510D01*
X175874777Y-69319649D01*
X175895544Y-69362773D01*
X175895546Y-69362776D01*
X175899575Y-69371142D01*
X175905417Y-69377439D01*
X175909434Y-69385038D01*
X175916004Y-69391607D01*
X175916004Y-69391608D01*
X175949846Y-69425450D01*
X175953064Y-69428790D01*
X175991945Y-69470694D01*
X175997950Y-69474161D01*
X176003653Y-69479257D01*
X176513681Y-69989284D01*
X176540561Y-70029512D01*
X176550000Y-70076965D01*
X176550000Y-71836460D01*
X176545949Y-71867897D01*
X176368368Y-72545455D01*
X176340263Y-72597328D01*
X176291368Y-72630342D01*
X176232751Y-72637024D01*
X176177680Y-72615861D01*
X176140010Y-72573215D01*
X176138818Y-72570070D01*
X176118829Y-72541112D01*
X176111082Y-72528297D01*
X176098219Y-72503789D01*
X176094734Y-72497148D01*
X176071404Y-72470813D01*
X176062172Y-72459030D01*
X176060771Y-72457000D01*
X176042183Y-72430071D01*
X176036570Y-72425098D01*
X176036568Y-72425096D01*
X176015848Y-72406740D01*
X176005257Y-72396149D01*
X175986905Y-72375433D01*
X175986901Y-72375430D01*
X175981929Y-72369817D01*
X175975757Y-72365556D01*
X175975753Y-72365553D01*
X175952966Y-72349824D01*
X175941181Y-72340591D01*
X175914852Y-72317266D01*
X175908213Y-72313781D01*
X175908208Y-72313778D01*
X175883703Y-72300917D01*
X175870892Y-72293173D01*
X175865617Y-72289532D01*
X175841930Y-72273182D01*
X175834918Y-72270522D01*
X175834915Y-72270521D01*
X175809026Y-72260702D01*
X175795376Y-72254559D01*
X175770865Y-72241695D01*
X175764225Y-72238210D01*
X175730063Y-72229789D01*
X175715773Y-72225337D01*
X175689882Y-72215518D01*
X175689878Y-72215517D01*
X175682872Y-72212860D01*
X175675432Y-72211956D01*
X175675422Y-72211954D01*
X175647941Y-72208617D01*
X175633219Y-72205920D01*
X175606336Y-72199294D01*
X175606333Y-72199293D01*
X175599056Y-72197500D01*
X175591555Y-72197500D01*
X166965519Y-72197500D01*
X166918066Y-72188061D01*
X166877838Y-72161181D01*
X166146063Y-71429406D01*
X166114935Y-71377229D01*
X166112331Y-71316528D01*
X166120070Y-71279240D01*
X166338545Y-70226509D01*
X166338797Y-70226561D01*
X166341596Y-70213193D01*
X166341597Y-70213191D01*
X166389300Y-70055934D01*
X166409583Y-69850000D01*
X166389300Y-69644066D01*
X166349597Y-69513181D01*
X166341596Y-69486805D01*
X166338797Y-69473437D01*
X166338545Y-69473490D01*
X166158346Y-68605195D01*
X166158346Y-68554802D01*
X166190374Y-68400477D01*
X166338545Y-67686509D01*
X166338797Y-67686561D01*
X166341596Y-67673193D01*
X166356614Y-67623685D01*
X166389300Y-67515934D01*
X166409583Y-67310000D01*
X166389300Y-67104066D01*
X166329232Y-66906046D01*
X166231685Y-66723550D01*
X166100410Y-66563590D01*
X165940450Y-66432315D01*
X165808589Y-66361833D01*
X165763328Y-66337640D01*
X165763321Y-66337637D01*
X165757954Y-66334768D01*
X165677857Y-66310471D01*
X165565764Y-66276468D01*
X165565759Y-66276467D01*
X165559934Y-66274700D01*
X165553875Y-66274103D01*
X165553869Y-66274102D01*
X165360061Y-66255014D01*
X165354000Y-66254417D01*
X165347939Y-66255014D01*
X165154130Y-66274102D01*
X165154122Y-66274103D01*
X165148066Y-66274700D01*
X165142242Y-66276466D01*
X165142235Y-66276468D01*
X164955877Y-66332999D01*
X164955875Y-66332999D01*
X164950046Y-66334768D01*
X164944679Y-66337636D01*
X164944671Y-66337640D01*
X164772920Y-66429444D01*
X164772915Y-66429447D01*
X164767550Y-66432315D01*
X164762846Y-66436174D01*
X164762842Y-66436178D01*
X164612296Y-66559727D01*
X164612290Y-66559732D01*
X164607590Y-66563590D01*
X164603732Y-66568290D01*
X164603727Y-66568296D01*
X164480178Y-66718842D01*
X164480174Y-66718846D01*
X164476315Y-66723550D01*
X164473447Y-66728915D01*
X164473444Y-66728920D01*
X164381640Y-66900671D01*
X164381636Y-66900679D01*
X164378768Y-66906046D01*
X164376999Y-66911875D01*
X164376999Y-66911877D01*
X164320468Y-67098235D01*
X164320466Y-67098242D01*
X164318700Y-67104066D01*
X164318103Y-67110122D01*
X164318102Y-67110130D01*
X164306193Y-67231047D01*
X164298417Y-67310000D01*
X164299014Y-67316061D01*
X164318102Y-67509869D01*
X164318700Y-67515934D01*
X164320464Y-67521751D01*
X164320466Y-67521758D01*
X164366402Y-67673191D01*
X164369202Y-67686561D01*
X164369454Y-67686509D01*
X164549651Y-68554802D01*
X164549651Y-68605196D01*
X164369454Y-69473491D01*
X164369202Y-69473438D01*
X164366402Y-69486807D01*
X164320466Y-69638241D01*
X164320464Y-69638249D01*
X164318700Y-69644066D01*
X164318103Y-69650118D01*
X164318103Y-69650123D01*
X164303196Y-69801482D01*
X164298417Y-69850000D01*
X161000500Y-69850000D01*
X161000500Y-56134000D01*
X181154867Y-56134000D01*
X181156129Y-56142777D01*
X181172040Y-56253446D01*
X181172041Y-56253450D01*
X181173303Y-56262226D01*
X181176987Y-56270294D01*
X181176988Y-56270295D01*
X181223434Y-56371998D01*
X181223436Y-56372002D01*
X181227118Y-56380063D01*
X181232920Y-56386759D01*
X181232922Y-56386762D01*
X181282466Y-56443939D01*
X181311951Y-56477967D01*
X181420931Y-56548004D01*
X181545228Y-56584500D01*
X181665902Y-56584500D01*
X181674772Y-56584500D01*
X181749735Y-56562488D01*
X181768923Y-56558471D01*
X181779238Y-56557152D01*
X182139261Y-56440534D01*
X182177473Y-56434500D01*
X192102167Y-56434500D01*
X192149620Y-56443939D01*
X192189848Y-56470819D01*
X193569249Y-57850220D01*
X193592002Y-57881506D01*
X193742030Y-58175295D01*
X193764117Y-58218545D01*
X193767644Y-58223108D01*
X193767649Y-58223115D01*
X193769114Y-58225010D01*
X193783797Y-58249327D01*
X193792811Y-58269063D01*
X193800118Y-58285063D01*
X193805920Y-58291759D01*
X193805922Y-58291762D01*
X193869638Y-58365294D01*
X193884951Y-58382967D01*
X193993931Y-58453004D01*
X194118228Y-58489500D01*
X194238901Y-58489500D01*
X194247772Y-58489500D01*
X194372069Y-58453004D01*
X194481049Y-58382967D01*
X194565882Y-58285063D01*
X194619697Y-58167226D01*
X194638133Y-58039000D01*
X194619697Y-57910774D01*
X194565882Y-57792937D01*
X194481049Y-57695033D01*
X194473589Y-57690238D01*
X194473587Y-57690237D01*
X194379526Y-57629788D01*
X194379524Y-57629787D01*
X194372069Y-57624996D01*
X194368349Y-57623903D01*
X194365315Y-57622258D01*
X194362545Y-57620117D01*
X194025506Y-57448002D01*
X193994220Y-57425249D01*
X192527155Y-55958184D01*
X192524797Y-55955474D01*
X192521958Y-55949772D01*
X192513466Y-55942030D01*
X192513465Y-55942029D01*
X192487681Y-55918524D01*
X192483539Y-55914568D01*
X192474852Y-55905881D01*
X192474852Y-55905880D01*
X192470797Y-55901826D01*
X192466066Y-55898584D01*
X192465386Y-55898020D01*
X192461067Y-55894262D01*
X192447423Y-55881823D01*
X192447421Y-55881821D01*
X192438933Y-55874084D01*
X192428220Y-55869933D01*
X192421780Y-55865946D01*
X192417902Y-55863902D01*
X192410958Y-55860835D01*
X192401481Y-55854344D01*
X192390302Y-55851714D01*
X192390294Y-55851711D01*
X192375484Y-55848228D01*
X192359086Y-55843150D01*
X192344891Y-55837651D01*
X192344885Y-55837649D01*
X192334173Y-55833500D01*
X192322682Y-55833500D01*
X192315208Y-55832103D01*
X192310905Y-55831603D01*
X192303302Y-55831251D01*
X192292119Y-55828621D01*
X192280741Y-55830208D01*
X192280737Y-55830208D01*
X192265667Y-55832311D01*
X192248535Y-55833500D01*
X182177470Y-55833500D01*
X182139259Y-55827466D01*
X182055958Y-55800483D01*
X182037767Y-55794590D01*
X182037765Y-55794589D01*
X182037763Y-55794588D01*
X182037761Y-55794587D01*
X181784725Y-55712624D01*
X181784718Y-55712622D01*
X181779237Y-55710847D01*
X181768907Y-55709525D01*
X181749720Y-55705506D01*
X181683285Y-55685999D01*
X181683281Y-55685998D01*
X181674772Y-55683500D01*
X181545228Y-55683500D01*
X181536718Y-55685998D01*
X181536715Y-55685999D01*
X181429444Y-55717496D01*
X181429441Y-55717497D01*
X181420931Y-55719996D01*
X181413468Y-55724791D01*
X181413468Y-55724792D01*
X181319412Y-55785237D01*
X181319406Y-55785241D01*
X181311951Y-55790033D01*
X181306146Y-55796732D01*
X181306143Y-55796735D01*
X181232922Y-55881237D01*
X181232917Y-55881243D01*
X181227118Y-55887937D01*
X181223438Y-55895994D01*
X181223434Y-55896001D01*
X181176988Y-55997704D01*
X181173303Y-56005774D01*
X181172041Y-56014547D01*
X181172040Y-56014553D01*
X181162571Y-56080415D01*
X181154867Y-56134000D01*
X161000500Y-56134000D01*
X161000500Y-48124500D01*
X161017113Y-48062500D01*
X161062500Y-48017113D01*
X161124500Y-48000500D01*
X195371930Y-48000500D01*
X195435679Y-48018142D01*
G37*
%TD.AperFunction*%
%TD*%
%TA.AperFunction,Conductor*%
%TO.N,/PWM4N*%
G36*
X179358859Y-79337752D02*
G01*
X179488247Y-79467140D01*
X179491531Y-79473588D01*
X179490394Y-79480734D01*
X179305866Y-79842083D01*
X179299511Y-79847733D01*
X179291009Y-79847588D01*
X179073822Y-79758563D01*
X179069988Y-79756011D01*
X179067436Y-79752178D01*
X178978410Y-79534988D01*
X178978266Y-79526488D01*
X178983913Y-79520135D01*
X179345267Y-79335604D01*
X179352411Y-79334468D01*
X179358859Y-79337752D01*
G37*
%TD.AperFunction*%
%TD*%
%TA.AperFunction,Conductor*%
%TO.N,/PWM4N*%
G36*
X184408516Y-64389890D02*
G01*
X184625038Y-64480514D01*
X184631153Y-64486423D01*
X184631652Y-64494912D01*
X184506622Y-64880905D01*
X184502372Y-64886762D01*
X184495491Y-64889000D01*
X184312509Y-64889000D01*
X184305628Y-64886762D01*
X184301378Y-64880905D01*
X184176347Y-64494912D01*
X184176846Y-64486423D01*
X184182960Y-64480514D01*
X184399486Y-64389889D01*
X184403999Y-64388983D01*
X184408516Y-64389890D01*
G37*
%TD.AperFunction*%
%TD*%
%TA.AperFunction,Conductor*%
%TO.N,/PWM4P*%
G36*
X184052576Y-63272846D02*
G01*
X184058485Y-63278961D01*
X184149109Y-63495483D01*
X184150016Y-63500000D01*
X184149109Y-63504517D01*
X184058485Y-63721038D01*
X184052576Y-63727153D01*
X184044087Y-63727652D01*
X183658095Y-63602622D01*
X183652238Y-63598372D01*
X183650000Y-63591491D01*
X183650000Y-63408509D01*
X183652238Y-63401628D01*
X183658095Y-63397378D01*
X183727384Y-63374933D01*
X184044088Y-63272347D01*
X184052576Y-63272846D01*
G37*
%TD.AperFunction*%
%TD*%
%TA.AperFunction,Conductor*%
%TO.N,/PWM4P*%
G36*
X178469859Y-79083752D02*
G01*
X178599247Y-79213140D01*
X178602531Y-79219588D01*
X178601394Y-79226734D01*
X178416866Y-79588083D01*
X178410511Y-79593733D01*
X178402009Y-79593588D01*
X178184822Y-79504563D01*
X178180988Y-79502011D01*
X178178436Y-79498178D01*
X178089410Y-79280988D01*
X178089266Y-79272488D01*
X178094913Y-79266135D01*
X178456267Y-79081604D01*
X178463411Y-79080468D01*
X178469859Y-79083752D01*
G37*
%TD.AperFunction*%
%TD*%
%TA.AperFunction,Conductor*%
%TO.N,/PWM1P*%
G36*
X183658778Y-60835884D02*
G01*
X183663040Y-60841074D01*
X183753115Y-61056278D01*
X183754022Y-61060828D01*
X183753360Y-61295368D01*
X183751439Y-61301758D01*
X183746337Y-61306059D01*
X183739714Y-61306872D01*
X183375315Y-61245411D01*
X183368988Y-61242147D01*
X183240468Y-61113627D01*
X183237253Y-61107571D01*
X183237983Y-61100754D01*
X183242407Y-61095516D01*
X183645916Y-60835752D01*
X183652366Y-60833892D01*
X183658778Y-60835884D01*
G37*
%TD.AperFunction*%
%TD*%
%TA.AperFunction,Conductor*%
%TO.N,/PWM1P*%
G36*
X178159733Y-76795604D02*
G01*
X178521084Y-76980134D01*
X178526733Y-76986488D01*
X178526588Y-76994991D01*
X178437564Y-77212176D01*
X178435011Y-77216011D01*
X178431176Y-77218564D01*
X178213991Y-77307588D01*
X178205488Y-77307733D01*
X178199134Y-77302084D01*
X178014604Y-76940733D01*
X178013468Y-76933588D01*
X178016750Y-76927142D01*
X178146142Y-76797750D01*
X178152588Y-76794468D01*
X178159733Y-76795604D01*
G37*
%TD.AperFunction*%
%TD*%
%TA.AperFunction,Conductor*%
%TO.N,/PWM1N*%
G36*
X178303071Y-75545564D02*
G01*
X178600699Y-75761197D01*
X178604750Y-75766459D01*
X178605285Y-75773078D01*
X178602131Y-75778922D01*
X178436668Y-75945321D01*
X178432809Y-75947897D01*
X178217045Y-76036336D01*
X178210333Y-76036987D01*
X178204377Y-76033825D01*
X178201155Y-76027901D01*
X178102942Y-75557430D01*
X178103558Y-75550630D01*
X178107864Y-75545331D01*
X178114395Y-75543339D01*
X178296207Y-75543339D01*
X178303071Y-75545564D01*
G37*
%TD.AperFunction*%
%TD*%
%TA.AperFunction,Conductor*%
%TO.N,/PWM1N*%
G36*
X184001383Y-61443660D02*
G01*
X184005642Y-61448849D01*
X184095739Y-61664112D01*
X184096646Y-61668629D01*
X184095739Y-61673146D01*
X184005115Y-61889668D01*
X183999206Y-61895783D01*
X183990717Y-61896282D01*
X183604725Y-61771252D01*
X183598868Y-61767002D01*
X183596630Y-61760121D01*
X183596630Y-61577139D01*
X183598868Y-61570258D01*
X183604725Y-61566008D01*
X183776900Y-61510237D01*
X183780505Y-61509668D01*
X183817256Y-61509668D01*
X183818094Y-61509668D01*
X183942391Y-61473172D01*
X183988525Y-61443523D01*
X183994974Y-61441667D01*
X184001383Y-61443660D01*
G37*
%TD.AperFunction*%
%TD*%
%TA.AperFunction,Conductor*%
%TO.N,+3.3V*%
G36*
X177248619Y-71900437D02*
G01*
X177252789Y-71906734D01*
X177459857Y-72696806D01*
X177459023Y-72704966D01*
X177453036Y-72710573D01*
X177004997Y-72897127D01*
X177000500Y-72898026D01*
X176996003Y-72897127D01*
X176547963Y-72710573D01*
X176541976Y-72704966D01*
X176541142Y-72696806D01*
X176748211Y-71906734D01*
X176752381Y-71900437D01*
X176759529Y-71898000D01*
X177241471Y-71898000D01*
X177248619Y-71900437D01*
G37*
%TD.AperFunction*%
%TD*%
%TA.AperFunction,Conductor*%
%TO.N,+3.3V*%
G36*
X176280494Y-66802871D02*
G01*
X176728536Y-66989426D01*
X176734523Y-66995033D01*
X176735357Y-67003193D01*
X176528289Y-67793266D01*
X176524119Y-67799563D01*
X176516971Y-67802000D01*
X176035029Y-67802000D01*
X176027881Y-67799563D01*
X176023711Y-67793266D01*
X175816642Y-67003193D01*
X175817476Y-66995033D01*
X175823461Y-66989427D01*
X176271505Y-66802871D01*
X176276000Y-66801973D01*
X176280494Y-66802871D01*
G37*
%TD.AperFunction*%
%TD*%
%TA.AperFunction,Conductor*%
%TO.N,/PWM6*%
G36*
X168230497Y-66530293D02*
G01*
X169587520Y-67206770D01*
X169592249Y-67211084D01*
X169594000Y-67217241D01*
X169594000Y-67402759D01*
X169592249Y-67408916D01*
X169587520Y-67413230D01*
X168230497Y-68089706D01*
X168224295Y-68090894D01*
X168218379Y-68088685D01*
X168214472Y-68083724D01*
X167894865Y-67314488D01*
X167893970Y-67309999D01*
X167894864Y-67305512D01*
X168214473Y-66536273D01*
X168218379Y-66531314D01*
X168224295Y-66529105D01*
X168230497Y-66530293D01*
G37*
%TD.AperFunction*%
%TD*%
%TA.AperFunction,Conductor*%
%TO.N,/PWM6*%
G36*
X192307575Y-59589846D02*
G01*
X192313485Y-59595961D01*
X192404109Y-59812482D01*
X192405016Y-59816999D01*
X192404109Y-59821516D01*
X192313485Y-60038038D01*
X192307576Y-60044153D01*
X192299087Y-60044652D01*
X191913095Y-59919622D01*
X191907238Y-59915372D01*
X191905000Y-59908491D01*
X191905000Y-59725509D01*
X191907238Y-59718628D01*
X191913095Y-59714378D01*
X191982384Y-59691933D01*
X192299088Y-59589347D01*
X192307575Y-59589846D01*
G37*
%TD.AperFunction*%
%TD*%
%TA.AperFunction,Conductor*%
%TO.N,/PWM5*%
G36*
X191164575Y-60224846D02*
G01*
X191170485Y-60230961D01*
X191261109Y-60447482D01*
X191262016Y-60451999D01*
X191261109Y-60456516D01*
X191170485Y-60673038D01*
X191164576Y-60679153D01*
X191156087Y-60679652D01*
X190770095Y-60554622D01*
X190764238Y-60550372D01*
X190762000Y-60543491D01*
X190762000Y-60360509D01*
X190764238Y-60353628D01*
X190770095Y-60349378D01*
X190839384Y-60326933D01*
X191156088Y-60224347D01*
X191164575Y-60224846D01*
G37*
%TD.AperFunction*%
%TD*%
%TA.AperFunction,Conductor*%
%TO.N,/PWM5*%
G36*
X168230497Y-69070293D02*
G01*
X169587520Y-69746770D01*
X169592249Y-69751084D01*
X169594000Y-69757241D01*
X169594000Y-69942759D01*
X169592249Y-69948916D01*
X169587520Y-69953230D01*
X168230497Y-70629706D01*
X168224295Y-70630894D01*
X168218379Y-70628685D01*
X168214472Y-70623724D01*
X167894865Y-69854489D01*
X167893970Y-69850000D01*
X167894865Y-69845511D01*
X167935891Y-69746770D01*
X168214473Y-69076273D01*
X168218379Y-69071314D01*
X168224295Y-69069105D01*
X168230497Y-69070293D01*
G37*
%TD.AperFunction*%
%TD*%
%TA.AperFunction,Conductor*%
%TO.N,+BATT*%
G36*
X165358488Y-67310865D02*
G01*
X165661719Y-67436853D01*
X166130365Y-67631569D01*
X166136220Y-67636907D01*
X166137332Y-67644751D01*
X165855935Y-69000677D01*
X165851864Y-69007375D01*
X165844479Y-69010000D01*
X164863521Y-69010000D01*
X164856136Y-69007375D01*
X164852065Y-69000677D01*
X164570667Y-67644751D01*
X164571779Y-67636907D01*
X164577632Y-67631570D01*
X165349512Y-67310864D01*
X165353999Y-67309970D01*
X165358488Y-67310865D01*
G37*
%TD.AperFunction*%
%TD*%
%TA.AperFunction,Conductor*%
%TO.N,+BATT*%
G36*
X165851864Y-68152625D02*
G01*
X165855935Y-68159323D01*
X166137332Y-69515248D01*
X166136220Y-69523092D01*
X166130365Y-69528430D01*
X165358489Y-69849134D01*
X165354000Y-69850029D01*
X165349511Y-69849134D01*
X164577634Y-69528430D01*
X164571779Y-69523092D01*
X164570667Y-69515249D01*
X164852065Y-68159322D01*
X164856136Y-68152625D01*
X164863521Y-68150000D01*
X165844479Y-68150000D01*
X165851864Y-68152625D01*
G37*
%TD.AperFunction*%
%TD*%
%TA.AperFunction,Conductor*%
%TO.N,+BATT*%
G36*
X165358488Y-69850865D02*
G01*
X165661719Y-69976853D01*
X166130365Y-70171569D01*
X166136220Y-70176907D01*
X166137332Y-70184751D01*
X165855935Y-71540677D01*
X165851864Y-71547375D01*
X165844479Y-71550000D01*
X164863521Y-71550000D01*
X164856136Y-71547375D01*
X164852065Y-71540677D01*
X164570667Y-70184751D01*
X164571779Y-70176907D01*
X164577632Y-70171570D01*
X165349512Y-69850864D01*
X165353999Y-69849970D01*
X165358488Y-69850865D01*
G37*
%TD.AperFunction*%
%TD*%
%TA.AperFunction,Conductor*%
%TO.N,+3.3V*%
G36*
X188461156Y-71158090D02*
G01*
X188464894Y-71165728D01*
X188512947Y-71742370D01*
X188511734Y-71748610D01*
X188507438Y-71753295D01*
X188501326Y-71755042D01*
X188214039Y-71755999D01*
X188213961Y-71755999D01*
X187926673Y-71755042D01*
X187920561Y-71753295D01*
X187916265Y-71748610D01*
X187915052Y-71742370D01*
X187963106Y-71165728D01*
X187966844Y-71158090D01*
X187974766Y-71155000D01*
X188453234Y-71155000D01*
X188461156Y-71158090D01*
G37*
%TD.AperFunction*%
%TD*%
%TA.AperFunction,Conductor*%
%TO.N,+3.3V*%
G36*
X187921048Y-67484988D02*
G01*
X187926317Y-67488541D01*
X188300086Y-67930269D01*
X188302844Y-67938312D01*
X188299427Y-67946099D01*
X187961099Y-68284427D01*
X187953312Y-68287844D01*
X187945269Y-68285086D01*
X187503541Y-67911317D01*
X187499988Y-67906048D01*
X187499713Y-67899697D01*
X187502797Y-67894142D01*
X187705293Y-67690293D01*
X187909142Y-67487797D01*
X187914697Y-67484713D01*
X187921048Y-67484988D01*
G37*
%TD.AperFunction*%
%TD*%
%TA.AperFunction,Conductor*%
%TO.N,/BUZZ*%
G36*
X190481866Y-62270916D02*
G01*
X190666394Y-62632265D01*
X190667531Y-62639411D01*
X190664247Y-62645859D01*
X190534859Y-62775247D01*
X190528411Y-62778531D01*
X190521265Y-62777394D01*
X190251062Y-62639411D01*
X190159915Y-62592865D01*
X190154266Y-62586511D01*
X190154410Y-62578011D01*
X190243438Y-62360818D01*
X190245988Y-62356988D01*
X190249818Y-62354438D01*
X190467011Y-62265410D01*
X190475511Y-62265266D01*
X190481866Y-62270916D01*
G37*
%TD.AperFunction*%
%TD*%
%TA.AperFunction,Conductor*%
%TO.N,/BUZZ*%
G36*
X195932372Y-71511238D02*
G01*
X195936622Y-71517095D01*
X196061652Y-71903087D01*
X196061153Y-71911576D01*
X196055038Y-71917485D01*
X195838517Y-72008109D01*
X195834000Y-72009016D01*
X195829483Y-72008109D01*
X195612961Y-71917485D01*
X195606846Y-71911576D01*
X195606347Y-71903088D01*
X195731377Y-71517095D01*
X195735628Y-71511238D01*
X195742509Y-71509000D01*
X195925491Y-71509000D01*
X195932372Y-71511238D01*
G37*
%TD.AperFunction*%
%TD*%
%TA.AperFunction,Conductor*%
%TO.N,/DP*%
G36*
X176437859Y-90894752D02*
G01*
X176567247Y-91024140D01*
X176570531Y-91030588D01*
X176569394Y-91037734D01*
X176384866Y-91399083D01*
X176378511Y-91404733D01*
X176370009Y-91404588D01*
X176152822Y-91315563D01*
X176148988Y-91313011D01*
X176146436Y-91309178D01*
X176057410Y-91091988D01*
X176057266Y-91083488D01*
X176062913Y-91077135D01*
X176424267Y-90892604D01*
X176431411Y-90891468D01*
X176437859Y-90894752D01*
G37*
%TD.AperFunction*%
%TD*%
%TA.AperFunction,Conductor*%
%TO.N,/DP*%
G36*
X190377516Y-71628890D02*
G01*
X190594038Y-71719514D01*
X190600153Y-71725423D01*
X190600652Y-71733912D01*
X190475622Y-72119905D01*
X190471372Y-72125762D01*
X190464491Y-72128000D01*
X190281509Y-72128000D01*
X190274628Y-72125762D01*
X190270378Y-72119905D01*
X190145347Y-71733912D01*
X190145846Y-71725423D01*
X190151960Y-71719514D01*
X190368486Y-71628889D01*
X190372999Y-71627983D01*
X190377516Y-71628890D01*
G37*
%TD.AperFunction*%
%TD*%
%TA.AperFunction,Conductor*%
%TO.N,/DN*%
G36*
X175294859Y-90894752D02*
G01*
X175424247Y-91024140D01*
X175427531Y-91030588D01*
X175426394Y-91037734D01*
X175241866Y-91399083D01*
X175235511Y-91404733D01*
X175227009Y-91404588D01*
X175009822Y-91315563D01*
X175005988Y-91313011D01*
X175003436Y-91309178D01*
X174914410Y-91091988D01*
X174914266Y-91083488D01*
X174919913Y-91077135D01*
X175281267Y-90892604D01*
X175288411Y-90891468D01*
X175294859Y-90894752D01*
G37*
%TD.AperFunction*%
%TD*%
%TA.AperFunction,Conductor*%
%TO.N,/DN*%
G36*
X189615516Y-71628890D02*
G01*
X189832038Y-71719514D01*
X189838153Y-71725423D01*
X189838652Y-71733912D01*
X189713622Y-72119905D01*
X189709372Y-72125762D01*
X189702491Y-72128000D01*
X189519509Y-72128000D01*
X189512628Y-72125762D01*
X189508378Y-72119905D01*
X189383347Y-71733912D01*
X189383846Y-71725423D01*
X189389960Y-71719514D01*
X189606486Y-71628889D01*
X189610999Y-71627983D01*
X189615516Y-71628890D01*
G37*
%TD.AperFunction*%
%TD*%
%TA.AperFunction,Conductor*%
%TO.N,/RF24_MOSI*%
G36*
X193907733Y-57618604D02*
G01*
X194269084Y-57803134D01*
X194274733Y-57809488D01*
X194274588Y-57817991D01*
X194185564Y-58035176D01*
X194183011Y-58039011D01*
X194179176Y-58041564D01*
X193961991Y-58130588D01*
X193953488Y-58130733D01*
X193947134Y-58125084D01*
X193762604Y-57763733D01*
X193761468Y-57756588D01*
X193764750Y-57750142D01*
X193894142Y-57620750D01*
X193900588Y-57617468D01*
X193907733Y-57618604D01*
G37*
%TD.AperFunction*%
%TD*%
%TA.AperFunction,Conductor*%
%TO.N,/RF24_MOSI*%
G36*
X181974439Y-55990089D02*
G01*
X182101905Y-56031378D01*
X182107762Y-56035628D01*
X182110000Y-56042509D01*
X182110000Y-56225491D01*
X182107762Y-56232372D01*
X182101905Y-56236622D01*
X181715912Y-56361652D01*
X181707423Y-56361153D01*
X181701514Y-56355038D01*
X181610889Y-56138514D01*
X181609983Y-56134000D01*
X181610889Y-56129485D01*
X181701514Y-55912960D01*
X181707423Y-55906846D01*
X181715911Y-55906347D01*
X181974439Y-55990089D01*
G37*
%TD.AperFunction*%
%TD*%
M02*
