M48
; DRILL file {KiCad (7.0.0)} date Tue Jul 18 11:01:08 2023
; FORMAT={-:-/ absolute / inch / decimal}
; #@! TF.CreationDate,2023-07-18T11:01:08+08:00
; #@! TF.GenerationSoftware,Kicad,Pcbnew,(7.0.0)
; #@! TF.FileFunction,Plated,1,2,PTH
FMAT,2
INCH
; #@! TA.AperFunction,Plated,PTH,ViaDrill
T1C0.0118
; #@! TA.AperFunction,Plated,PTH,ViaDrill
T2C0.0157
; #@! TA.AperFunction,Plated,PTH,ViaDrill
T3C0.0236
; #@! TA.AperFunction,Plated,PTH,ComponentDrill
T4C0.0236
; #@! TA.AperFunction,Plated,PTH,ComponentDrill
T5C0.0300
; #@! TA.AperFunction,Plated,PTH,ComponentDrill
T6C0.0354
%
G90
G05
T1
X1.905Y-4.53
X1.915Y-4.5
X1.925Y-4.345
X1.935Y-4.47
X1.97Y-4.47
X2.04Y-4.365
X2.065Y-4.5415
X2.165Y-4.5415
X2.215Y-4.5415
X2.23Y-4.36
X2.265Y-4.48
X2.29Y-4.06
X2.3Y-4.1
X2.33Y-4.075
X2.345Y-4.11
X2.375Y-4.4
X2.375Y-4.45
X2.375Y-4.495
X2.38Y-4.35
X2.385Y-4.3
X2.39Y-4.125
X2.415Y-4.265
X2.415Y-4.365
X2.42Y-4.395
X2.42Y-4.44
X2.425Y-4.125
X2.425Y-4.32
X2.44Y-4.47
X2.46Y-4.22
X2.465Y-4.125
X2.47Y-4.48
X2.485Y-4.25
X2.5Y-4.085
X2.5Y-4.115
X2.51Y-4.485
X2.53Y-4.05
X2.565Y-4.05
X2.6Y-4.05
X2.7Y-4.025
X2.705Y-3.995
X2.72Y-4.55
X2.725Y-4.585
X2.75Y-4.145
X2.795Y-4.46
X2.82Y-4.49
X2.875Y-4.055
X2.875Y-4.215
X2.91Y-4.23
X2.95Y-4.235
X3.01Y-4.505
X3.02Y-4.575
X3.055Y-4.585
X3.09Y-4.585
X3.105Y-4.22
X3.105Y-4.255
X3.115Y-4.565
T2
X2.315Y-4.5415
T3
X2.2Y-4.16
X2.635Y-4.005
T4
X3.1299Y-3.8819
X3.1299Y-3.9291
X3.1299Y-3.9764
X3.1299Y-4.0236
X3.1299Y-4.0709
X3.1299Y-4.1181
T5
X3.1299Y-4.311
X3.1299Y-4.4094
X3.1299Y-4.5079
T6
X1.785Y-4.3593
X1.785Y-4.4593
T4
G00X3.1642Y-3.8298
M15
G01X3.1169Y-3.8298
M16
G05
G00X3.1642Y-4.1702
M15
G01X3.1169Y-4.1702
M16
G05
T0
M30
