%TF.GenerationSoftware,KiCad,Pcbnew,(7.0.0)*%
%TF.CreationDate,2023-07-18T11:01:11+08:00*%
%TF.ProjectId,Board_Car_V0_3,426f6172-645f-4436-9172-5f56305f332e,rev?*%
%TF.SameCoordinates,Original*%
%TF.FileFunction,Legend,Bot*%
%TF.FilePolarity,Positive*%
%FSLAX46Y46*%
G04 Gerber Fmt 4.6, Leading zero omitted, Abs format (unit mm)*
G04 Created by KiCad (PCBNEW (7.0.0)) date 2023-07-18 11:01:11*
%MOMM*%
%LPD*%
G01*
G04 APERTURE LIST*
%ADD10C,0.200000*%
%ADD11C,0.120000*%
G04 APERTURE END LIST*
D10*
G36*
X70065196Y-96902240D02*
G01*
X70064813Y-96891918D01*
X70062799Y-96877684D01*
X70059060Y-96864947D01*
X70053594Y-96853710D01*
X70046403Y-96843970D01*
X70037486Y-96835729D01*
X70026843Y-96828986D01*
X70014473Y-96823742D01*
X70000378Y-96819996D01*
X69990023Y-96818331D01*
X69978900Y-96817332D01*
X69967011Y-96817000D01*
X69628979Y-96817000D01*
X69617414Y-96817332D01*
X69606596Y-96818331D01*
X69596524Y-96819996D01*
X69582815Y-96823742D01*
X69570784Y-96828986D01*
X69560432Y-96835729D01*
X69551759Y-96843970D01*
X69544764Y-96853710D01*
X69539448Y-96864947D01*
X69535811Y-96877684D01*
X69533853Y-96891918D01*
X69533480Y-96902240D01*
X69533480Y-97810335D01*
X69533861Y-97820657D01*
X69535865Y-97834892D01*
X69539586Y-97847628D01*
X69545024Y-97858866D01*
X69552179Y-97868605D01*
X69561052Y-97876846D01*
X69571643Y-97883589D01*
X69583950Y-97888833D01*
X69597975Y-97892579D01*
X69608279Y-97894244D01*
X69619346Y-97895243D01*
X69631177Y-97895576D01*
X69967011Y-97895576D01*
X69978900Y-97895243D01*
X69990023Y-97894244D01*
X70000378Y-97892579D01*
X70009967Y-97890248D01*
X70022911Y-97885504D01*
X70034130Y-97879260D01*
X70043622Y-97871519D01*
X70051389Y-97862279D01*
X70057430Y-97851540D01*
X70061744Y-97839304D01*
X70064333Y-97825569D01*
X70065100Y-97815579D01*
X70065196Y-97810335D01*
X70065196Y-97567314D01*
X69903752Y-97567314D01*
X69903752Y-97739260D01*
X69694436Y-97739260D01*
X69694436Y-96973315D01*
X69903752Y-96973315D01*
X69903752Y-97239051D01*
X69784317Y-97239051D01*
X69784317Y-97395367D01*
X70065196Y-97395367D01*
X70065196Y-96902240D01*
G37*
G36*
X70734910Y-96817000D02*
G01*
X70593982Y-96817000D01*
X70336306Y-97495750D01*
X70338767Y-97483687D01*
X70340901Y-97472288D01*
X70342706Y-97461553D01*
X70344183Y-97451481D01*
X70345567Y-97439826D01*
X70346439Y-97429209D01*
X70346808Y-97417837D01*
X70346808Y-96817000D01*
X70190004Y-96817000D01*
X70190004Y-97895576D01*
X70330933Y-97895576D01*
X70588609Y-97230503D01*
X70586147Y-97242566D01*
X70584014Y-97253965D01*
X70582209Y-97264700D01*
X70580732Y-97274772D01*
X70579347Y-97286427D01*
X70578475Y-97297045D01*
X70578106Y-97308416D01*
X70578106Y-97895576D01*
X70734910Y-97895576D01*
X70734910Y-96817000D01*
G37*
G36*
X71199764Y-96817210D02*
G01*
X71211241Y-96817843D01*
X71222410Y-96818897D01*
X71233272Y-96820373D01*
X71243827Y-96822271D01*
X71254075Y-96824590D01*
X71264016Y-96827331D01*
X71273649Y-96830494D01*
X71282975Y-96834078D01*
X71291994Y-96838085D01*
X71304946Y-96844884D01*
X71317207Y-96852633D01*
X71328777Y-96861331D01*
X71339655Y-96870977D01*
X71349738Y-96881502D01*
X71358829Y-96892744D01*
X71366929Y-96904703D01*
X71374036Y-96917379D01*
X71378224Y-96926229D01*
X71381971Y-96935396D01*
X71385276Y-96944883D01*
X71388141Y-96954688D01*
X71390566Y-96964811D01*
X71392549Y-96975254D01*
X71394092Y-96986015D01*
X71395194Y-96997094D01*
X71395855Y-97008493D01*
X71396076Y-97020210D01*
X71396076Y-97692366D01*
X71396020Y-97698234D01*
X71395580Y-97709735D01*
X71394698Y-97720920D01*
X71393376Y-97731791D01*
X71391613Y-97742347D01*
X71389409Y-97752588D01*
X71386764Y-97762514D01*
X71383679Y-97772125D01*
X71380152Y-97781422D01*
X71374036Y-97794776D01*
X71366929Y-97807422D01*
X71358829Y-97819360D01*
X71349738Y-97830589D01*
X71339655Y-97841110D01*
X71336106Y-97844461D01*
X71324997Y-97853875D01*
X71313197Y-97862332D01*
X71300705Y-97869832D01*
X71291994Y-97874300D01*
X71282975Y-97878342D01*
X71273649Y-97881959D01*
X71264016Y-97885151D01*
X71254075Y-97887917D01*
X71243827Y-97890257D01*
X71233272Y-97892172D01*
X71222410Y-97893661D01*
X71211241Y-97894725D01*
X71199764Y-97895363D01*
X71187981Y-97895576D01*
X70860207Y-97895576D01*
X70860207Y-96973315D01*
X71021163Y-96973315D01*
X71021163Y-97739260D01*
X71140598Y-97739260D01*
X71151984Y-97738924D01*
X71162637Y-97737913D01*
X71177238Y-97735135D01*
X71190186Y-97730841D01*
X71201481Y-97725031D01*
X71211123Y-97717706D01*
X71219112Y-97708865D01*
X71225448Y-97698509D01*
X71230131Y-97686637D01*
X71233162Y-97673250D01*
X71234264Y-97663483D01*
X71234631Y-97653043D01*
X71234631Y-97060998D01*
X71234535Y-97055604D01*
X71233768Y-97045328D01*
X71231179Y-97031200D01*
X71226864Y-97018612D01*
X71220824Y-97007566D01*
X71213057Y-96998061D01*
X71203564Y-96990098D01*
X71192346Y-96983676D01*
X71179402Y-96978795D01*
X71169813Y-96976398D01*
X71159458Y-96974685D01*
X71148335Y-96973657D01*
X71136445Y-96973315D01*
X71021163Y-96973315D01*
X70860207Y-96973315D01*
X70860207Y-96817000D01*
X71187981Y-96817000D01*
X71199764Y-96817210D01*
G37*
G36*
X77286367Y-96902240D02*
G01*
X77285986Y-96891918D01*
X77283987Y-96877684D01*
X77280276Y-96864947D01*
X77274851Y-96853710D01*
X77267713Y-96843970D01*
X77258863Y-96835729D01*
X77248299Y-96828986D01*
X77236022Y-96823742D01*
X77222032Y-96819996D01*
X77211754Y-96818331D01*
X77200715Y-96817332D01*
X77188914Y-96817000D01*
X76866757Y-96817000D01*
X76855193Y-96817332D01*
X76844375Y-96818331D01*
X76834303Y-96819996D01*
X76820593Y-96823742D01*
X76808563Y-96828986D01*
X76798211Y-96835729D01*
X76789537Y-96843970D01*
X76782543Y-96853710D01*
X76777227Y-96864947D01*
X76773590Y-96877684D01*
X76771631Y-96891918D01*
X76771258Y-96902240D01*
X76771258Y-97160893D01*
X76929284Y-97160893D01*
X76929284Y-96973315D01*
X77128341Y-96973315D01*
X77128341Y-97348472D01*
X76771258Y-97348472D01*
X76788355Y-97895576D01*
X77278795Y-97895576D01*
X77278795Y-97739260D01*
X76937344Y-97739260D01*
X76927085Y-97504787D01*
X77188914Y-97504787D01*
X77200715Y-97504454D01*
X77211754Y-97503455D01*
X77222032Y-97501791D01*
X77231549Y-97499460D01*
X77244397Y-97494715D01*
X77255532Y-97488472D01*
X77264954Y-97480730D01*
X77272662Y-97471490D01*
X77278658Y-97460752D01*
X77282940Y-97448515D01*
X77285510Y-97434780D01*
X77286271Y-97424791D01*
X77286367Y-97419547D01*
X77286367Y-96902240D01*
G37*
G36*
X77942647Y-97895576D02*
G01*
X77736750Y-96817000D01*
X77576527Y-96817000D01*
X77371119Y-97895576D01*
X77532563Y-97895576D01*
X77652731Y-97157230D01*
X77653219Y-97146604D01*
X77653766Y-97134571D01*
X77654247Y-97123931D01*
X77654766Y-97112390D01*
X77655323Y-97099949D01*
X77655766Y-97090027D01*
X77656230Y-97079599D01*
X77656716Y-97068664D01*
X77656883Y-97064906D01*
X77656856Y-97075532D01*
X77657079Y-97087565D01*
X77657437Y-97098205D01*
X77657956Y-97109746D01*
X77658636Y-97122187D01*
X77659250Y-97132109D01*
X77659955Y-97142537D01*
X77660750Y-97153472D01*
X77661035Y-97157230D01*
X77781935Y-97895576D01*
X77942647Y-97895576D01*
G37*
D11*
%TO.C,C4*%
X70487000Y-108858267D02*
X70487000Y-108565733D01*
X69467000Y-108858267D02*
X69467000Y-108565733D01*
%TO.C,U1*%
X72771000Y-102652000D02*
X73571000Y-102652000D01*
X72771000Y-99532000D02*
X74571000Y-99532000D01*
X72771000Y-99532000D02*
X71971000Y-99532000D01*
X72771000Y-102652000D02*
X71971000Y-102652000D01*
%TO.C,U7*%
X46990000Y-96558000D02*
X46990000Y-103162000D01*
X61722000Y-104051000D02*
X61722000Y-115354000D01*
X46990000Y-115354000D02*
X49276000Y-115354000D01*
X61722000Y-96558000D02*
X61722000Y-100622000D01*
X61722000Y-96558000D02*
X46990000Y-96558000D01*
X61722000Y-115354000D02*
X59436000Y-115354000D01*
X46990000Y-115354000D02*
X46990000Y-106591000D01*
%TO.C,U4*%
X76385000Y-105200000D02*
X76125000Y-105200000D01*
X76125000Y-110700000D02*
X76125000Y-112350000D01*
X70935000Y-107950000D02*
X70935000Y-110700000D01*
X76385000Y-107950000D02*
X76385000Y-110700000D01*
X70935000Y-107950000D02*
X70935000Y-105200000D01*
X76385000Y-107950000D02*
X76385000Y-105200000D01*
X70935000Y-105200000D02*
X71195000Y-105200000D01*
X70935000Y-110700000D02*
X71195000Y-110700000D01*
X76385000Y-110700000D02*
X76125000Y-110700000D01*
%TO.C,U2*%
X69019000Y-105156000D02*
X68759000Y-105156000D01*
X68759000Y-110656000D02*
X68759000Y-112306000D01*
X63569000Y-107906000D02*
X63569000Y-110656000D01*
X69019000Y-107906000D02*
X69019000Y-110656000D01*
X63569000Y-107906000D02*
X63569000Y-105156000D01*
X69019000Y-107906000D02*
X69019000Y-105156000D01*
X63569000Y-105156000D02*
X63829000Y-105156000D01*
X63569000Y-110656000D02*
X63829000Y-110656000D01*
X69019000Y-110656000D02*
X68759000Y-110656000D01*
%TO.C,M2*%
X76454000Y-114300000D02*
X71374000Y-114300000D01*
X71374000Y-114300000D02*
X71374000Y-116840000D01*
X71374000Y-116840000D02*
X76454000Y-116840000D01*
X76454000Y-116840000D02*
X76454000Y-114300000D01*
%TO.C,M1*%
X68961000Y-114300000D02*
X63881000Y-114300000D01*
X63881000Y-114300000D02*
X63881000Y-116840000D01*
X63881000Y-116840000D02*
X68961000Y-116840000D01*
X68961000Y-116840000D02*
X68961000Y-114300000D01*
%TO.C,J1*%
X76581000Y-96139000D02*
X71501000Y-96139000D01*
X71501000Y-96139000D02*
X71501000Y-98679000D01*
X71501000Y-98679000D02*
X76581000Y-98679000D01*
X76581000Y-98679000D02*
X76581000Y-96139000D01*
%TO.C,C19*%
X69213000Y-100945733D02*
X69213000Y-101238267D01*
X70233000Y-100945733D02*
X70233000Y-101238267D01*
%TO.C,C10*%
X73933267Y-112901000D02*
X73640733Y-112901000D01*
X73933267Y-113921000D02*
X73640733Y-113921000D01*
%TO.C,C9*%
X77980000Y-109239267D02*
X77980000Y-108946733D01*
X76960000Y-109239267D02*
X76960000Y-108946733D01*
%TO.C,C8*%
X76960000Y-114153733D02*
X76960000Y-114446267D01*
X77980000Y-114153733D02*
X77980000Y-114446267D01*
%TO.C,C6*%
X66440267Y-112901000D02*
X66147733Y-112901000D01*
X66440267Y-113921000D02*
X66147733Y-113921000D01*
%TO.C,C5*%
X69467000Y-111994733D02*
X69467000Y-112287267D01*
X70487000Y-111994733D02*
X70487000Y-112287267D01*
%TO.C,C3*%
X75309000Y-100945733D02*
X75309000Y-101238267D01*
X76329000Y-100945733D02*
X76329000Y-101238267D01*
%TD*%
M02*
