%TF.GenerationSoftware,KiCad,Pcbnew,(7.0.0)*%
%TF.CreationDate,2023-07-18T11:01:11+08:00*%
%TF.ProjectId,Board_Car_V0_3,426f6172-645f-4436-9172-5f56305f332e,rev?*%
%TF.SameCoordinates,Original*%
%TF.FileFunction,Legend,Top*%
%TF.FilePolarity,Positive*%
%FSLAX46Y46*%
G04 Gerber Fmt 4.6, Leading zero omitted, Abs format (unit mm)*
G04 Created by KiCad (PCBNEW (7.0.0)) date 2023-07-18 11:01:11*
%MOMM*%
%LPD*%
G01*
G04 APERTURE LIST*
%ADD10C,0.200000*%
%ADD11C,0.180000*%
%ADD12C,0.120000*%
G04 APERTURE END LIST*
D10*
G36*
X45223307Y-100232386D02*
G01*
X45234049Y-100234218D01*
X45243547Y-100236660D01*
X45254916Y-100240080D01*
X45264670Y-100243285D01*
X45275475Y-100247041D01*
X45287333Y-100251345D01*
X45300242Y-100256200D01*
X45309433Y-100259741D01*
X45319091Y-100263527D01*
X45319091Y-100669947D01*
X45222127Y-100669947D01*
X45215797Y-100669742D01*
X45204364Y-100668101D01*
X45194563Y-100664819D01*
X45184610Y-100658409D01*
X45177209Y-100649435D01*
X45173125Y-100640409D01*
X45170675Y-100629742D01*
X45169859Y-100617435D01*
X45169859Y-100282822D01*
X45169908Y-100279712D01*
X45171099Y-100268257D01*
X45173877Y-100258382D01*
X45179582Y-100248261D01*
X45187768Y-100240608D01*
X45198435Y-100235424D01*
X45208754Y-100233054D01*
X45220661Y-100232264D01*
X45223307Y-100232386D01*
G37*
G36*
X50016614Y-100387114D02*
G01*
X49869091Y-100387114D01*
X49869091Y-100232264D01*
X50016614Y-100232264D01*
X50016614Y-100387114D01*
G37*
G36*
X49361950Y-99873075D02*
G01*
X49372602Y-99874086D01*
X49387203Y-99876864D01*
X49400151Y-99881158D01*
X49411446Y-99886968D01*
X49421088Y-99894293D01*
X49429078Y-99903134D01*
X49435414Y-99913490D01*
X49440097Y-99925362D01*
X49443128Y-99938749D01*
X49444230Y-99948516D01*
X49444597Y-99958956D01*
X49444597Y-100551001D01*
X49444501Y-100556395D01*
X49443734Y-100566671D01*
X49441145Y-100580799D01*
X49436830Y-100593387D01*
X49430789Y-100604433D01*
X49423023Y-100613938D01*
X49413530Y-100621901D01*
X49402312Y-100628323D01*
X49389367Y-100633204D01*
X49379779Y-100635601D01*
X49369423Y-100637314D01*
X49358301Y-100638342D01*
X49346411Y-100638684D01*
X49231129Y-100638684D01*
X49231129Y-99872739D01*
X49350563Y-99872739D01*
X49361950Y-99873075D01*
G37*
G36*
X47953250Y-100371482D02*
G01*
X47953250Y-100638684D01*
X47748086Y-100638684D01*
X47748086Y-100326053D01*
X47874360Y-100326053D01*
X47953250Y-100371482D01*
G37*
G36*
X47949342Y-100117958D02*
G01*
X47871673Y-100169738D01*
X47748086Y-100169738D01*
X47748086Y-99872739D01*
X47949342Y-99872739D01*
X47949342Y-100117958D01*
G37*
G36*
X47022929Y-100626960D02*
G01*
X47012236Y-100632166D01*
X47002138Y-100637035D01*
X46992635Y-100641569D01*
X46979498Y-100647740D01*
X46967700Y-100653155D01*
X46957241Y-100657815D01*
X46945380Y-100662853D01*
X46933903Y-100667260D01*
X46923278Y-100669947D01*
X46920228Y-100669897D01*
X46908994Y-100668701D01*
X46899310Y-100665909D01*
X46889384Y-100660176D01*
X46881879Y-100651951D01*
X46876795Y-100641233D01*
X46874471Y-100630864D01*
X46873697Y-100618900D01*
X46873697Y-100284776D01*
X46873901Y-100278417D01*
X46875534Y-100266930D01*
X46878801Y-100257084D01*
X46885181Y-100247084D01*
X46894114Y-100239649D01*
X46903097Y-100235546D01*
X46913714Y-100233084D01*
X46925965Y-100232264D01*
X47022929Y-100232264D01*
X47022929Y-100626960D01*
G37*
G36*
X46457507Y-100387114D02*
G01*
X46309984Y-100387114D01*
X46309984Y-100232264D01*
X46457507Y-100232264D01*
X46457507Y-100387114D01*
G37*
G36*
X43936921Y-100387114D02*
G01*
X43789398Y-100387114D01*
X43789398Y-100232264D01*
X43936921Y-100232264D01*
X43936921Y-100387114D01*
G37*
G36*
X43282257Y-99873075D02*
G01*
X43292910Y-99874086D01*
X43307510Y-99876864D01*
X43320458Y-99881158D01*
X43331753Y-99886968D01*
X43341396Y-99894293D01*
X43349385Y-99903134D01*
X43355721Y-99913490D01*
X43360404Y-99925362D01*
X43363435Y-99938749D01*
X43364537Y-99948516D01*
X43364904Y-99958956D01*
X43364904Y-100551001D01*
X43364808Y-100556395D01*
X43364041Y-100566671D01*
X43361452Y-100580799D01*
X43357137Y-100593387D01*
X43351097Y-100604433D01*
X43343330Y-100613938D01*
X43333837Y-100621901D01*
X43322619Y-100628323D01*
X43309674Y-100633204D01*
X43300086Y-100635601D01*
X43289731Y-100637314D01*
X43278608Y-100638342D01*
X43266718Y-100638684D01*
X43151436Y-100638684D01*
X43151436Y-99872739D01*
X43270870Y-99872739D01*
X43282257Y-99873075D01*
G37*
G36*
X50879813Y-101487961D02*
G01*
X42547623Y-101487961D01*
X42547623Y-99716423D01*
X42990480Y-99716423D01*
X42990480Y-99872739D01*
X42990480Y-100795000D01*
X43318254Y-100795000D01*
X43330037Y-100794789D01*
X43341514Y-100794156D01*
X43352683Y-100793102D01*
X43363545Y-100791626D01*
X43374100Y-100789728D01*
X43384348Y-100787409D01*
X43394288Y-100784668D01*
X43403922Y-100781505D01*
X43413248Y-100777921D01*
X43422267Y-100773914D01*
X43435219Y-100767115D01*
X43447480Y-100759366D01*
X43459050Y-100750668D01*
X43469928Y-100741022D01*
X43480011Y-100730497D01*
X43489102Y-100719255D01*
X43495534Y-100709759D01*
X43638944Y-100709759D01*
X43639031Y-100715003D01*
X43640326Y-100729737D01*
X43643175Y-100742973D01*
X43647579Y-100754710D01*
X43653536Y-100764949D01*
X43661048Y-100773689D01*
X43670114Y-100780931D01*
X43680735Y-100786675D01*
X43692909Y-100790921D01*
X43706638Y-100793668D01*
X43716654Y-100794667D01*
X43727360Y-100795000D01*
X43998714Y-100795000D01*
X44004169Y-100794916D01*
X44014559Y-100794250D01*
X44028845Y-100792003D01*
X44041572Y-100788257D01*
X44052741Y-100783013D01*
X44062352Y-100776270D01*
X44070404Y-100768029D01*
X44076898Y-100758289D01*
X44081833Y-100747052D01*
X44085210Y-100734315D01*
X44087028Y-100720081D01*
X44087374Y-100709759D01*
X44195818Y-100709759D01*
X44195903Y-100715003D01*
X44197184Y-100729737D01*
X44200002Y-100742973D01*
X44204357Y-100754710D01*
X44210249Y-100764949D01*
X44217678Y-100773689D01*
X44226644Y-100780931D01*
X44237147Y-100786675D01*
X44249187Y-100790921D01*
X44262764Y-100793668D01*
X44272669Y-100794667D01*
X44283257Y-100795000D01*
X44547528Y-100795000D01*
X44552907Y-100794916D01*
X44563154Y-100794250D01*
X44577243Y-100792003D01*
X44589796Y-100788257D01*
X44600811Y-100783013D01*
X44610289Y-100776270D01*
X44618230Y-100768029D01*
X44624635Y-100758289D01*
X44629502Y-100747052D01*
X44632832Y-100734315D01*
X44634625Y-100720081D01*
X44634967Y-100709759D01*
X44634967Y-100538789D01*
X44634920Y-100535681D01*
X44633792Y-100523685D01*
X44631161Y-100512383D01*
X44627026Y-100501775D01*
X44621387Y-100491862D01*
X44614245Y-100482644D01*
X44605599Y-100474120D01*
X44595450Y-100466291D01*
X44586851Y-100460875D01*
X44346272Y-100318237D01*
X44346272Y-100232264D01*
X44484513Y-100232264D01*
X44484513Y-100326053D01*
X44633501Y-100326053D01*
X44633501Y-100192452D01*
X44633416Y-100187208D01*
X44632139Y-100172474D01*
X44629329Y-100159238D01*
X44624986Y-100147501D01*
X44619111Y-100137262D01*
X44611703Y-100128522D01*
X44602762Y-100121280D01*
X44592288Y-100115536D01*
X44580282Y-100111291D01*
X44566743Y-100108544D01*
X44556865Y-100107545D01*
X44546307Y-100107212D01*
X44746097Y-100107212D01*
X44746097Y-100795000D01*
X44900459Y-100795000D01*
X44900459Y-100656514D01*
X45014032Y-100656514D01*
X45014183Y-100664496D01*
X45014980Y-100676060D01*
X45016459Y-100687136D01*
X45018620Y-100697722D01*
X45021465Y-100707818D01*
X45024992Y-100717425D01*
X45029201Y-100726543D01*
X45034094Y-100735171D01*
X45039669Y-100743310D01*
X45045926Y-100750959D01*
X45052866Y-100758119D01*
X45057826Y-100762585D01*
X45065664Y-100768744D01*
X45073978Y-100774254D01*
X45082769Y-100779116D01*
X45092036Y-100783330D01*
X45101779Y-100786896D01*
X45112000Y-100789813D01*
X45122697Y-100792082D01*
X45133870Y-100793703D01*
X45145520Y-100794675D01*
X45157646Y-100795000D01*
X45319091Y-100795000D01*
X45319091Y-100920052D01*
X45176942Y-100920052D01*
X45176942Y-100857526D01*
X45025023Y-100857526D01*
X45025023Y-100959863D01*
X45025109Y-100965108D01*
X45026408Y-100979842D01*
X45029265Y-100993077D01*
X45033681Y-101004815D01*
X45039655Y-101015053D01*
X45047188Y-101023794D01*
X45056279Y-101031036D01*
X45066928Y-101036780D01*
X45079136Y-101041025D01*
X45092903Y-101043772D01*
X45102946Y-101044771D01*
X45113683Y-101045104D01*
X45386990Y-101045104D01*
X45392445Y-101045021D01*
X45402835Y-101044355D01*
X45417121Y-101042107D01*
X45429849Y-101038361D01*
X45441018Y-101033117D01*
X45450628Y-101026375D01*
X45458680Y-101018133D01*
X45465174Y-101008394D01*
X45470109Y-100997156D01*
X45473486Y-100984420D01*
X45475304Y-100970186D01*
X45475651Y-100959863D01*
X45475651Y-100107212D01*
X45587025Y-100107212D01*
X45587025Y-100795000D01*
X45744318Y-100795000D01*
X45744318Y-100271343D01*
X45891840Y-100232264D01*
X45891840Y-100795000D01*
X46049866Y-100795000D01*
X46049866Y-100709759D01*
X46159531Y-100709759D01*
X46159617Y-100715003D01*
X46160912Y-100729737D01*
X46163761Y-100742973D01*
X46168165Y-100754710D01*
X46174123Y-100764949D01*
X46181635Y-100773689D01*
X46190701Y-100780931D01*
X46201321Y-100786675D01*
X46213495Y-100790921D01*
X46227224Y-100793668D01*
X46237240Y-100794667D01*
X46247946Y-100795000D01*
X46519300Y-100795000D01*
X46524755Y-100794916D01*
X46535145Y-100794250D01*
X46549431Y-100792003D01*
X46562158Y-100788257D01*
X46573328Y-100783013D01*
X46582938Y-100776270D01*
X46590990Y-100768029D01*
X46597484Y-100758289D01*
X46602419Y-100747052D01*
X46605796Y-100734315D01*
X46607614Y-100720081D01*
X46607960Y-100709759D01*
X46607960Y-100669947D01*
X46717870Y-100669947D01*
X46718001Y-100677088D01*
X46718693Y-100687446D01*
X46719976Y-100697379D01*
X46722610Y-100709961D01*
X46726296Y-100721788D01*
X46731036Y-100732859D01*
X46736829Y-100743174D01*
X46743675Y-100752734D01*
X46751575Y-100761538D01*
X46758118Y-100767518D01*
X46767537Y-100774576D01*
X46777749Y-100780589D01*
X46788755Y-100785556D01*
X46800555Y-100789477D01*
X46813149Y-100792353D01*
X46823115Y-100793823D01*
X46833528Y-100794705D01*
X46844387Y-100795000D01*
X46851398Y-100794328D01*
X46862782Y-100792313D01*
X46874190Y-100789920D01*
X46888058Y-100786772D01*
X46898670Y-100784253D01*
X46910376Y-100781398D01*
X46923175Y-100778208D01*
X46937067Y-100774682D01*
X46952053Y-100770819D01*
X46968132Y-100766622D01*
X46985304Y-100762088D01*
X47003570Y-100757218D01*
X47013113Y-100754657D01*
X47022929Y-100752013D01*
X47022929Y-100795000D01*
X47179489Y-100795000D01*
X47179489Y-99716423D01*
X47587130Y-99716423D01*
X47587130Y-99872739D01*
X47587130Y-100326053D01*
X47587130Y-100795000D01*
X48016509Y-100795000D01*
X48028399Y-100794667D01*
X48039521Y-100793668D01*
X48049877Y-100792003D01*
X48063972Y-100788257D01*
X48076341Y-100783013D01*
X48086984Y-100776270D01*
X48095901Y-100768029D01*
X48103093Y-100758289D01*
X48108558Y-100747052D01*
X48112297Y-100734315D01*
X48114311Y-100720081D01*
X48114695Y-100709759D01*
X48114695Y-100411050D01*
X48114550Y-100403158D01*
X48113788Y-100391720D01*
X48112374Y-100380764D01*
X48110308Y-100370288D01*
X48107589Y-100360293D01*
X48104217Y-100350779D01*
X48100193Y-100341746D01*
X48093812Y-100330450D01*
X48086271Y-100320008D01*
X48077570Y-100310422D01*
X48073116Y-100306512D01*
X48065259Y-100300499D01*
X48056260Y-100293885D01*
X48047928Y-100287873D01*
X48038240Y-100280959D01*
X48027195Y-100273144D01*
X48019077Y-100267433D01*
X48010357Y-100261321D01*
X48001034Y-100254809D01*
X47991108Y-100247896D01*
X47995981Y-100244510D01*
X48005291Y-100238034D01*
X48014019Y-100231951D01*
X48026019Y-100223563D01*
X48036710Y-100216060D01*
X48046092Y-100209441D01*
X48056564Y-100201991D01*
X48066380Y-100194891D01*
X48074883Y-100188300D01*
X48077002Y-100186151D01*
X48084804Y-100177005D01*
X48091530Y-100166982D01*
X48097180Y-100156080D01*
X48101754Y-100144301D01*
X48104478Y-100134891D01*
X48106597Y-100124987D01*
X48108110Y-100114589D01*
X48108726Y-100107212D01*
X48194562Y-100107212D01*
X48370417Y-100795000D01*
X48298365Y-101045104D01*
X48459077Y-101045104D01*
X48525755Y-100791580D01*
X48699412Y-100107212D01*
X48538700Y-100107212D01*
X48447353Y-100576158D01*
X48356006Y-100107212D01*
X48194562Y-100107212D01*
X48108726Y-100107212D01*
X48109019Y-100103698D01*
X48109321Y-100092313D01*
X48109321Y-99801664D01*
X48108948Y-99791342D01*
X48106990Y-99777107D01*
X48103353Y-99764371D01*
X48098037Y-99753133D01*
X48091042Y-99743394D01*
X48082369Y-99735153D01*
X48072017Y-99728410D01*
X48059986Y-99723166D01*
X48046277Y-99719420D01*
X48036205Y-99717755D01*
X48025387Y-99716756D01*
X48013822Y-99716423D01*
X49070173Y-99716423D01*
X49070173Y-99872739D01*
X49070173Y-100795000D01*
X49397946Y-100795000D01*
X49409730Y-100794789D01*
X49421207Y-100794156D01*
X49432376Y-100793102D01*
X49443238Y-100791626D01*
X49453793Y-100789728D01*
X49464041Y-100787409D01*
X49473981Y-100784668D01*
X49483615Y-100781505D01*
X49492941Y-100777921D01*
X49501960Y-100773914D01*
X49514912Y-100767115D01*
X49527173Y-100759366D01*
X49538743Y-100750668D01*
X49549621Y-100741022D01*
X49559704Y-100730497D01*
X49568795Y-100719255D01*
X49575227Y-100709759D01*
X49718637Y-100709759D01*
X49718724Y-100715003D01*
X49720019Y-100729737D01*
X49722868Y-100742973D01*
X49727272Y-100754710D01*
X49733229Y-100764949D01*
X49740741Y-100773689D01*
X49749807Y-100780931D01*
X49760428Y-100786675D01*
X49772602Y-100790921D01*
X49786331Y-100793668D01*
X49796347Y-100794667D01*
X49807053Y-100795000D01*
X50078407Y-100795000D01*
X50083862Y-100794916D01*
X50094252Y-100794250D01*
X50108538Y-100792003D01*
X50121265Y-100788257D01*
X50132434Y-100783013D01*
X50142045Y-100776270D01*
X50150097Y-100768029D01*
X50156591Y-100758289D01*
X50161526Y-100747052D01*
X50164903Y-100734315D01*
X50166721Y-100720081D01*
X50167067Y-100709759D01*
X50167067Y-100560526D01*
X50016614Y-100560526D01*
X50016614Y-100669947D01*
X49869091Y-100669947D01*
X49869091Y-100482369D01*
X50123836Y-100482369D01*
X50167067Y-100438893D01*
X50167067Y-100192452D01*
X50166981Y-100187208D01*
X50165682Y-100172474D01*
X50162825Y-100159238D01*
X50158409Y-100147501D01*
X50152435Y-100137262D01*
X50144902Y-100128522D01*
X50135811Y-100121280D01*
X50125161Y-100115536D01*
X50112953Y-100111291D01*
X50099187Y-100108544D01*
X50089143Y-100107545D01*
X50078407Y-100107212D01*
X49807053Y-100107212D01*
X49801614Y-100107295D01*
X49791252Y-100107961D01*
X49777006Y-100110208D01*
X49764313Y-100113954D01*
X49753175Y-100119199D01*
X49743591Y-100125941D01*
X49735561Y-100134182D01*
X49729085Y-100143922D01*
X49724163Y-100155160D01*
X49720796Y-100167896D01*
X49718983Y-100182130D01*
X49718637Y-100192452D01*
X49718637Y-100232264D01*
X49718637Y-100709759D01*
X49575227Y-100709759D01*
X49576895Y-100707296D01*
X49584002Y-100694620D01*
X49588190Y-100685770D01*
X49591936Y-100676603D01*
X49595242Y-100667116D01*
X49598107Y-100657311D01*
X49600532Y-100647188D01*
X49602515Y-100636745D01*
X49604058Y-100625984D01*
X49605160Y-100614905D01*
X49605821Y-100603506D01*
X49606041Y-100591789D01*
X49606041Y-99919633D01*
X49605986Y-99913765D01*
X49605545Y-99902264D01*
X49604664Y-99891079D01*
X49603342Y-99880208D01*
X49601578Y-99869652D01*
X49599375Y-99859411D01*
X49596730Y-99849485D01*
X49593644Y-99839874D01*
X49590118Y-99830577D01*
X49584002Y-99817223D01*
X49576895Y-99804577D01*
X49568795Y-99792639D01*
X49559704Y-99781410D01*
X49549621Y-99770889D01*
X49546072Y-99767538D01*
X49534963Y-99758124D01*
X49523163Y-99749667D01*
X49510671Y-99742167D01*
X49501960Y-99737699D01*
X49492941Y-99733657D01*
X49483615Y-99730040D01*
X49473981Y-99726848D01*
X49464041Y-99724082D01*
X49453793Y-99721742D01*
X49443238Y-99719827D01*
X49432376Y-99718338D01*
X49421207Y-99717274D01*
X49409730Y-99716636D01*
X49397946Y-99716423D01*
X50282594Y-99716423D01*
X50282594Y-100795000D01*
X50436956Y-100795000D01*
X50436956Y-99716423D01*
X50282594Y-99716423D01*
X49397946Y-99716423D01*
X49070173Y-99716423D01*
X48013822Y-99716423D01*
X47587130Y-99716423D01*
X47179489Y-99716423D01*
X47022929Y-99716423D01*
X47022929Y-100107212D01*
X47012260Y-100107212D01*
X47001558Y-100107212D01*
X46990710Y-100107212D01*
X46980489Y-100107212D01*
X46969196Y-100107212D01*
X46964563Y-100107212D01*
X46953581Y-100107212D01*
X46943459Y-100107212D01*
X46932445Y-100107212D01*
X46922667Y-100107212D01*
X46911554Y-100107212D01*
X46906027Y-100107226D01*
X46895236Y-100107343D01*
X46884798Y-100107575D01*
X46874714Y-100107925D01*
X46860249Y-100108667D01*
X46846578Y-100109671D01*
X46833702Y-100110936D01*
X46821620Y-100112464D01*
X46810332Y-100114254D01*
X46799838Y-100116305D01*
X46790139Y-100118619D01*
X46778442Y-100122110D01*
X46771107Y-100124704D01*
X46760992Y-100129044D01*
X46751942Y-100133926D01*
X46741531Y-100141276D01*
X46733013Y-100149588D01*
X46726388Y-100158861D01*
X46721655Y-100169097D01*
X46718816Y-100180294D01*
X46717870Y-100192452D01*
X46717870Y-100618900D01*
X46717870Y-100669947D01*
X46607960Y-100669947D01*
X46607960Y-100560526D01*
X46457507Y-100560526D01*
X46457507Y-100669947D01*
X46309984Y-100669947D01*
X46309984Y-100482369D01*
X46564729Y-100482369D01*
X46607960Y-100438893D01*
X46607960Y-100192452D01*
X46607874Y-100187208D01*
X46606575Y-100172474D01*
X46603718Y-100159238D01*
X46599302Y-100147501D01*
X46593328Y-100137262D01*
X46585795Y-100128522D01*
X46576704Y-100121280D01*
X46566055Y-100115536D01*
X46553847Y-100111291D01*
X46540080Y-100108544D01*
X46530036Y-100107545D01*
X46519300Y-100107212D01*
X46247946Y-100107212D01*
X46242507Y-100107295D01*
X46232146Y-100107961D01*
X46217899Y-100110208D01*
X46205206Y-100113954D01*
X46194068Y-100119199D01*
X46184484Y-100125941D01*
X46176454Y-100134182D01*
X46169978Y-100143922D01*
X46165057Y-100155160D01*
X46161689Y-100167896D01*
X46159876Y-100182130D01*
X46159531Y-100192452D01*
X46159531Y-100232264D01*
X46159531Y-100709759D01*
X46049866Y-100709759D01*
X46049866Y-100192452D01*
X46049782Y-100187208D01*
X46049112Y-100177219D01*
X46046852Y-100163484D01*
X46043084Y-100151247D01*
X46037810Y-100140509D01*
X46031029Y-100131269D01*
X46022740Y-100123527D01*
X46012945Y-100117284D01*
X46001643Y-100112539D01*
X45988834Y-100109293D01*
X45974518Y-100107545D01*
X45964136Y-100107212D01*
X45955818Y-100107345D01*
X45944066Y-100107936D01*
X45931558Y-100109001D01*
X45921681Y-100110110D01*
X45911379Y-100111485D01*
X45900652Y-100113127D01*
X45889500Y-100115035D01*
X45877923Y-100117208D01*
X45865921Y-100119648D01*
X45853494Y-100122355D01*
X45846714Y-100123793D01*
X45836532Y-100125966D01*
X45826338Y-100128155D01*
X45816130Y-100130362D01*
X45805910Y-100132586D01*
X45795677Y-100134827D01*
X45785431Y-100137086D01*
X45775172Y-100139361D01*
X45764900Y-100141654D01*
X45754615Y-100143964D01*
X45744318Y-100146290D01*
X45744318Y-100107212D01*
X45587025Y-100107212D01*
X45475651Y-100107212D01*
X45319091Y-100107212D01*
X45319091Y-100138475D01*
X45300934Y-100134689D01*
X45283710Y-100131147D01*
X45267419Y-100127850D01*
X45252062Y-100124797D01*
X45237637Y-100121988D01*
X45224145Y-100119424D01*
X45211587Y-100117103D01*
X45199961Y-100115027D01*
X45189269Y-100113196D01*
X45174980Y-100110906D01*
X45162791Y-100109166D01*
X45152701Y-100107975D01*
X45140549Y-100107212D01*
X45133260Y-100107345D01*
X45122699Y-100108046D01*
X45112584Y-100109349D01*
X45099791Y-100112020D01*
X45087793Y-100115760D01*
X45076588Y-100120569D01*
X45066177Y-100126446D01*
X45056560Y-100133391D01*
X45047737Y-100141406D01*
X45039837Y-100150290D01*
X45032991Y-100159968D01*
X45027198Y-100170440D01*
X45022458Y-100181706D01*
X45018771Y-100193765D01*
X45016698Y-100203331D01*
X45015217Y-100213343D01*
X45014328Y-100223801D01*
X45014032Y-100234706D01*
X45014032Y-100617435D01*
X45014032Y-100656514D01*
X44900459Y-100656514D01*
X44900459Y-100107212D01*
X44746097Y-100107212D01*
X44546307Y-100107212D01*
X44284478Y-100107212D01*
X44279024Y-100107295D01*
X44268634Y-100107961D01*
X44254348Y-100110208D01*
X44241620Y-100113954D01*
X44230451Y-100119199D01*
X44220840Y-100125941D01*
X44212788Y-100134182D01*
X44206295Y-100143922D01*
X44201359Y-100155160D01*
X44197983Y-100167896D01*
X44196164Y-100182130D01*
X44195818Y-100192452D01*
X44195818Y-100347791D01*
X44195864Y-100350779D01*
X44196975Y-100362344D01*
X44199566Y-100373291D01*
X44203638Y-100383620D01*
X44209191Y-100393330D01*
X44216224Y-100402423D01*
X44224738Y-100410897D01*
X44234733Y-100418753D01*
X44243201Y-100424239D01*
X44484513Y-100568342D01*
X44484513Y-100669947D01*
X44346272Y-100669947D01*
X44346272Y-100560526D01*
X44195818Y-100560526D01*
X44195818Y-100709759D01*
X44087374Y-100709759D01*
X44087374Y-100560526D01*
X43936921Y-100560526D01*
X43936921Y-100669947D01*
X43789398Y-100669947D01*
X43789398Y-100482369D01*
X44044143Y-100482369D01*
X44087374Y-100438893D01*
X44087374Y-100192452D01*
X44087288Y-100187208D01*
X44085989Y-100172474D01*
X44083132Y-100159238D01*
X44078716Y-100147501D01*
X44072742Y-100137262D01*
X44065209Y-100128522D01*
X44056118Y-100121280D01*
X44045468Y-100115536D01*
X44033260Y-100111291D01*
X44019494Y-100108544D01*
X44009450Y-100107545D01*
X43998714Y-100107212D01*
X43727360Y-100107212D01*
X43721921Y-100107295D01*
X43711559Y-100107961D01*
X43697313Y-100110208D01*
X43684620Y-100113954D01*
X43673482Y-100119199D01*
X43663898Y-100125941D01*
X43655868Y-100134182D01*
X43649392Y-100143922D01*
X43644470Y-100155160D01*
X43641103Y-100167896D01*
X43639290Y-100182130D01*
X43638944Y-100192452D01*
X43638944Y-100232264D01*
X43638944Y-100709759D01*
X43495534Y-100709759D01*
X43497202Y-100707296D01*
X43504309Y-100694620D01*
X43508497Y-100685770D01*
X43512243Y-100676603D01*
X43515549Y-100667116D01*
X43518414Y-100657311D01*
X43520839Y-100647188D01*
X43522822Y-100636745D01*
X43524365Y-100625984D01*
X43525467Y-100614905D01*
X43526128Y-100603506D01*
X43526348Y-100591789D01*
X43526348Y-99919633D01*
X43526293Y-99913765D01*
X43525853Y-99902264D01*
X43524971Y-99891079D01*
X43523649Y-99880208D01*
X43521886Y-99869652D01*
X43519682Y-99859411D01*
X43517037Y-99849485D01*
X43514465Y-99841475D01*
X44744632Y-99841475D01*
X44744632Y-100013422D01*
X44901924Y-100013422D01*
X44901924Y-99841475D01*
X44744632Y-99841475D01*
X43514465Y-99841475D01*
X43513951Y-99839874D01*
X43510425Y-99830577D01*
X43504309Y-99817223D01*
X43497202Y-99804577D01*
X43489102Y-99792639D01*
X43480011Y-99781410D01*
X43469928Y-99770889D01*
X43466379Y-99767538D01*
X43455270Y-99758124D01*
X43443470Y-99749667D01*
X43430978Y-99742167D01*
X43422267Y-99737699D01*
X43413248Y-99733657D01*
X43403922Y-99730040D01*
X43394288Y-99726848D01*
X43384348Y-99724082D01*
X43374100Y-99721742D01*
X43363545Y-99719827D01*
X43352683Y-99718338D01*
X43341514Y-99717274D01*
X43330037Y-99716636D01*
X43318254Y-99716423D01*
X42990480Y-99716423D01*
X42547623Y-99716423D01*
X42547623Y-99273566D01*
X50879813Y-99273566D01*
X50879813Y-101487961D01*
G37*
D11*
G36*
X55199716Y-98959000D02*
G01*
X55350512Y-98959000D01*
X55510100Y-99406770D01*
X55510100Y-99417030D01*
X55510100Y-99425848D01*
X55510100Y-99437380D01*
X55510100Y-99447810D01*
X55510100Y-99459766D01*
X55510100Y-99468584D01*
X55510100Y-99478081D01*
X55510100Y-99488256D01*
X55510100Y-99493598D01*
X55367877Y-99493598D01*
X55367877Y-99789034D01*
X55550107Y-99789034D01*
X55550107Y-98959000D01*
X55694967Y-98959000D01*
X55694967Y-99929718D01*
X55310944Y-99929718D01*
X55300377Y-99929419D01*
X55290491Y-99928520D01*
X55281287Y-99927021D01*
X55268759Y-99923650D01*
X55257765Y-99918930D01*
X55248306Y-99912862D01*
X55240380Y-99905445D01*
X55233988Y-99896679D01*
X55229131Y-99886565D01*
X55225807Y-99875103D01*
X55224017Y-99862292D01*
X55223676Y-99853002D01*
X55223676Y-99485905D01*
X55224040Y-99476263D01*
X55225129Y-99467285D01*
X55227712Y-99456349D01*
X55231586Y-99446595D01*
X55236752Y-99438022D01*
X55243209Y-99430631D01*
X55250958Y-99424421D01*
X55259998Y-99419392D01*
X55265002Y-99417321D01*
X55275141Y-99414557D01*
X55283824Y-99413032D01*
X55294046Y-99411761D01*
X55305806Y-99410745D01*
X55315636Y-99410149D01*
X55326332Y-99409696D01*
X55337893Y-99409386D01*
X55350319Y-99409220D01*
X55359085Y-99409188D01*
X55199716Y-98959000D01*
G37*
G36*
X54632364Y-98959000D02*
G01*
X54788655Y-98959000D01*
X54895048Y-99300817D01*
X55002099Y-98959000D01*
X55155972Y-98959000D01*
X55155972Y-98964055D01*
X54975501Y-99455789D01*
X54985955Y-99484801D01*
X54996075Y-99512896D01*
X55005862Y-99540075D01*
X55015316Y-99566338D01*
X55024437Y-99591684D01*
X55033224Y-99616114D01*
X55041679Y-99639629D01*
X55049800Y-99662227D01*
X55057588Y-99683908D01*
X55065043Y-99704674D01*
X55072165Y-99724523D01*
X55078953Y-99743456D01*
X55085409Y-99761473D01*
X55091531Y-99778574D01*
X55097320Y-99794759D01*
X55102776Y-99810027D01*
X55107899Y-99824379D01*
X55112689Y-99837815D01*
X55117145Y-99850335D01*
X55121268Y-99861939D01*
X55125059Y-99872626D01*
X55128516Y-99882397D01*
X55131639Y-99891252D01*
X55136888Y-99906214D01*
X55140803Y-99917510D01*
X55144178Y-99927584D01*
X55144762Y-99929718D01*
X54990229Y-99929718D01*
X54893949Y-99613399D01*
X54796789Y-99929718D01*
X54643355Y-99929718D01*
X54643355Y-99924223D01*
X54812836Y-99459526D01*
X54632364Y-98959000D01*
G37*
G36*
X52607454Y-99789034D02*
G01*
X52767043Y-99789034D01*
X52767043Y-98959000D01*
X52911024Y-98959000D01*
X52911024Y-99789034D01*
X53070612Y-99789034D01*
X53070612Y-99929718D01*
X52607454Y-99929718D01*
X52607454Y-99789034D01*
G37*
G36*
X52054171Y-98959000D02*
G01*
X52210462Y-98959000D01*
X52316854Y-99300817D01*
X52423906Y-98959000D01*
X52577779Y-98959000D01*
X52577779Y-98964055D01*
X52397308Y-99455789D01*
X52407761Y-99484801D01*
X52417882Y-99512896D01*
X52427669Y-99540075D01*
X52437123Y-99566338D01*
X52446243Y-99591684D01*
X52455031Y-99616114D01*
X52463485Y-99639629D01*
X52471607Y-99662227D01*
X52479395Y-99683908D01*
X52486850Y-99704674D01*
X52493971Y-99724523D01*
X52500760Y-99743456D01*
X52507216Y-99761473D01*
X52513338Y-99778574D01*
X52519127Y-99794759D01*
X52524583Y-99810027D01*
X52529706Y-99824379D01*
X52534495Y-99837815D01*
X52538952Y-99850335D01*
X52543075Y-99861939D01*
X52546865Y-99872626D01*
X52550322Y-99882397D01*
X52553446Y-99891252D01*
X52558694Y-99906214D01*
X52562610Y-99917510D01*
X52565984Y-99927584D01*
X52566568Y-99929718D01*
X52412036Y-99929718D01*
X52315755Y-99613399D01*
X52218595Y-99929718D01*
X52065162Y-99929718D01*
X52065162Y-99924223D01*
X52234642Y-99459526D01*
X52054171Y-98959000D01*
G37*
G36*
X61956718Y-114869055D02*
G01*
X61956419Y-114879463D01*
X61955520Y-114889199D01*
X61954021Y-114898264D01*
X61950650Y-114910602D01*
X61945930Y-114921430D01*
X61939862Y-114930747D01*
X61932445Y-114938553D01*
X61923679Y-114944848D01*
X61913565Y-114949632D01*
X61902103Y-114952905D01*
X61889292Y-114954668D01*
X61880002Y-114955004D01*
X61618418Y-114955004D01*
X61608171Y-114954731D01*
X61598369Y-114953914D01*
X61589011Y-114952552D01*
X61580097Y-114950645D01*
X61571628Y-114948193D01*
X61561027Y-114944077D01*
X61551215Y-114938992D01*
X61542194Y-114932938D01*
X61533963Y-114925916D01*
X61532029Y-114924009D01*
X61526098Y-114916357D01*
X61519707Y-114907522D01*
X61513002Y-114898097D01*
X61507045Y-114889654D01*
X61500293Y-114880032D01*
X61492744Y-114869231D01*
X61487269Y-114861376D01*
X61481440Y-114852997D01*
X61478393Y-114848612D01*
X61472171Y-114857545D01*
X61466310Y-114865936D01*
X61460809Y-114873784D01*
X61455669Y-114881090D01*
X61448636Y-114891030D01*
X61442413Y-114899750D01*
X61437002Y-114907249D01*
X61431050Y-114915348D01*
X61425638Y-114922419D01*
X61422120Y-114926427D01*
X61413492Y-114934258D01*
X61404094Y-114941045D01*
X61393928Y-114946788D01*
X61385798Y-114950410D01*
X61377235Y-114953444D01*
X61368240Y-114955892D01*
X61358812Y-114957751D01*
X61348951Y-114959024D01*
X61338657Y-114959709D01*
X61331554Y-114959840D01*
X61062716Y-114959840D01*
X61053426Y-114959495D01*
X61040615Y-114957682D01*
X61029153Y-114954317D01*
X61019039Y-114949398D01*
X61010273Y-114942926D01*
X61002856Y-114934900D01*
X60996788Y-114925321D01*
X60992068Y-114914189D01*
X60988697Y-114901504D01*
X60987198Y-114892184D01*
X60986299Y-114882173D01*
X60986000Y-114871473D01*
X60986000Y-114629892D01*
X61126683Y-114629892D01*
X61126683Y-114814540D01*
X61367165Y-114814540D01*
X61408051Y-114743538D01*
X61408051Y-114629892D01*
X61548735Y-114629892D01*
X61548735Y-114741120D01*
X61595337Y-114811023D01*
X61816034Y-114811023D01*
X61816034Y-114629892D01*
X61548735Y-114629892D01*
X61408051Y-114629892D01*
X61126683Y-114629892D01*
X60986000Y-114629892D01*
X60986000Y-114485032D01*
X61956718Y-114485032D01*
X61956718Y-114869055D01*
G37*
G36*
X61956718Y-115222743D02*
G01*
X61956718Y-115374857D01*
X60986000Y-115561043D01*
X60986000Y-115417502D01*
X61154820Y-115388486D01*
X61154820Y-115226480D01*
X61295504Y-115226480D01*
X61295504Y-115368043D01*
X61732284Y-115297701D01*
X61295504Y-115226480D01*
X61154820Y-115226480D01*
X61154820Y-115207355D01*
X60986000Y-115178339D01*
X60986000Y-115035457D01*
X60988418Y-115035457D01*
X61956718Y-115222743D01*
G37*
G36*
X61816034Y-116059152D02*
G01*
X61816034Y-115899564D01*
X60986000Y-115899564D01*
X60986000Y-115755583D01*
X61816034Y-115755583D01*
X61816034Y-115595995D01*
X61956718Y-115595995D01*
X61956718Y-116059152D01*
X61816034Y-116059152D01*
G37*
G36*
X61281436Y-116413939D02*
G01*
X61281436Y-116119163D01*
X61422120Y-116119163D01*
X61422120Y-116413939D01*
X61281436Y-116413939D01*
G37*
G36*
X68306718Y-114869055D02*
G01*
X68306419Y-114879463D01*
X68305520Y-114889199D01*
X68304021Y-114898264D01*
X68300650Y-114910602D01*
X68295930Y-114921430D01*
X68289862Y-114930747D01*
X68282445Y-114938553D01*
X68273679Y-114944848D01*
X68263565Y-114949632D01*
X68252103Y-114952905D01*
X68239292Y-114954668D01*
X68230002Y-114955004D01*
X67968418Y-114955004D01*
X67958171Y-114954731D01*
X67948369Y-114953914D01*
X67939011Y-114952552D01*
X67930097Y-114950645D01*
X67921628Y-114948193D01*
X67911027Y-114944077D01*
X67901215Y-114938992D01*
X67892194Y-114932938D01*
X67883963Y-114925916D01*
X67882029Y-114924009D01*
X67876098Y-114916357D01*
X67869707Y-114907522D01*
X67863002Y-114898097D01*
X67857045Y-114889654D01*
X67850293Y-114880032D01*
X67842744Y-114869231D01*
X67837269Y-114861376D01*
X67831440Y-114852997D01*
X67828393Y-114848612D01*
X67822171Y-114857545D01*
X67816310Y-114865936D01*
X67810809Y-114873784D01*
X67805669Y-114881090D01*
X67798636Y-114891030D01*
X67792413Y-114899750D01*
X67787002Y-114907249D01*
X67781050Y-114915348D01*
X67775638Y-114922419D01*
X67772120Y-114926427D01*
X67763492Y-114934258D01*
X67754094Y-114941045D01*
X67743928Y-114946788D01*
X67735798Y-114950410D01*
X67727235Y-114953444D01*
X67718240Y-114955892D01*
X67708812Y-114957751D01*
X67698951Y-114959024D01*
X67688657Y-114959709D01*
X67681554Y-114959840D01*
X67412716Y-114959840D01*
X67403426Y-114959495D01*
X67390615Y-114957682D01*
X67379153Y-114954317D01*
X67369039Y-114949398D01*
X67360273Y-114942926D01*
X67352856Y-114934900D01*
X67346788Y-114925321D01*
X67342068Y-114914189D01*
X67338697Y-114901504D01*
X67337198Y-114892184D01*
X67336299Y-114882173D01*
X67336000Y-114871473D01*
X67336000Y-114629892D01*
X67476683Y-114629892D01*
X67476683Y-114814540D01*
X67717165Y-114814540D01*
X67758051Y-114743538D01*
X67758051Y-114629892D01*
X67898735Y-114629892D01*
X67898735Y-114741120D01*
X67945337Y-114811023D01*
X68166034Y-114811023D01*
X68166034Y-114629892D01*
X67898735Y-114629892D01*
X67758051Y-114629892D01*
X67476683Y-114629892D01*
X67336000Y-114629892D01*
X67336000Y-114485032D01*
X68306718Y-114485032D01*
X68306718Y-114869055D01*
G37*
G36*
X68306718Y-115222743D02*
G01*
X68306718Y-115374857D01*
X67336000Y-115561043D01*
X67336000Y-115417502D01*
X67504820Y-115388486D01*
X67504820Y-115226480D01*
X67645504Y-115226480D01*
X67645504Y-115368043D01*
X68082284Y-115297701D01*
X67645504Y-115226480D01*
X67504820Y-115226480D01*
X67504820Y-115207355D01*
X67336000Y-115178339D01*
X67336000Y-115035457D01*
X67338418Y-115035457D01*
X68306718Y-115222743D01*
G37*
G36*
X68166034Y-116059152D02*
G01*
X68166034Y-115899564D01*
X67336000Y-115899564D01*
X67336000Y-115755583D01*
X68166034Y-115755583D01*
X68166034Y-115595995D01*
X68306718Y-115595995D01*
X68306718Y-116059152D01*
X68166034Y-116059152D01*
G37*
G36*
X67673641Y-116626724D02*
G01*
X67673641Y-116438120D01*
X67490752Y-116438120D01*
X67490752Y-116306448D01*
X67673641Y-116306448D01*
X67673641Y-116117844D01*
X67814325Y-116117844D01*
X67814325Y-116306448D01*
X67997214Y-116306448D01*
X67997214Y-116438120D01*
X67814325Y-116438120D01*
X67814325Y-116626724D01*
X67673641Y-116626724D01*
G37*
D12*
%TO.C,USB1*%
X81200000Y-97000000D02*
X81200000Y-106200000D01*
X77800000Y-97000000D02*
X77800000Y-106200000D01*
%TO.C,U5*%
X51196000Y-111687000D02*
X50746000Y-111687000D01*
X57966000Y-104467000D02*
X57966000Y-104917000D01*
X57966000Y-111687000D02*
X57966000Y-111237000D01*
X51196000Y-104467000D02*
X50746000Y-104467000D01*
X50746000Y-104467000D02*
X50746000Y-104917000D01*
X57516000Y-111687000D02*
X57966000Y-111687000D01*
X57516000Y-104467000D02*
X57966000Y-104467000D01*
X57966000Y-111237000D02*
X59256000Y-111237000D01*
X50746000Y-111687000D02*
X50746000Y-111237000D01*
%TO.C,U3*%
X72350000Y-106232000D02*
X72350000Y-108182000D01*
X72350000Y-106232000D02*
X72350000Y-102782000D01*
X67230000Y-106232000D02*
X67230000Y-104282000D01*
X67230000Y-106232000D02*
X67230000Y-108182000D01*
%TO.C,SW3*%
X77600000Y-116300000D02*
X81400000Y-116300000D01*
X81400000Y-116300000D02*
X81400000Y-107700000D01*
X81400000Y-107700000D02*
X77600000Y-107700000D01*
X77600000Y-107700000D02*
X77600000Y-116300000D01*
%TO.C,R13*%
X65532724Y-108345500D02*
X65023276Y-108345500D01*
X65532724Y-107300500D02*
X65023276Y-107300500D01*
%TO.C,R12*%
X67295500Y-111991224D02*
X67295500Y-111481776D01*
X68340500Y-111991224D02*
X68340500Y-111481776D01*
%TO.C,R11*%
X74944500Y-98678276D02*
X74944500Y-99187724D01*
X73899500Y-98678276D02*
X73899500Y-99187724D01*
%TO.C,R3*%
X76468500Y-103377276D02*
X76468500Y-103886724D01*
X75423500Y-103377276D02*
X75423500Y-103886724D01*
%TO.C,R2*%
X74690500Y-103377276D02*
X74690500Y-103886724D01*
X73645500Y-103377276D02*
X73645500Y-103886724D01*
%TO.C,R1*%
X45973276Y-115555500D02*
X46482724Y-115555500D01*
X45973276Y-116600500D02*
X46482724Y-116600500D01*
%TO.C,L1*%
X68834000Y-115824000D02*
X68834000Y-110998000D01*
X73152000Y-110998000D02*
X73152000Y-115824000D01*
X69723000Y-115824000D02*
X68834000Y-115824000D01*
X68834000Y-110998000D02*
X69723000Y-110998000D01*
X73152000Y-115824000D02*
X72263000Y-115824000D01*
X72263000Y-110998000D02*
X73152000Y-110998000D01*
%TO.C,J2*%
X51308000Y-96139000D02*
X56388000Y-96139000D01*
X56388000Y-96139000D02*
X56388000Y-98679000D01*
X56388000Y-98679000D02*
X51308000Y-98679000D01*
X51308000Y-98679000D02*
X51308000Y-96139000D01*
%TO.C,D3*%
X71982000Y-99733000D02*
X71982000Y-97273000D01*
X70512000Y-97273000D02*
X70512000Y-99733000D01*
X71982000Y-97273000D02*
X70512000Y-97273000D01*
%TO.C,D2*%
X47839000Y-111995000D02*
G75*
G03*
X47839000Y-111995000I-2500000J0D01*
G01*
X45338538Y-114984999D02*
G75*
G03*
X46883830Y-109435001I462J2989999D01*
G01*
X43794170Y-109435000D02*
G75*
G03*
X45339462Y-114985000I1544830J-2560000D01*
G01*
X46884000Y-109435000D02*
X43794000Y-109435000D01*
%TO.C,D1*%
X76683000Y-112189500D02*
X76683000Y-112839500D01*
X73563000Y-112189500D02*
X73563000Y-112839500D01*
X76683000Y-112189500D02*
X76683000Y-110514500D01*
X73563000Y-112189500D02*
X73563000Y-111539500D01*
%TO.C,C17*%
X65354252Y-110765000D02*
X63931748Y-110765000D01*
X65354252Y-108945000D02*
X63931748Y-108945000D01*
%TO.C,C14*%
X58019733Y-99947000D02*
X58312267Y-99947000D01*
X58019733Y-100967000D02*
X58312267Y-100967000D01*
%TO.C,C13*%
X61997000Y-101269748D02*
X61997000Y-102692252D01*
X60177000Y-101269748D02*
X60177000Y-102692252D01*
%TO.C,C12*%
X58019733Y-101471000D02*
X58312267Y-101471000D01*
X58019733Y-102491000D02*
X58312267Y-102491000D01*
%TO.C,C11*%
X65354252Y-113178000D02*
X63931748Y-113178000D01*
X65354252Y-111358000D02*
X63931748Y-111358000D01*
%TO.C,C7*%
X76456000Y-98786733D02*
X76456000Y-99079267D01*
X75436000Y-98786733D02*
X75436000Y-99079267D01*
%TO.C,C2*%
X72388000Y-99079267D02*
X72388000Y-98786733D01*
X73408000Y-99079267D02*
X73408000Y-98786733D01*
%TO.C,C1*%
X73697000Y-108407252D02*
X73697000Y-106984748D01*
X76417000Y-108407252D02*
X76417000Y-106984748D01*
%TO.C,BT2*%
X62103000Y-114300000D02*
X67183000Y-114300000D01*
X67183000Y-114300000D02*
X67183000Y-116840000D01*
X67183000Y-116840000D02*
X62103000Y-116840000D01*
X62103000Y-116840000D02*
X62103000Y-114300000D01*
%TD*%
M02*
